error_04_fix_pit_syu_ngau.ufo
<glyph name="ety001_cid02755_EL" format="1">
  <advance width="1000"/>
  <outline>
    <contour>
      <point x="321" y="-18" type="curve"/>
      <point x="321" y="331" type="line"/>
      <point x="291" y="331" type="line"/>
      <point x="291" y="-19" type="line"/>
      <point x="291" y="-31"/>
      <point x="287" y="-35"/>
      <point x="274" y="-36" type="curve"/>
      <point x="260" y="-36"/>
      <point x="213" y="-37"/>
      <point x="153" y="-35" type="curve"/>
      <point x="158" y="-44"/>
      <point x="163" y="-54"/>
      <point x="165" y="-62" type="curve"/>
      <point x="237" y="-62"/>
      <point x="277" y="-62"/>
      <point x="295" y="-57" type="curve"/>
      <point x="315" y="-51"/>
      <point x="321" y="-41"/>
    </contour>
    <contour>
      <point x="486" y="498" type="line"/>
      <point x="478" y="498" type="line"/>
      <point x="478" y="490" type="line"/>
      <point x="434" y="436"/>
      <point x="356" y="372"/>
      <point x="291" y="332" type="curve"/>
      <point x="298" y="327"/>
      <point x="307" y="321"/>
      <point x="312" y="315" type="curve"/>
      <point x="378" y="355"/>
      <point x="462" y="421"/>
      <point x="517" y="484" type="curve"/>
      <point x="493" y="500" type="line"/>
    </contour>
  </outline>
</glyph>
<glyph name="ety002_cid02755_H" format="1">
  <advance width="1000"/>
  <outline>
    <contour>
      <point x="389" y="49" type="curve"/>
      <point x="389" y="302" type="line"/>
      <point x="252" y="302" type="line"/>
      <point x="252" y="53" type="line"/>
      <point x="252" y="42"/>
      <point x="248" y="39"/>
      <point x="235" y="39" type="curve"/>
      <point x="223" y="39"/>
      <point x="179" y="39"/>
      <point x="146" y="41" type="curve"/>
      <point x="163" y="5"/>
      <point x="182" y="-49"/>
      <point x="187" y="-87" type="curve"/>
      <point x="250" y="-87"/>
      <point x="299" y="-86"/>
      <point x="339" y="-66" type="curve"/>
      <point x="380" y="-46"/>
      <point x="389" y="-11"/>
    </contour>
    <contour>
      <point x="441" y="493" type="line"/>
      <point x="407" y="493" type="line"/>
      <point x="407" y="467" type="line"/>
      <point x="379" y="421"/>
      <point x="310" y="346"/>
      <point x="252" y="303" type="curve"/>
      <point x="273" y="284"/>
      <point x="309" y="246"/>
      <point x="326" y="221" type="curve"/>
      <point x="407" y="275"/>
      <point x="493" y="359"/>
      <point x="557" y="430" type="curve"/>
      <point x="470" y="500" type="line"/>
    </contour>
  </outline>
</glyph>
<glyph name="ety003_cid02899_EL" format="1">
  <advance width="1000"/>
  <outline>
    <contour>
      <point x="841" y="785" type="line"/>
      <point x="834" y="785" type="line"/>
      <point x="834" y="778" type="line"/>
      <point x="790" y="719"/>
      <point x="706" y="649"/>
      <point x="634" y="608" type="curve"/>
      <point x="641" y="603"/>
      <point x="650" y="595"/>
      <point x="655" y="589" type="curve"/>
      <point x="727" y="632"/>
      <point x="816" y="704"/>
      <point x="869" y="773" type="curve"/>
      <point x="848" y="787" type="line"/>
    </contour>
    <contour>
      <point x="664" y="134" type="curve"/>
      <point x="664" y="607" type="line"/>
      <point x="634" y="607" type="line"/>
      <point x="634" y="133" type="line"/>
      <point x="634" y="124"/>
      <point x="631" y="121"/>
      <point x="621" y="121" type="curve"/>
      <point x="610" y="120"/>
      <point x="576" y="120"/>
      <point x="533" y="121" type="curve"/>
      <point x="538" y="112"/>
      <point x="544" y="100"/>
      <point x="546" y="93" type="curve"/>
      <point x="596" y="93"/>
      <point x="626" y="93"/>
      <point x="642" y="98" type="curve"/>
      <point x="658" y="104"/>
      <point x="664" y="113"/>
    </contour>
  </outline>
</glyph>
<glyph name="ety004_cid02899_H" format="1">
  <advance width="1000"/>
  <outline>
    <contour>
      <point x="837" y="807" type="line"/>
      <point x="803" y="807" type="line"/>
      <point x="803" y="781" type="line"/>
      <point x="767" y="732"/>
      <point x="680" y="658"/>
      <point x="602" y="617" type="curve"/>
      <point x="623" y="598"/>
      <point x="658" y="559"/>
      <point x="675" y="534" type="curve"/>
      <point x="777" y="586"/>
      <point x="880" y="668"/>
      <point x="954" y="745" type="curve"/>
      <point x="865" y="814" type="line"/>
    </contour>
    <contour>
      <point x="712" y="209" type="curve"/>
      <point x="712" y="617" type="line"/>
      <point x="601" y="617" type="line"/>
      <point x="601" y="211" type="line"/>
      <point x="601" y="201"/>
      <point x="598" y="199"/>
      <point x="588" y="199" type="curve"/>
      <point x="578" y="198"/>
      <point x="548" y="198"/>
      <point x="521" y="199" type="curve"/>
      <point x="534" y="168"/>
      <point x="547" y="121"/>
      <point x="550" y="89" type="curve"/>
      <point x="604" y="89"/>
      <point x="644" y="92"/>
      <point x="674" y="110" type="curve"/>
      <point x="706" y="128"/>
      <point x="712" y="158"/>
    </contour>
  </outline>
</glyph>
<glyph name="ety005_cid02969_EL" format="1">
  <advance width="1000"/>
  <outline>
    <contour>
      <point x="504" y="-26" type="curve"/>
      <point x="504" y="251" type="line"/>
      <point x="475" y="251" type="line"/>
      <point x="475" y="-27" type="line"/>
      <point x="475" y="-37"/>
      <point x="472" y="-40"/>
      <point x="460" y="-40" type="curve"/>
      <point x="449" y="-41"/>
      <point x="412" y="-41"/>
      <point x="365" y="-40" type="curve"/>
      <point x="369" y="-48"/>
      <point x="375" y="-59"/>
      <point x="377" y="-65" type="curve"/>
      <point x="434" y="-65"/>
      <point x="466" y="-65"/>
      <point x="482" y="-61" type="curve"/>
      <point x="499" y="-56"/>
      <point x="504" y="-47"/>
    </contour>
    <contour>
      <point x="620" y="369" type="line"/>
      <point x="613" y="369" type="line"/>
      <point x="613" y="362" type="line"/>
      <point x="581" y="324"/>
      <point x="524" y="279"/>
      <point x="474" y="251" type="curve"/>
      <point x="480" y="247"/>
      <point x="488" y="239"/>
      <point x="494" y="233" type="curve"/>
      <point x="545" y="263"/>
      <point x="608" y="309"/>
      <point x="649" y="356" type="curve"/>
      <point x="626" y="371" type="line"/>
    </contour>
  </outline>
</glyph>
<glyph name="ety006_cid02969_H" format="1">
  <advance width="1000"/>
  <outline>
    <contour>
      <point x="547" y="22" type="curve"/>
      <point x="547" y="258" type="line"/>
      <point x="422" y="258" type="line"/>
      <point x="422" y="26" type="line"/>
      <point x="422" y="16"/>
      <point x="418" y="13"/>
      <point x="407" y="13" type="curve"/>
      <point x="397" y="12"/>
      <point x="360" y="13"/>
      <point x="332" y="14" type="curve"/>
      <point x="346" y="-17"/>
      <point x="360" y="-61"/>
      <point x="365" y="-94" type="curve"/>
      <point x="423" y="-94"/>
      <point x="467" y="-93"/>
      <point x="503" y="-77" type="curve"/>
      <point x="539" y="-60"/>
      <point x="547" y="-32"/>
    </contour>
    <contour>
      <point x="576" y="399" type="line"/>
      <point x="543" y="399" type="line"/>
      <point x="543" y="376" type="line"/>
      <point x="519" y="343"/>
      <point x="466" y="289"/>
      <point x="423" y="258" type="curve"/>
      <point x="439" y="243"/>
      <point x="469" y="211"/>
      <point x="482" y="191" type="curve"/>
      <point x="549" y="230"/>
      <point x="621" y="287"/>
      <point x="677" y="337" type="curve"/>
      <point x="603" y="406" type="line"/>
    </contour>
  </outline>
</glyph>
<glyph name="ety007_cid03136_EL" format="1">
  <advance width="1000"/>
  <outline>
    <contour>
      <point x="654" y="-16" type="curve"/>
      <point x="654" y="247" type="line"/>
      <point x="624" y="247" type="line"/>
      <point x="624" y="-16" type="line"/>
      <point x="624" y="-27"/>
      <point x="622" y="-31"/>
      <point x="608" y="-31" type="curve"/>
      <point x="594" y="-32"/>
      <point x="553" y="-33"/>
      <point x="494" y="-31" type="curve"/>
      <point x="499" y="-40"/>
      <point x="505" y="-51"/>
      <point x="507" y="-60" type="curve"/>
      <point x="572" y="-60"/>
      <point x="610" y="-60"/>
      <point x="629" y="-54" type="curve"/>
      <point x="649" y="-49"/>
      <point x="654" y="-39"/>
    </contour>
    <contour>
      <point x="800" y="353" type="line"/>
      <point x="793" y="353" type="line"/>
      <point x="793" y="346" type="line"/>
      <point x="755" y="311"/>
      <point x="685" y="271"/>
      <point x="624" y="248" type="curve"/>
      <point x="631" y="243"/>
      <point x="640" y="235"/>
      <point x="645" y="229" type="curve"/>
      <point x="707" y="254"/>
      <point x="780" y="295"/>
      <point x="828" y="340" type="curve"/>
      <point x="807" y="355" type="line"/>
    </contour>
  </outline>
</glyph>
<glyph name="ety008_cid03205_H" format="1">
  <advance width="1000"/>
  <outline>
    <contour>
      <point x="737" y="52" type="curve"/>
      <point x="737" y="325" type="line"/>
      <point x="610" y="325" type="line"/>
      <point x="610" y="57" type="line"/>
      <point x="610" y="44"/>
      <point x="605" y="41"/>
      <point x="591" y="41" type="curve"/>
      <point x="578" y="40"/>
      <point x="524" y="41"/>
      <point x="487" y="43" type="curve"/>
      <point x="503" y="6"/>
      <point x="522" y="-51"/>
      <point x="528" y="-91" type="curve"/>
      <point x="592" y="-91"/>
      <point x="644" y="-89"/>
      <point x="684" y="-69" type="curve"/>
      <point x="726" y="-49"/>
      <point x="737" y="-14"/>
    </contour>
    <contour>
      <point x="739" y="515" type="line"/>
      <point x="708" y="515" type="line"/>
      <point x="708" y="489" type="line"/>
      <point x="690" y="444"/>
      <point x="648" y="368"/>
      <point x="611" y="325" type="curve"/>
      <point x="628" y="307"/>
      <point x="660" y="269"/>
      <point x="674" y="245" type="curve"/>
      <point x="735" y="299"/>
      <point x="796" y="383"/>
      <point x="841" y="453" type="curve"/>
      <point x="765" y="522" type="line"/>
    </contour>
  </outline>
</glyph>
<glyph name="ety009_cid03246_EL" format="1">
  <advance width="1000"/>
  <outline>
    <contour>
      <point x="818" y="415" type="line"/>
      <point x="810" y="415" type="line"/>
      <point x="810" y="408" type="line"/>
      <point x="771" y="364"/>
      <point x="700" y="312"/>
      <point x="640" y="281" type="curve"/>
      <point x="647" y="277"/>
      <point x="656" y="269"/>
      <point x="662" y="262" type="curve"/>
      <point x="722" y="295"/>
      <point x="799" y="347"/>
      <point x="848" y="401" type="curve"/>
      <point x="824" y="417" type="line"/>
    </contour>
    <contour>
      <point x="669" y="-28" type="curve"/>
      <point x="669" y="281" type="line"/>
      <point x="639" y="281" type="line"/>
      <point x="639" y="-28" type="line"/>
      <point x="639" y="-40"/>
      <point x="636" y="-43"/>
      <point x="623" y="-44" type="curve"/>
      <point x="610" y="-45"/>
      <point x="570" y="-45"/>
      <point x="512" y="-44" type="curve"/>
      <point x="517" y="-53"/>
      <point x="523" y="-65"/>
      <point x="524" y="-73" type="curve"/>
      <point x="586" y="-73"/>
      <point x="624" y="-73"/>
      <point x="644" y="-67" type="curve"/>
      <point x="664" y="-62"/>
      <point x="669" y="-52"/>
    </contour>
  </outline>
</glyph>
<glyph name="ety010_cid03246_H" format="1">
  <advance width="1000"/>
  <outline>
    <contour>
      <point x="776" y="429" type="line"/>
      <point x="738" y="429" type="line"/>
      <point x="738" y="404" type="line"/>
      <point x="712" y="371"/>
      <point x="651" y="315"/>
      <point x="602" y="284" type="curve"/>
      <point x="619" y="267"/>
      <point x="654" y="230"/>
      <point x="669" y="207" type="curve"/>
      <point x="748" y="248"/>
      <point x="829" y="307"/>
      <point x="893" y="358" type="curve"/>
      <point x="808" y="436" type="line"/>
    </contour>
    <contour>
      <point x="747" y="40" type="curve"/>
      <point x="747" y="284" type="line"/>
      <point x="603" y="284" type="line"/>
      <point x="603" y="45" type="line"/>
      <point x="603" y="33"/>
      <point x="598" y="30"/>
      <point x="584" y="30" type="curve"/>
      <point x="570" y="30"/>
      <point x="516" y="30"/>
      <point x="479" y="32" type="curve"/>
      <point x="496" y="-4"/>
      <point x="514" y="-58"/>
      <point x="519" y="-97" type="curve"/>
      <point x="590" y="-97"/>
      <point x="646" y="-96"/>
      <point x="690" y="-77" type="curve"/>
      <point x="736" y="-57"/>
      <point x="747" y="-23"/>
    </contour>
  </outline>
</glyph>
<glyph name="ety011_cid03378_EL" format="1">
  <advance width="1000"/>
  <outline>
    <contour>
      <point x="730" y="-24" type="curve"/>
      <point x="730" y="222" type="line"/>
      <point x="701" y="222" type="line"/>
      <point x="701" y="-24" type="line"/>
      <point x="701" y="-36"/>
      <point x="698" y="-40"/>
      <point x="683" y="-41" type="curve"/>
      <point x="669" y="-42"/>
      <point x="624" y="-42"/>
      <point x="559" y="-40" type="curve"/>
      <point x="564" y="-50"/>
      <point x="570" y="-61"/>
      <point x="571" y="-69" type="curve"/>
      <point x="641" y="-69"/>
      <point x="683" y="-69"/>
      <point x="704" y="-64" type="curve"/>
      <point x="725" y="-58"/>
      <point x="730" y="-48"/>
    </contour>
    <contour>
      <point x="893" y="343" type="line"/>
      <point x="887" y="343" type="line"/>
      <point x="887" y="336" type="line"/>
      <point x="846" y="295"/>
      <point x="770" y="249"/>
      <point x="701" y="223" type="curve"/>
      <point x="708" y="218"/>
      <point x="716" y="210"/>
      <point x="721" y="203" type="curve"/>
      <point x="790" y="232"/>
      <point x="869" y="279"/>
      <point x="920" y="331" type="curve"/>
      <point x="900" y="345" type="line"/>
    </contour>
  </outline>
</glyph>
<glyph name="ety012_cid03378_EL" format="1">
  <advance width="1000"/>
  <outline>
    <contour>
      <point x="268" y="-21" type="curve"/>
      <point x="268" y="225" type="line"/>
      <point x="238" y="225" type="line"/>
      <point x="238" y="-21" type="line"/>
      <point x="238" y="-33"/>
      <point x="235" y="-37"/>
      <point x="221" y="-38" type="curve"/>
      <point x="206" y="-39"/>
      <point x="162" y="-39"/>
      <point x="96" y="-37" type="curve"/>
      <point x="101" y="-47"/>
      <point x="107" y="-58"/>
      <point x="108" y="-66" type="curve"/>
      <point x="179" y="-66"/>
      <point x="221" y="-66"/>
      <point x="241" y="-61" type="curve"/>
      <point x="263" y="-55"/>
      <point x="268" y="-45"/>
    </contour>
    <contour>
      <point x="430" y="346" type="line"/>
      <point x="425" y="346" type="line"/>
      <point x="425" y="339" type="line"/>
      <point x="383" y="298"/>
      <point x="307" y="252"/>
      <point x="238" y="226" type="curve"/>
      <point x="245" y="221"/>
      <point x="253" y="213"/>
      <point x="258" y="206" type="curve"/>
      <point x="328" y="235"/>
      <point x="407" y="282"/>
      <point x="458" y="334" type="curve"/>
      <point x="437" y="348" type="line"/>
    </contour>
  </outline>
</glyph>
<glyph name="ety013_cid03379_H" format="1">
  <advance width="1000"/>
  <outline>
    <contour>
      <point x="341" y="13" type="curve"/>
      <point x="341" y="163" type="line"/>
      <point x="203" y="163" type="line"/>
      <point x="203" y="19" type="line"/>
      <point x="203" y="8"/>
      <point x="198" y="5"/>
      <point x="186" y="4" type="curve"/>
      <point x="174" y="4"/>
      <point x="125" y="4"/>
      <point x="93" y="6" type="curve"/>
      <point x="106" y="-23"/>
      <point x="119" y="-60"/>
      <point x="123" y="-92" type="curve"/>
      <point x="192" y="-92"/>
      <point x="247" y="-92"/>
      <point x="287" y="-79" type="curve"/>
      <point x="329" y="-67"/>
      <point x="341" y="-42"/>
    </contour>
    <contour>
      <point x="372" y="287" type="line"/>
      <point x="345" y="287" type="line"/>
      <point x="345" y="268" type="line"/>
      <point x="316" y="236"/>
      <point x="254" y="190"/>
      <point x="204" y="163" type="curve"/>
      <point x="218" y="149"/>
      <point x="245" y="121"/>
      <point x="257" y="103" type="curve"/>
      <point x="325" y="137"/>
      <point x="402" y="188"/>
      <point x="460" y="237" type="curve"/>
      <point x="395" y="293" type="line"/>
    </contour>
  </outline>
</glyph>
<glyph name="ety014_cid03379_H" format="1">
  <advance width="1000"/>
  <outline>
    <contour>
      <point x="799" y="18" type="curve"/>
      <point x="799" y="168" type="line"/>
      <point x="661" y="168" type="line"/>
      <point x="661" y="25" type="line"/>
      <point x="661" y="13"/>
      <point x="656" y="10"/>
      <point x="642" y="10" type="curve"/>
      <point x="630" y="9"/>
      <point x="575" y="9"/>
      <point x="540" y="11" type="curve"/>
      <point x="553" y="-17"/>
      <point x="566" y="-55"/>
      <point x="571" y="-87" type="curve"/>
      <point x="643" y="-87"/>
      <point x="701" y="-87"/>
      <point x="743" y="-75" type="curve"/>
      <point x="785" y="-62"/>
      <point x="799" y="-38"/>
    </contour>
    <contour>
      <point x="830" y="292" type="line"/>
      <point x="803" y="292" type="line"/>
      <point x="803" y="273" type="line"/>
      <point x="774" y="241"/>
      <point x="712" y="195"/>
      <point x="662" y="168" type="curve"/>
      <point x="676" y="154"/>
      <point x="703" y="126"/>
      <point x="715" y="108" type="curve"/>
      <point x="783" y="142"/>
      <point x="860" y="193"/>
      <point x="918" y="242" type="curve"/>
      <point x="853" y="298" type="line"/>
    </contour>
  </outline>
</glyph>
<glyph name="ety015_cid03382_EL" format="1">
  <advance width="1000"/>
  <outline>
    <contour>
      <point x="516" y="-24" type="curve"/>
      <point x="516" y="341" type="line"/>
      <point x="486" y="341" type="line"/>
      <point x="486" y="-24" type="line"/>
      <point x="486" y="-38"/>
      <point x="481" y="-43"/>
      <point x="466" y="-44" type="curve"/>
      <point x="449" y="-45"/>
      <point x="395" y="-45"/>
      <point x="321" y="-44" type="curve"/>
      <point x="327" y="-52"/>
      <point x="332" y="-63"/>
      <point x="335" y="-71" type="curve"/>
      <point x="421" y="-71"/>
      <point x="463" y="-71"/>
      <point x="485" y="-65" type="curve"/>
      <point x="508" y="-60"/>
      <point x="516" y="-49"/>
    </contour>
    <contour>
      <point x="744" y="523" type="line"/>
      <point x="737" y="523" type="line"/>
      <point x="737" y="517" type="line"/>
      <point x="680" y="456"/>
      <point x="574" y="383"/>
      <point x="486" y="342" type="curve"/>
      <point x="493" y="337"/>
      <point x="501" y="329"/>
      <point x="506" y="324" type="curve"/>
      <point x="594" y="367"/>
      <point x="704" y="439"/>
      <point x="772" y="511" type="curve"/>
      <point x="751" y="525" type="line"/>
    </contour>
  </outline>
</glyph>
<glyph name="ety016_cid03382_H" format="1">
  <advance width="1000"/>
  <outline>
    <contour>
      <point x="575" y="63" type="curve"/>
      <point x="575" y="335" type="line"/>
      <point x="420" y="335" type="line"/>
      <point x="420" y="68" type="line"/>
      <point x="420" y="55"/>
      <point x="414" y="51"/>
      <point x="393" y="51" type="curve"/>
      <point x="372" y="51"/>
      <point x="290" y="51"/>
      <point x="233" y="54" type="curve"/>
      <point x="256" y="15"/>
      <point x="285" y="-51"/>
      <point x="294" y="-94" type="curve"/>
      <point x="376" y="-94"/>
      <point x="446" y="-92"/>
      <point x="502" y="-71" type="curve"/>
      <point x="558" y="-49"/>
      <point x="575" y="-10"/>
    </contour>
    <contour>
      <point x="657" y="533" type="line"/>
      <point x="618" y="533" type="line"/>
      <point x="618" y="505" type="line"/>
      <point x="583" y="455"/>
      <point x="500" y="377"/>
      <point x="420" y="334" type="curve"/>
      <point x="440" y="316"/>
      <point x="477" y="277"/>
      <point x="494" y="254" type="curve"/>
      <point x="608" y="305"/>
      <point x="709" y="389"/>
      <point x="784" y="467" type="curve"/>
      <point x="690" y="540" type="line"/>
    </contour>
  </outline>
</glyph>
<glyph name="ety017_cid03501_EL" format="1">
  <advance width="1000"/>
  <outline>
    <contour>
      <point x="762" y="778" type="line"/>
      <point x="755" y="778" type="line"/>
      <point x="755" y="771" type="line"/>
      <point x="697" y="721"/>
      <point x="589" y="668"/>
      <point x="497" y="637" type="curve"/>
      <point x="503" y="632"/>
      <point x="512" y="623"/>
      <point x="517" y="618" type="curve"/>
      <point x="610" y="650"/>
      <point x="721" y="705"/>
      <point x="791" y="765" type="curve"/>
      <point x="769" y="780" type="line"/>
    </contour>
    <contour>
      <point x="525" y="333" type="curve"/>
      <point x="525" y="637" type="line"/>
      <point x="496" y="637" type="line"/>
      <point x="496" y="333" type="line"/>
      <point x="496" y="321"/>
      <point x="493" y="317"/>
      <point x="477" y="316" type="curve"/>
      <point x="461" y="315"/>
      <point x="414" y="315"/>
      <point x="344" y="317" type="curve"/>
      <point x="349" y="307"/>
      <point x="355" y="296"/>
      <point x="357" y="287" type="curve"/>
      <point x="431" y="287"/>
      <point x="476" y="286"/>
      <point x="497" y="292" type="curve"/>
      <point x="520" y="298"/>
      <point x="525" y="309"/>
    </contour>
  </outline>
</glyph>
<glyph name="ety018_cid03501_H" format="1">
  <advance width="1000"/>
  <outline>
    <contour>
      <point x="713" y="819" type="line"/>
      <point x="676" y="819" type="line"/>
      <point x="676" y="792" type="line"/>
      <point x="633" y="747"/>
      <point x="530" y="676"/>
      <point x="445" y="637" type="curve"/>
      <point x="464" y="617"/>
      <point x="501" y="578"/>
      <point x="517" y="554" type="curve"/>
      <point x="628" y="603"/>
      <point x="744" y="679"/>
      <point x="835" y="747" type="curve"/>
      <point x="743" y="826" type="line"/>
    </contour>
    <contour>
      <point x="588" y="401" type="curve"/>
      <point x="588" y="637" type="line"/>
      <point x="444" y="637" type="line"/>
      <point x="444" y="406" type="line"/>
      <point x="444" y="395"/>
      <point x="440" y="392"/>
      <point x="427" y="392" type="curve"/>
      <point x="415" y="392"/>
      <point x="370" y="392"/>
      <point x="339" y="393" type="curve"/>
      <point x="355" y="360"/>
      <point x="371" y="312"/>
      <point x="377" y="276" type="curve"/>
      <point x="442" y="276"/>
      <point x="494" y="277"/>
      <point x="535" y="294" type="curve"/>
      <point x="577" y="311"/>
      <point x="588" y="341"/>
    </contour>
  </outline>
</glyph>
<glyph name="ety019_cid03524_EL" format="1">
  <advance width="1000"/>
  <outline>
    <contour>
      <point x="830" y="415" type="line"/>
      <point x="823" y="415" type="line"/>
      <point x="823" y="408" type="line"/>
      <point x="787" y="364"/>
      <point x="720" y="312"/>
      <point x="663" y="281" type="curve"/>
      <point x="670" y="277"/>
      <point x="677" y="269"/>
      <point x="682" y="262" type="curve"/>
      <point x="741" y="295"/>
      <point x="813" y="347"/>
      <point x="860" y="401" type="curve"/>
      <point x="837" y="417" type="line"/>
    </contour>
    <contour>
      <point x="689" y="-28" type="curve"/>
      <point x="689" y="281" type="line"/>
      <point x="661" y="281" type="line"/>
      <point x="661" y="-28" type="line"/>
      <point x="661" y="-40"/>
      <point x="659" y="-43"/>
      <point x="646" y="-44" type="curve"/>
      <point x="632" y="-45"/>
      <point x="595" y="-45"/>
      <point x="539" y="-44" type="curve"/>
      <point x="544" y="-53"/>
      <point x="550" y="-65"/>
      <point x="552" y="-73" type="curve"/>
      <point x="611" y="-73"/>
      <point x="647" y="-73"/>
      <point x="666" y="-67" type="curve"/>
      <point x="683" y="-62"/>
      <point x="689" y="-52"/>
    </contour>
  </outline>
</glyph>
<glyph name="ety020_cid03898_H" format="1">
  <advance width="1000"/>
  <outline>
    <contour>
      <point x="343" y="356" type="curve"/>
      <point x="343" y="660" type="line"/>
      <point x="202" y="660" type="line"/>
      <point x="202" y="359" type="line"/>
      <point x="202" y="349"/>
      <point x="198" y="347"/>
      <point x="187" y="347" type="curve"/>
      <point x="175" y="347"/>
      <point x="137" y="347"/>
      <point x="107" y="348" type="curve"/>
      <point x="124" y="315"/>
      <point x="143" y="264"/>
      <point x="148" y="229" type="curve"/>
      <point x="209" y="229"/>
      <point x="256" y="231"/>
      <point x="295" y="250" type="curve"/>
      <point x="334" y="269"/>
      <point x="343" y="301"/>
    </contour>
    <contour>
      <point x="390" y="815" type="line"/>
      <point x="357" y="815" type="line"/>
      <point x="357" y="792" type="line"/>
      <point x="329" y="755"/>
      <point x="260" y="695"/>
      <point x="201" y="661" type="curve"/>
      <point x="223" y="643"/>
      <point x="260" y="607"/>
      <point x="277" y="584" type="curve"/>
      <point x="357" y="628"/>
      <point x="444" y="698"/>
      <point x="506" y="761" type="curve"/>
      <point x="418" y="822" type="line"/>
    </contour>
  </outline>
</glyph>
<glyph name="ety021_cid04102_H" format="1">
  <advance width="1000"/>
  <outline>
    <contour>
      <point x="746" y="52" type="curve"/>
      <point x="746" y="200" type="line"/>
      <point x="605" y="200" type="line"/>
      <point x="605" y="57" type="line"/>
      <point x="605" y="45"/>
      <point x="599" y="42"/>
      <point x="582" y="41" type="curve"/>
      <point x="565" y="41"/>
      <point x="492" y="41"/>
      <point x="444" y="44" type="curve"/>
      <point x="462" y="9"/>
      <point x="481" y="-43"/>
      <point x="488" y="-80" type="curve"/>
      <point x="568" y="-80"/>
      <point x="632" y="-80"/>
      <point x="681" y="-63" type="curve"/>
      <point x="732" y="-45"/>
      <point x="746" y="-12"/>
    </contour>
    <contour>
      <point x="810" y="370" type="line"/>
      <point x="773" y="370" type="line"/>
      <point x="773" y="344" type="line"/>
      <point x="742" y="303"/>
      <point x="669" y="237"/>
      <point x="606" y="200" type="curve"/>
      <point x="624" y="183"/>
      <point x="658" y="146"/>
      <point x="674" y="124" type="curve"/>
      <point x="767" y="170"/>
      <point x="857" y="240"/>
      <point x="928" y="302" type="curve"/>
      <point x="842" y="377" type="line"/>
    </contour>
  </outline>
</glyph>
<glyph name="ety022_cid04115_EL" format="1">
  <advance width="1000"/>
  <outline>
    <contour>
      <point x="838" y="351" type="line"/>
      <point x="830" y="351" type="line"/>
      <point x="830" y="344" type="line"/>
      <point x="782" y="306"/>
      <point x="696" y="266"/>
      <point x="623" y="242" type="curve"/>
      <point x="630" y="237"/>
      <point x="639" y="229"/>
      <point x="644" y="223" type="curve"/>
      <point x="718" y="247"/>
      <point x="810" y="289"/>
      <point x="868" y="337" type="curve"/>
      <point x="845" y="353" type="line"/>
    </contour>
    <contour>
      <point x="653" y="-19" type="curve"/>
      <point x="653" y="241" type="line"/>
      <point x="623" y="241" type="line"/>
      <point x="623" y="-19" type="line"/>
      <point x="623" y="-32"/>
      <point x="620" y="-36"/>
      <point x="604" y="-37" type="curve"/>
      <point x="587" y="-39"/>
      <point x="536" y="-39"/>
      <point x="463" y="-37" type="curve"/>
      <point x="469" y="-46"/>
      <point x="474" y="-57"/>
      <point x="476" y="-65" type="curve"/>
      <point x="557" y="-65"/>
      <point x="603" y="-65"/>
      <point x="624" y="-60" type="curve"/>
      <point x="647" y="-54"/>
      <point x="653" y="-44"/>
    </contour>
  </outline>
</glyph>
<glyph name="ety023_cid04228_EL" format="1">
  <advance width="1000"/>
  <outline>
    <contour>
      <point x="657" y="-16" type="curve"/>
      <point x="657" y="247" type="line"/>
      <point x="627" y="247" type="line"/>
      <point x="627" y="-16" type="line"/>
      <point x="627" y="-27"/>
      <point x="624" y="-31"/>
      <point x="611" y="-31" type="curve"/>
      <point x="597" y="-32"/>
      <point x="556" y="-33"/>
      <point x="497" y="-31" type="curve"/>
      <point x="502" y="-40"/>
      <point x="508" y="-51"/>
      <point x="510" y="-60" type="curve"/>
      <point x="574" y="-60"/>
      <point x="613" y="-60"/>
      <point x="632" y="-54" type="curve"/>
      <point x="652" y="-49"/>
      <point x="657" y="-39"/>
    </contour>
    <contour>
      <point x="803" y="353" type="line"/>
      <point x="796" y="353" type="line"/>
      <point x="796" y="346" type="line"/>
      <point x="758" y="311"/>
      <point x="688" y="271"/>
      <point x="627" y="248" type="curve"/>
      <point x="634" y="243"/>
      <point x="643" y="235"/>
      <point x="648" y="229" type="curve"/>
      <point x="710" y="254"/>
      <point x="783" y="295"/>
      <point x="831" y="340" type="curve"/>
      <point x="810" y="355" type="line"/>
    </contour>
  </outline>
</glyph>
<glyph name="ety024_cid04262_EL" format="1">
  <advance width="1000"/>
  <outline>
    <contour>
      <point x="320" y="-16" type="curve"/>
      <point x="320" y="310" type="line"/>
      <point x="290" y="310" type="line"/>
      <point x="290" y="-16" type="line"/>
      <point x="290" y="-28"/>
      <point x="287" y="-31"/>
      <point x="274" y="-32" type="curve"/>
      <point x="259" y="-33"/>
      <point x="218" y="-34"/>
      <point x="156" y="-32" type="curve"/>
      <point x="162" y="-42"/>
      <point x="168" y="-53"/>
      <point x="170" y="-62" type="curve"/>
      <point x="235" y="-62"/>
      <point x="274" y="-62"/>
      <point x="293" y="-56" type="curve"/>
      <point x="314" y="-50"/>
      <point x="320" y="-40"/>
    </contour>
    <contour>
      <point x="449" y="428" type="line"/>
      <point x="442" y="428" type="line"/>
      <point x="442" y="422" type="line"/>
      <point x="406" y="383"/>
      <point x="342" y="338"/>
      <point x="290" y="311" type="curve"/>
      <point x="297" y="307"/>
      <point x="305" y="300"/>
      <point x="310" y="294" type="curve"/>
      <point x="364" y="323"/>
      <point x="433" y="369"/>
      <point x="478" y="416" type="curve"/>
      <point x="456" y="430" type="line"/>
    </contour>
  </outline>
</glyph>
<glyph name="ety026_cid04383_H" format="1">
  <advance width="1000"/>
  <outline>
    <contour>
      <point x="848" y="363" type="line"/>
      <point x="814" y="363" type="line"/>
      <point x="814" y="339" type="line"/>
      <point x="774" y="307"/>
      <point x="681" y="260"/>
      <point x="606" y="234" type="curve"/>
      <point x="623" y="217"/>
      <point x="656" y="180"/>
      <point x="670" y="158" type="curve"/>
      <point x="770" y="193"/>
      <point x="876" y="245"/>
      <point x="958" y="297" type="curve"/>
      <point x="876" y="370" type="line"/>
    </contour>
    <contour>
      <point x="748" y="34" type="curve"/>
      <point x="748" y="234" type="line"/>
      <point x="605" y="234" type="line"/>
      <point x="605" y="39" type="line"/>
      <point x="605" y="27"/>
      <point x="600" y="24"/>
      <point x="585" y="23" type="curve"/>
      <point x="570" y="23"/>
      <point x="512" y="23"/>
      <point x="472" y="25" type="curve"/>
      <point x="489" y="-9"/>
      <point x="507" y="-58"/>
      <point x="513" y="-95" type="curve"/>
      <point x="586" y="-96"/>
      <point x="644" y="-95"/>
      <point x="689" y="-78" type="curve"/>
      <point x="736" y="-60"/>
      <point x="748" y="-28"/>
    </contour>
  </outline>
</glyph>
<glyph name="ety028_cid04401_H" format="1">
  <advance width="1000"/>
  <outline>
    <contour>
      <point x="552" y="22" type="curve"/>
      <point x="552" y="258" type="line"/>
      <point x="428" y="258" type="line"/>
      <point x="428" y="26" type="line"/>
      <point x="428" y="16"/>
      <point x="424" y="13"/>
      <point x="414" y="13" type="curve"/>
      <point x="403" y="12"/>
      <point x="367" y="13"/>
      <point x="338" y="14" type="curve"/>
      <point x="352" y="-17"/>
      <point x="367" y="-61"/>
      <point x="371" y="-94" type="curve"/>
      <point x="429" y="-94"/>
      <point x="473" y="-93"/>
      <point x="508" y="-77" type="curve"/>
      <point x="544" y="-60"/>
      <point x="552" y="-32"/>
    </contour>
    <contour>
      <point x="579" y="399" type="line"/>
      <point x="546" y="399" type="line"/>
      <point x="546" y="376" type="line"/>
      <point x="522" y="343"/>
      <point x="470" y="289"/>
      <point x="427" y="258" type="curve"/>
      <point x="442" y="243"/>
      <point x="472" y="211"/>
      <point x="485" y="191" type="curve"/>
      <point x="552" y="230"/>
      <point x="623" y="287"/>
      <point x="680" y="337" type="curve"/>
      <point x="606" y="406" type="line"/>
    </contour>
  </outline>
</glyph>
<glyph name="ety031_cid04813_H" format="1">
  <advance width="1000"/>
  <outline>
    <contour>
      <point x="358" y="49" type="curve"/>
      <point x="358" y="302" type="line"/>
      <point x="229" y="302" type="line"/>
      <point x="229" y="53" type="line"/>
      <point x="229" y="42"/>
      <point x="225" y="39"/>
      <point x="214" y="39" type="curve"/>
      <point x="203" y="39"/>
      <point x="163" y="39"/>
      <point x="133" y="41" type="curve"/>
      <point x="149" y="4"/>
      <point x="167" y="-53"/>
      <point x="172" y="-92" type="curve"/>
      <point x="229" y="-93"/>
      <point x="274" y="-91"/>
      <point x="311" y="-70" type="curve"/>
      <point x="349" y="-49"/>
      <point x="358" y="-13"/>
    </contour>
    <contour>
      <point x="401" y="493" type="line"/>
      <point x="369" y="493" type="line"/>
      <point x="369" y="466" type="line"/>
      <point x="344" y="421"/>
      <point x="282" y="345"/>
      <point x="229" y="303" type="curve"/>
      <point x="248" y="284"/>
      <point x="282" y="244"/>
      <point x="298" y="219" type="curve"/>
      <point x="371" y="273"/>
      <point x="450" y="357"/>
      <point x="508" y="428" type="curve"/>
      <point x="427" y="501" type="line"/>
    </contour>
  </outline>
</glyph>
<glyph name="ety033_cid04932_EL" format="1">
  <advance width="1000"/>
  <outline>
    <contour>
      <point x="612" y="-16" type="curve"/>
      <point x="612" y="597" type="line"/>
      <point x="582" y="597" type="line"/>
      <point x="582" y="-16" type="line"/>
      <point x="582" y="-30"/>
      <point x="578" y="-33"/>
      <point x="565" y="-34" type="curve"/>
      <point x="551" y="-35"/>
      <point x="506" y="-35"/>
      <point x="449" y="-34" type="curve"/>
      <point x="454" y="-44"/>
      <point x="460" y="-57"/>
      <point x="462" y="-65" type="curve"/>
      <point x="525" y="-65"/>
      <point x="565" y="-65"/>
      <point x="584" y="-60" type="curve"/>
      <point x="604" y="-54"/>
      <point x="612" y="-43"/>
    </contour>
    <contour>
      <point x="783" y="771" type="line"/>
      <point x="776" y="771" type="line"/>
      <point x="776" y="765" type="line"/>
      <point x="733" y="707"/>
      <point x="653" y="638"/>
      <point x="582" y="598" type="curve"/>
      <point x="589" y="593"/>
      <point x="598" y="585"/>
      <point x="603" y="578" type="curve"/>
      <point x="674" y="621"/>
      <point x="759" y="691"/>
      <point x="812" y="759" type="curve"/>
      <point x="790" y="773" type="line"/>
    </contour>
  </outline>
</glyph>
<glyph name="ety034_cid04932_H" format="1">
  <advance width="1000"/>
  <outline>
    <contour>
      <point x="668" y="46" type="curve"/>
      <point x="668" y="629" type="line"/>
      <point x="546" y="629" type="line"/>
      <point x="546" y="48" type="line"/>
      <point x="546" y="33"/>
      <point x="541" y="29"/>
      <point x="525" y="29" type="curve"/>
      <point x="510" y="29"/>
      <point x="460" y="28"/>
      <point x="415" y="30" type="curve"/>
      <point x="431" y="-1"/>
      <point x="450" y="-51"/>
      <point x="455" y="-84" type="curve"/>
      <point x="528" y="-84"/>
      <point x="581" y="-81"/>
      <point x="619" y="-63" type="curve"/>
      <point x="657" y="-44"/>
      <point x="668" y="-14"/>
    </contour>
    <contour>
      <point x="776" y="815" type="line"/>
      <point x="744" y="815" type="line"/>
      <point x="744" y="791" type="line"/>
      <point x="709" y="741"/>
      <point x="625" y="669"/>
      <point x="546" y="630" type="curve"/>
      <point x="566" y="611"/>
      <point x="600" y="575"/>
      <point x="616" y="551" type="curve"/>
      <point x="719" y="601"/>
      <point x="818" y="681"/>
      <point x="887" y="759" type="curve"/>
      <point x="803" y="821" type="line"/>
    </contour>
  </outline>
</glyph>
<glyph name="ety035_cid04952_EL" format="1">
  <advance width="1000"/>
  <outline>
    <contour>
      <point x="686" y="-17" type="curve"/>
      <point x="686" y="212" type="line"/>
      <point x="657" y="212" type="line"/>
      <point x="657" y="-18" type="line"/>
      <point x="657" y="-28"/>
      <point x="654" y="-32"/>
      <point x="641" y="-33" type="curve"/>
      <point x="626" y="-34"/>
      <point x="586" y="-34"/>
      <point x="526" y="-32" type="curve"/>
      <point x="531" y="-42"/>
      <point x="537" y="-52"/>
      <point x="539" y="-61" type="curve"/>
      <point x="604" y="-61"/>
      <point x="642" y="-61"/>
      <point x="662" y="-56" type="curve"/>
      <point x="681" y="-50"/>
      <point x="686" y="-40"/>
    </contour>
    <contour>
      <point x="841" y="318" type="line"/>
      <point x="834" y="318" type="line"/>
      <point x="834" y="311" type="line"/>
      <point x="794" y="275"/>
      <point x="721" y="236"/>
      <point x="657" y="213" type="curve"/>
      <point x="664" y="208"/>
      <point x="672" y="200"/>
      <point x="676" y="194" type="curve"/>
      <point x="742" y="219"/>
      <point x="819" y="260"/>
      <point x="869" y="305" type="curve"/>
      <point x="848" y="320" type="line"/>
    </contour>
  </outline>
</glyph>
<glyph name="ety036_cid04952_H" format="1">
  <advance width="1000"/>
  <outline>
    <contour>
      <point x="778" y="32" type="curve"/>
      <point x="778" y="194" type="line"/>
      <point x="649" y="194" type="line"/>
      <point x="649" y="36" type="line"/>
      <point x="649" y="25"/>
      <point x="645" y="23"/>
      <point x="632" y="22" type="curve"/>
      <point x="620" y="22"/>
      <point x="572" y="22"/>
      <point x="537" y="24" type="curve"/>
      <point x="552" y="-7"/>
      <point x="570" y="-52"/>
      <point x="576" y="-86" type="curve"/>
      <point x="640" y="-86"/>
      <point x="689" y="-86"/>
      <point x="728" y="-69" type="curve"/>
      <point x="768" y="-53"/>
      <point x="778" y="-24"/>
    </contour>
    <contour>
      <point x="823" y="343" type="line"/>
      <point x="789" y="343" type="line"/>
      <point x="789" y="320" type="line"/>
      <point x="762" y="284"/>
      <point x="700" y="227"/>
      <point x="650" y="194" type="curve"/>
      <point x="666" y="178"/>
      <point x="697" y="145"/>
      <point x="711" y="125" type="curve"/>
      <point x="786" y="166"/>
      <point x="866" y="227"/>
      <point x="929" y="279" type="curve"/>
      <point x="851" y="350" type="line"/>
    </contour>
  </outline>
</glyph>
<glyph name="ety037_cid04953_EL" format="1">
  <advance width="1000"/>
  <outline>
    <contour>
      <point x="769" y="769" type="line"/>
      <point x="762" y="769" type="line"/>
      <point x="762" y="763" type="line"/>
      <point x="716" y="709"/>
      <point x="630" y="645"/>
      <point x="558" y="608" type="curve"/>
      <point x="565" y="603"/>
      <point x="573" y="595"/>
      <point x="577" y="589" type="curve"/>
      <point x="651" y="628"/>
      <point x="740" y="693"/>
      <point x="796" y="758" type="curve"/>
      <point x="774" y="771" type="line"/>
    </contour>
    <contour>
      <point x="586" y="113" type="curve"/>
      <point x="586" y="608" type="line"/>
      <point x="557" y="608" type="line"/>
      <point x="557" y="112" type="line"/>
      <point x="557" y="100"/>
      <point x="554" y="96"/>
      <point x="541" y="96" type="curve"/>
      <point x="526" y="95"/>
      <point x="484" y="94"/>
      <point x="429" y="96" type="curve"/>
      <point x="434" y="86"/>
      <point x="440" y="74"/>
      <point x="442" y="65" type="curve"/>
      <point x="502" y="65"/>
      <point x="541" y="65"/>
      <point x="561" y="71" type="curve"/>
      <point x="579" y="77"/>
      <point x="586" y="87"/>
    </contour>
  </outline>
</glyph>
<glyph name="ety038_cid04953_H" format="1">
  <advance width="1000"/>
  <outline>
    <contour>
      <point x="732" y="810" type="line"/>
      <point x="700" y="810" type="line"/>
      <point x="700" y="786" type="line"/>
      <point x="669" y="740"/>
      <point x="596" y="674"/>
      <point x="528" y="637" type="curve"/>
      <point x="548" y="618"/>
      <point x="582" y="582"/>
      <point x="597" y="559" type="curve"/>
      <point x="689" y="606"/>
      <point x="779" y="682"/>
      <point x="842" y="755" type="curve"/>
      <point x="759" y="816" type="line"/>
    </contour>
    <contour>
      <point x="638" y="194" type="curve"/>
      <point x="638" y="635" type="line"/>
      <point x="526" y="635" type="line"/>
      <point x="526" y="196" type="line"/>
      <point x="526" y="185"/>
      <point x="523" y="182"/>
      <point x="511" y="182" type="curve"/>
      <point x="501" y="182"/>
      <point x="465" y="182"/>
      <point x="435" y="183" type="curve"/>
      <point x="447" y="153"/>
      <point x="458" y="111"/>
      <point x="461" y="82" type="curve"/>
      <point x="521" y="82"/>
      <point x="565" y="83"/>
      <point x="597" y="99" type="curve"/>
      <point x="630" y="115"/>
      <point x="638" y="142"/>
    </contour>
  </outline>
</glyph>
<glyph name="ety039_cid05040_H" format="1">
  <advance width="1000"/>
  <outline>
    <contour>
      <point x="819" y="335" type="curve"/>
      <point x="819" y="459" type="line"/>
      <point x="722" y="459" type="line"/>
      <point x="722" y="339" type="line"/>
      <point x="722" y="330"/>
      <point x="719" y="328"/>
      <point x="711" y="328" type="curve"/>
      <point x="704" y="328"/>
      <point x="676" y="328"/>
      <point x="656" y="329" type="curve"/>
      <point x="666" y="308"/>
      <point x="680" y="276"/>
      <point x="686" y="251" type="curve"/>
      <point x="728" y="251"/>
      <point x="759" y="251"/>
      <point x="785" y="263" type="curve"/>
      <point x="812" y="275"/>
      <point x="819" y="292"/>
    </contour>
    <contour>
      <point x="862" y="552" type="line"/>
      <point x="838" y="552" type="line"/>
      <point x="838" y="535" type="line"/>
      <point x="814" y="511"/>
      <point x="763" y="479"/>
      <point x="723" y="460" type="curve"/>
      <point x="734" y="447"/>
      <point x="756" y="419"/>
      <point x="766" y="403" type="curve"/>
      <point x="823" y="428"/>
      <point x="886" y="464"/>
      <point x="936" y="501" type="curve"/>
      <point x="881" y="557" type="line"/>
    </contour>
  </outline>
</glyph>
<glyph name="ety040_cid05040_H" format="1">
  <advance width="1000"/>
  <outline>
    <contour>
      <point x="462" y="335" type="curve"/>
      <point x="462" y="459" type="line"/>
      <point x="362" y="459" type="line"/>
      <point x="362" y="339" type="line"/>
      <point x="362" y="330"/>
      <point x="359" y="328"/>
      <point x="351" y="328" type="curve"/>
      <point x="343" y="328"/>
      <point x="316" y="328"/>
      <point x="296" y="329" type="curve"/>
      <point x="306" y="307"/>
      <point x="320" y="275"/>
      <point x="326" y="249" type="curve"/>
      <point x="369" y="248"/>
      <point x="401" y="249"/>
      <point x="428" y="261" type="curve"/>
      <point x="455" y="273"/>
      <point x="462" y="291"/>
    </contour>
    <contour>
      <point x="493" y="552" type="line"/>
      <point x="470" y="552" type="line"/>
      <point x="470" y="535" type="line"/>
      <point x="448" y="511"/>
      <point x="400" y="479"/>
      <point x="362" y="460" type="curve"/>
      <point x="374" y="446"/>
      <point x="396" y="418"/>
      <point x="406" y="401" type="curve"/>
      <point x="461" y="427"/>
      <point x="521" y="465"/>
      <point x="568" y="502" type="curve"/>
      <point x="513" y="557" type="line"/>
    </contour>
  </outline>
</glyph>
<glyph name="ety041_cid05067_H" format="1">
  <advance width="1000"/>
  <outline>
    <contour>
      <point x="705" y="36" type="curve"/>
      <point x="705" y="215" type="line"/>
      <point x="576" y="215" type="line"/>
      <point x="576" y="41" type="line"/>
      <point x="576" y="29"/>
      <point x="571" y="26"/>
      <point x="557" y="26" type="curve"/>
      <point x="543" y="26"/>
      <point x="489" y="26"/>
      <point x="449" y="28" type="curve"/>
      <point x="465" y="-3"/>
      <point x="483" y="-49"/>
      <point x="489" y="-83" type="curve"/>
      <point x="558" y="-83"/>
      <point x="610" y="-82"/>
      <point x="652" y="-66" type="curve"/>
      <point x="694" y="-49"/>
      <point x="705" y="-20"/>
    </contour>
    <contour>
      <point x="767" y="364" type="line"/>
      <point x="733" y="364" type="line"/>
      <point x="733" y="340" type="line"/>
      <point x="702" y="305"/>
      <point x="633" y="247"/>
      <point x="577" y="215" type="curve"/>
      <point x="593" y="199"/>
      <point x="624" y="166"/>
      <point x="638" y="145" type="curve"/>
      <point x="720" y="186"/>
      <point x="805" y="246"/>
      <point x="874" y="299" type="curve"/>
      <point x="795" y="371" type="line"/>
    </contour>
  </outline>
</glyph>
<glyph name="ety042_cid05130_EL" format="1">
  <advance width="1000"/>
  <outline>
    <contour>
      <point x="828" y="415" type="line"/>
      <point x="820" y="415" type="line"/>
      <point x="820" y="408" type="line"/>
      <point x="782" y="364"/>
      <point x="711" y="312"/>
      <point x="651" y="281" type="curve"/>
      <point x="658" y="277"/>
      <point x="667" y="269"/>
      <point x="672" y="262" type="curve"/>
      <point x="733" y="295"/>
      <point x="810" y="347"/>
      <point x="859" y="401" type="curve"/>
      <point x="835" y="417" type="line"/>
    </contour>
    <contour>
      <point x="679" y="-28" type="curve"/>
      <point x="679" y="281" type="line"/>
      <point x="650" y="281" type="line"/>
      <point x="650" y="-28" type="line"/>
      <point x="650" y="-40"/>
      <point x="647" y="-43"/>
      <point x="634" y="-44" type="curve"/>
      <point x="621" y="-45"/>
      <point x="580" y="-45"/>
      <point x="523" y="-44" type="curve"/>
      <point x="527" y="-53"/>
      <point x="533" y="-65"/>
      <point x="534" y="-73" type="curve"/>
      <point x="597" y="-73"/>
      <point x="635" y="-73"/>
      <point x="655" y="-67" type="curve"/>
      <point x="674" y="-62"/>
      <point x="679" y="-52"/>
    </contour>
  </outline>
</glyph>
<glyph name="ety043_cid05130_H" format="1">
  <advance width="1000"/>
  <outline>
    <contour>
      <point x="770" y="429" type="line"/>
      <point x="730" y="429" type="line"/>
      <point x="730" y="404" type="line"/>
      <point x="703" y="371"/>
      <point x="640" y="315"/>
      <point x="588" y="284" type="curve"/>
      <point x="606" y="267"/>
      <point x="642" y="230"/>
      <point x="658" y="207" type="curve"/>
      <point x="741" y="248"/>
      <point x="824" y="307"/>
      <point x="892" y="358" type="curve"/>
      <point x="803" y="436" type="line"/>
    </contour>
    <contour>
      <point x="739" y="40" type="curve"/>
      <point x="739" y="284" type="line"/>
      <point x="589" y="284" type="line"/>
      <point x="589" y="45" type="line"/>
      <point x="589" y="33"/>
      <point x="584" y="30"/>
      <point x="569" y="30" type="curve"/>
      <point x="554" y="30"/>
      <point x="499" y="30"/>
      <point x="459" y="32" type="curve"/>
      <point x="477" y="-4"/>
      <point x="496" y="-58"/>
      <point x="502" y="-97" type="curve"/>
      <point x="576" y="-97"/>
      <point x="634" y="-96"/>
      <point x="680" y="-77" type="curve"/>
      <point x="727" y="-57"/>
      <point x="739" y="-23"/>
    </contour>
  </outline>
</glyph>
<glyph name="ety044_cid05169_EL" format="1">
  <advance width="1000"/>
  <outline>
    <contour>
      <point x="713" y="-17" type="curve"/>
      <point x="713" y="212" type="line"/>
      <point x="683" y="212" type="line"/>
      <point x="683" y="-18" type="line"/>
      <point x="683" y="-28"/>
      <point x="680" y="-32"/>
      <point x="668" y="-33" type="curve"/>
      <point x="653" y="-34"/>
      <point x="613" y="-34"/>
      <point x="553" y="-32" type="curve"/>
      <point x="558" y="-42"/>
      <point x="564" y="-52"/>
      <point x="566" y="-61" type="curve"/>
      <point x="630" y="-61"/>
      <point x="669" y="-61"/>
      <point x="688" y="-56" type="curve"/>
      <point x="708" y="-50"/>
      <point x="713" y="-40"/>
    </contour>
    <contour>
      <point x="855" y="318" type="line"/>
      <point x="848" y="318" type="line"/>
      <point x="848" y="311" type="line"/>
      <point x="811" y="276"/>
      <point x="743" y="235"/>
      <point x="683" y="213" type="curve"/>
      <point x="690" y="208"/>
      <point x="699" y="200"/>
      <point x="704" y="193" type="curve"/>
      <point x="765" y="219"/>
      <point x="836" y="260"/>
      <point x="883" y="305" type="curve"/>
      <point x="862" y="320" type="line"/>
    </contour>
  </outline>
</glyph>
<glyph name="ety045_cid05176_EL" format="1">
  <advance width="1000"/>
  <outline>
    <contour>
      <point x="862" y="774" type="line"/>
      <point x="855" y="774" type="line"/>
      <point x="855" y="768" type="line"/>
      <point x="811" y="715"/>
      <point x="730" y="648"/>
      <point x="670" y="609" type="curve"/>
      <point x="676" y="604"/>
      <point x="685" y="596"/>
      <point x="690" y="590" type="curve"/>
      <point x="751" y="632"/>
      <point x="835" y="699"/>
      <point x="889" y="762" type="curve"/>
      <point x="868" y="776" type="line"/>
    </contour>
    <contour>
      <point x="700" y="153" type="curve"/>
      <point x="700" y="608" type="line"/>
      <point x="671" y="608" type="line"/>
      <point x="671" y="153" type="line"/>
      <point x="671" y="142"/>
      <point x="668" y="139"/>
      <point x="657" y="138" type="curve"/>
      <point x="644" y="137"/>
      <point x="609" y="137"/>
      <point x="561" y="138" type="curve"/>
      <point x="566" y="129"/>
      <point x="572" y="116"/>
      <point x="574" y="107" type="curve"/>
      <point x="625" y="107"/>
      <point x="659" y="108"/>
      <point x="676" y="114" type="curve"/>
      <point x="694" y="120"/>
      <point x="700" y="130"/>
    </contour>
  </outline>
</glyph>
<glyph name="ety046_cid05176_H" format="1">
  <advance width="1000"/>
  <outline>
    <contour>
      <point x="847" y="813" type="line"/>
      <point x="818" y="813" type="line"/>
      <point x="818" y="789" type="line"/>
      <point x="783" y="742"/>
      <point x="699" y="668"/>
      <point x="631" y="626" type="curve"/>
      <point x="653" y="607"/>
      <point x="687" y="569"/>
      <point x="704" y="545" type="curve"/>
      <point x="784" y="598"/>
      <point x="884" y="682"/>
      <point x="953" y="756" type="curve"/>
      <point x="871" y="820" type="line"/>
    </contour>
    <contour>
      <point x="752" y="194" type="curve"/>
      <point x="752" y="626" type="line"/>
      <point x="632" y="626" type="line"/>
      <point x="632" y="196" type="line"/>
      <point x="632" y="185"/>
      <point x="628" y="182"/>
      <point x="617" y="182" type="curve"/>
      <point x="606" y="181"/>
      <point x="570" y="181"/>
      <point x="539" y="183" type="curve"/>
      <point x="553" y="152"/>
      <point x="568" y="106"/>
      <point x="571" y="74" type="curve"/>
      <point x="631" y="74"/>
      <point x="675" y="76"/>
      <point x="709" y="93" type="curve"/>
      <point x="743" y="111"/>
      <point x="752" y="140"/>
    </contour>
  </outline>
</glyph>
<glyph name="ety047_cid05280_EL" format="1">
  <advance width="1000"/>
  <outline>
    <contour>
      <point x="829" y="415" type="line"/>
      <point x="821" y="415" type="line"/>
      <point x="821" y="408" type="line"/>
      <point x="782" y="364"/>
      <point x="711" y="312"/>
      <point x="651" y="281" type="curve"/>
      <point x="658" y="277"/>
      <point x="667" y="269"/>
      <point x="672" y="262" type="curve"/>
      <point x="733" y="295"/>
      <point x="811" y="347"/>
      <point x="860" y="401" type="curve"/>
      <point x="836" y="417" type="line"/>
    </contour>
    <contour>
      <point x="677" y="-28" type="curve"/>
      <point x="677" y="281" type="line"/>
      <point x="650" y="281" type="line"/>
      <point x="650" y="-28" type="line"/>
      <point x="650" y="-40"/>
      <point x="647" y="-43"/>
      <point x="634" y="-44" type="curve"/>
      <point x="620" y="-45"/>
      <point x="580" y="-45"/>
      <point x="522" y="-44" type="curve"/>
      <point x="526" y="-53"/>
      <point x="531" y="-63"/>
      <point x="533" y="-71" type="curve"/>
      <point x="596" y="-71"/>
      <point x="634" y="-71"/>
      <point x="653" y="-65" type="curve"/>
      <point x="672" y="-61"/>
      <point x="677" y="-51"/>
    </contour>
  </outline>
</glyph>
<glyph name="ety048_cid05477_EL" format="1">
  <advance width="1000"/>
  <outline>
    <contour>
      <point x="849" y="580" type="line"/>
      <point x="842" y="580" type="line"/>
      <point x="842" y="573" type="line"/>
      <point x="809" y="548"/>
      <point x="751" y="521"/>
      <point x="703" y="504" type="curve"/>
      <point x="710" y="500"/>
      <point x="718" y="492"/>
      <point x="722" y="487" type="curve"/>
      <point x="771" y="505"/>
      <point x="835" y="533"/>
      <point x="878" y="567" type="curve"/>
      <point x="856" y="582" type="line"/>
    </contour>
    <contour>
      <point x="731" y="365" type="curve"/>
      <point x="731" y="503" type="line"/>
      <point x="703" y="503" type="line"/>
      <point x="703" y="365" type="line"/>
      <point x="703" y="355"/>
      <point x="701" y="352"/>
      <point x="689" y="352" type="curve"/>
      <point x="677" y="351"/>
      <point x="642" y="351"/>
      <point x="591" y="352" type="curve"/>
      <point x="596" y="343"/>
      <point x="601" y="333"/>
      <point x="603" y="326" type="curve"/>
      <point x="661" y="326"/>
      <point x="693" y="325"/>
      <point x="711" y="330" type="curve"/>
      <point x="727" y="336"/>
      <point x="731" y="345"/>
    </contour>
  </outline>
</glyph>
<glyph name="ety049_cid05484_EL" format="1">
  <advance width="1000"/>
  <outline>
    <contour>
      <point x="504" y="-26" type="curve"/>
      <point x="504" y="243" type="line"/>
      <point x="476" y="243" type="line"/>
      <point x="476" y="-26" type="line"/>
      <point x="476" y="-36"/>
      <point x="474" y="-39"/>
      <point x="462" y="-40" type="curve"/>
      <point x="451" y="-41"/>
      <point x="418" y="-41"/>
      <point x="370" y="-39" type="curve"/>
      <point x="375" y="-49"/>
      <point x="380" y="-60"/>
      <point x="381" y="-67" type="curve"/>
      <point x="434" y="-67"/>
      <point x="466" y="-68"/>
      <point x="483" y="-63" type="curve"/>
      <point x="500" y="-57"/>
      <point x="504" y="-47"/>
    </contour>
    <contour>
      <point x="605" y="357" type="line"/>
      <point x="599" y="357" type="line"/>
      <point x="599" y="350" type="line"/>
      <point x="572" y="314"/>
      <point x="521" y="271"/>
      <point x="476" y="244" type="curve"/>
      <point x="482" y="239"/>
      <point x="490" y="232"/>
      <point x="495" y="227" type="curve"/>
      <point x="540" y="255"/>
      <point x="596" y="299"/>
      <point x="631" y="345" type="curve"/>
      <point x="612" y="359" type="line"/>
    </contour>
  </outline>
</glyph>
<glyph name="ety050_cid05832_EL" format="1">
  <advance width="1000"/>
  <outline>
    <contour>
      <point x="661" y="386" type="curve"/>
      <point x="661" y="658" type="line"/>
      <point x="631" y="658" type="line"/>
      <point x="631" y="386" type="line"/>
      <point x="631" y="376"/>
      <point x="628" y="372"/>
      <point x="615" y="371" type="curve"/>
      <point x="600" y="370"/>
      <point x="562" y="369"/>
      <point x="500" y="371" type="curve"/>
      <point x="506" y="362"/>
      <point x="514" y="350"/>
      <point x="517" y="341" type="curve"/>
      <point x="581" y="341"/>
      <point x="615" y="341"/>
      <point x="634" y="348" type="curve"/>
      <point x="655" y="354"/>
      <point x="661" y="365"/>
    </contour>
    <contour>
      <point x="837" y="792" type="line"/>
      <point x="830" y="792" type="line"/>
      <point x="830" y="785" type="line"/>
      <point x="782" y="741"/>
      <point x="697" y="689"/>
      <point x="631" y="659" type="curve"/>
      <point x="637" y="654"/>
      <point x="646" y="646"/>
      <point x="651" y="640" type="curve"/>
      <point x="718" y="672"/>
      <point x="807" y="725"/>
      <point x="866" y="779" type="curve"/>
      <point x="844" y="794" type="line"/>
    </contour>
  </outline>
</glyph>
<glyph name="ety051_cid05871_EL" format="1">
  <advance width="1000"/>
  <outline>
    <contour>
      <point x="512" y="-26" type="curve"/>
      <point x="512" y="251" type="line"/>
      <point x="482" y="251" type="line"/>
      <point x="482" y="-27" type="line"/>
      <point x="482" y="-37"/>
      <point x="479" y="-40"/>
      <point x="468" y="-40" type="curve"/>
      <point x="457" y="-41"/>
      <point x="420" y="-41"/>
      <point x="373" y="-40" type="curve"/>
      <point x="377" y="-48"/>
      <point x="382" y="-59"/>
      <point x="384" y="-65" type="curve"/>
      <point x="442" y="-65"/>
      <point x="474" y="-65"/>
      <point x="490" y="-61" type="curve"/>
      <point x="507" y="-56"/>
      <point x="512" y="-47"/>
    </contour>
    <contour>
      <point x="620" y="369" type="line"/>
      <point x="613" y="369" type="line"/>
      <point x="613" y="362" type="line"/>
      <point x="583" y="324"/>
      <point x="528" y="279"/>
      <point x="481" y="251" type="curve"/>
      <point x="488" y="247"/>
      <point x="497" y="239"/>
      <point x="502" y="233" type="curve"/>
      <point x="551" y="263"/>
      <point x="610" y="309"/>
      <point x="649" y="356" type="curve"/>
      <point x="626" y="371" type="line"/>
    </contour>
  </outline>
</glyph>
<glyph name="ety052_cid05871_H" format="1">
  <advance width="1000"/>
  <outline>
    <contour>
      <point x="549" y="22" type="curve"/>
      <point x="549" y="258" type="line"/>
      <point x="427" y="258" type="line"/>
      <point x="427" y="26" type="line"/>
      <point x="427" y="16"/>
      <point x="423" y="13"/>
      <point x="413" y="13" type="curve"/>
      <point x="403" y="12"/>
      <point x="366" y="13"/>
      <point x="339" y="14" type="curve"/>
      <point x="352" y="-17"/>
      <point x="367" y="-61"/>
      <point x="371" y="-94" type="curve"/>
      <point x="428" y="-94"/>
      <point x="471" y="-93"/>
      <point x="506" y="-77" type="curve"/>
      <point x="541" y="-60"/>
      <point x="549" y="-32"/>
    </contour>
    <contour>
      <point x="575" y="399" type="line"/>
      <point x="543" y="399" type="line"/>
      <point x="543" y="376" type="line"/>
      <point x="520" y="343"/>
      <point x="468" y="289"/>
      <point x="426" y="258" type="curve"/>
      <point x="441" y="243"/>
      <point x="470" y="211"/>
      <point x="483" y="191" type="curve"/>
      <point x="549" y="230"/>
      <point x="619" y="287"/>
      <point x="675" y="337" type="curve"/>
      <point x="602" y="406" type="line"/>
    </contour>
  </outline>
</glyph>
<glyph name="ety053_cid05992_H" format="1">
  <advance width="1000"/>
  <outline>
    <contour>
      <point x="574" y="33" type="curve"/>
      <point x="574" y="265" type="line"/>
      <point x="455" y="265" type="line"/>
      <point x="455" y="37" type="line"/>
      <point x="455" y="27"/>
      <point x="452" y="24"/>
      <point x="441" y="24" type="curve"/>
      <point x="431" y="24"/>
      <point x="396" y="24"/>
      <point x="368" y="25" type="curve"/>
      <point x="382" y="-6"/>
      <point x="398" y="-51"/>
      <point x="403" y="-85" type="curve"/>
      <point x="457" y="-85"/>
      <point x="498" y="-84"/>
      <point x="532" y="-67" type="curve"/>
      <point x="566" y="-49"/>
      <point x="574" y="-20"/>
    </contour>
    <contour>
      <point x="575" y="420" type="line"/>
      <point x="543" y="420" type="line"/>
      <point x="543" y="397" type="line"/>
      <point x="526" y="362"/>
      <point x="487" y="302"/>
      <point x="455" y="267" type="curve"/>
      <point x="471" y="252"/>
      <point x="501" y="218"/>
      <point x="514" y="198" type="curve"/>
      <point x="570" y="242"/>
      <point x="629" y="306"/>
      <point x="675" y="359" type="curve"/>
      <point x="602" y="427" type="line"/>
    </contour>
  </outline>
</glyph>
<glyph name="ety054_cid06070_H" format="1">
  <advance width="1000"/>
  <outline>
    <contour>
      <point x="774" y="61" type="curve"/>
      <point x="774" y="500" type="line"/>
      <point x="630" y="500" type="line"/>
      <point x="630" y="64" type="line"/>
      <point x="630" y="51"/>
      <point x="625" y="47"/>
      <point x="609" y="47" type="curve"/>
      <point x="593" y="47"/>
      <point x="536" y="47"/>
      <point x="492" y="49" type="curve"/>
      <point x="511" y="11"/>
      <point x="533" y="-48"/>
      <point x="539" y="-88" type="curve"/>
      <point x="614" y="-88"/>
      <point x="672" y="-85"/>
      <point x="717" y="-64" type="curve"/>
      <point x="762" y="-43"/>
      <point x="774" y="-6"/>
    </contour>
    <contour>
      <point x="842" y="790" type="line"/>
      <point x="807" y="790" type="line"/>
      <point x="807" y="759" type="line"/>
      <point x="776" y="688"/>
      <point x="699" y="569"/>
      <point x="631" y="501" type="curve"/>
      <point x="656" y="481"/>
      <point x="697" y="441"/>
      <point x="717" y="414" type="curve"/>
      <point x="806" y="493"/>
      <point x="901" y="622"/>
      <point x="967" y="728" type="curve"/>
      <point x="871" y="798" type="line"/>
    </contour>
  </outline>
</glyph>
<glyph name="ety056_cid06247_H" format="1">
  <advance width="1000"/>
  <outline>
    <contour>
      <point x="857" y="363" type="line"/>
      <point x="825" y="363" type="line"/>
      <point x="825" y="339" type="line"/>
      <point x="787" y="307"/>
      <point x="699" y="260"/>
      <point x="627" y="234" type="curve"/>
      <point x="643" y="217"/>
      <point x="674" y="180"/>
      <point x="688" y="158" type="curve"/>
      <point x="783" y="193"/>
      <point x="884" y="245"/>
      <point x="963" y="297" type="curve"/>
      <point x="884" y="370" type="line"/>
    </contour>
    <contour>
      <point x="762" y="34" type="curve"/>
      <point x="762" y="234" type="line"/>
      <point x="626" y="234" type="line"/>
      <point x="626" y="39" type="line"/>
      <point x="626" y="27"/>
      <point x="621" y="24"/>
      <point x="607" y="23" type="curve"/>
      <point x="593" y="23"/>
      <point x="537" y="23"/>
      <point x="499" y="25" type="curve"/>
      <point x="515" y="-9"/>
      <point x="532" y="-58"/>
      <point x="538" y="-95" type="curve"/>
      <point x="608" y="-96"/>
      <point x="663" y="-95"/>
      <point x="706" y="-78" type="curve"/>
      <point x="750" y="-60"/>
      <point x="762" y="-28"/>
    </contour>
  </outline>
</glyph>
<glyph name="ety057_cid06283_EL" format="1">
  <advance width="1000"/>
  <outline>
    <contour>
      <point x="761" y="572" type="line"/>
      <point x="754" y="572" type="line"/>
      <point x="754" y="566" type="line"/>
      <point x="696" y="517"/>
      <point x="588" y="465"/>
      <point x="496" y="435" type="curve"/>
      <point x="502" y="430"/>
      <point x="511" y="422"/>
      <point x="516" y="416" type="curve"/>
      <point x="609" y="447"/>
      <point x="721" y="500"/>
      <point x="790" y="559" type="curve"/>
      <point x="768" y="574" type="line"/>
    </contour>
    <contour>
      <point x="525" y="111" type="curve"/>
      <point x="525" y="435" type="line"/>
      <point x="495" y="435" type="line"/>
      <point x="495" y="110" type="line"/>
      <point x="495" y="98"/>
      <point x="492" y="94"/>
      <point x="476" y="93" type="curve"/>
      <point x="460" y="91"/>
      <point x="413" y="91"/>
      <point x="343" y="93" type="curve"/>
      <point x="348" y="83"/>
      <point x="354" y="73"/>
      <point x="356" y="64" type="curve"/>
      <point x="429" y="64"/>
      <point x="475" y="63"/>
      <point x="496" y="69" type="curve"/>
      <point x="519" y="75"/>
      <point x="525" y="85"/>
    </contour>
  </outline>
</glyph>
<glyph name="ety058_cid06283_H" format="1">
  <advance width="1000"/>
  <outline>
    <contour>
      <point x="708" y="585" type="line"/>
      <point x="671" y="585" type="line"/>
      <point x="671" y="558" type="line"/>
      <point x="628" y="517"/>
      <point x="525" y="451"/>
      <point x="440" y="415" type="curve"/>
      <point x="460" y="396"/>
      <point x="496" y="356"/>
      <point x="512" y="332" type="curve"/>
      <point x="623" y="378"/>
      <point x="739" y="448"/>
      <point x="830" y="512" type="curve"/>
      <point x="738" y="592" type="line"/>
    </contour>
    <contour>
      <point x="583" y="188" type="curve"/>
      <point x="583" y="415" type="line"/>
      <point x="439" y="415" type="line"/>
      <point x="439" y="193" type="line"/>
      <point x="439" y="182"/>
      <point x="435" y="179"/>
      <point x="422" y="178" type="curve"/>
      <point x="410" y="178"/>
      <point x="365" y="178"/>
      <point x="334" y="180" type="curve"/>
      <point x="350" y="147"/>
      <point x="366" y="99"/>
      <point x="372" y="63" type="curve"/>
      <point x="437" y="63"/>
      <point x="489" y="63"/>
      <point x="530" y="80" type="curve"/>
      <point x="572" y="98"/>
      <point x="583" y="128"/>
    </contour>
  </outline>
</glyph>
<glyph name="ety059_cid06304_EL" format="1">
  <advance width="1000"/>
  <outline>
    <contour>
      <point x="729" y="538" type="line"/>
      <point x="722" y="538" type="line"/>
      <point x="722" y="531" type="line"/>
      <point x="669" y="489"/>
      <point x="571" y="446"/>
      <point x="486" y="421" type="curve"/>
      <point x="492" y="417"/>
      <point x="501" y="408"/>
      <point x="505" y="402" type="curve"/>
      <point x="591" y="428"/>
      <point x="693" y="474"/>
      <point x="758" y="525" type="curve"/>
      <point x="736" y="540" type="line"/>
    </contour>
    <contour>
      <point x="515" y="88" type="curve"/>
      <point x="515" y="421" type="line"/>
      <point x="485" y="421" type="line"/>
      <point x="485" y="88" type="line"/>
      <point x="485" y="78"/>
      <point x="483" y="75"/>
      <point x="472" y="74" type="curve"/>
      <point x="459" y="73"/>
      <point x="424" y="73"/>
      <point x="373" y="75" type="curve"/>
      <point x="378" y="65"/>
      <point x="383" y="53"/>
      <point x="385" y="44" type="curve"/>
      <point x="439" y="44"/>
      <point x="474" y="44"/>
      <point x="492" y="50" type="curve"/>
      <point x="510" y="56"/>
      <point x="515" y="66"/>
    </contour>
  </outline>
</glyph>
<glyph name="ety060_cid06304_H" format="1">
  <advance width="1000"/>
  <outline>
    <contour>
      <point x="669" y="565" type="line"/>
      <point x="634" y="565" type="line"/>
      <point x="634" y="542" type="line"/>
      <point x="601" y="505"/>
      <point x="522" y="453"/>
      <point x="450" y="425" type="curve"/>
      <point x="469" y="407"/>
      <point x="502" y="371"/>
      <point x="518" y="348" type="curve"/>
      <point x="617" y="386"/>
      <point x="712" y="445"/>
      <point x="783" y="505" type="curve"/>
      <point x="698" y="571" type="line"/>
    </contour>
    <contour>
      <point x="575" y="167" type="curve"/>
      <point x="575" y="424" type="line"/>
      <point x="450" y="424" type="line"/>
      <point x="450" y="170" type="line"/>
      <point x="450" y="160"/>
      <point x="446" y="157"/>
      <point x="434" y="157" type="curve"/>
      <point x="423" y="157"/>
      <point x="382" y="156"/>
      <point x="350" y="158" type="curve"/>
      <point x="365" y="131"/>
      <point x="384" y="88"/>
      <point x="390" y="58" type="curve"/>
      <point x="449" y="58"/>
      <point x="493" y="59"/>
      <point x="529" y="74" type="curve"/>
      <point x="566" y="90"/>
      <point x="575" y="116"/>
    </contour>
  </outline>
</glyph>
<glyph name="ety062_cid07037_EL" format="1">
  <advance width="1000"/>
  <outline>
    <contour>
      <point x="761" y="582" type="line"/>
      <point x="754" y="582" type="line"/>
      <point x="754" y="575" type="line"/>
      <point x="696" y="525"/>
      <point x="588" y="472"/>
      <point x="496" y="441" type="curve"/>
      <point x="502" y="436"/>
      <point x="511" y="427"/>
      <point x="516" y="422" type="curve"/>
      <point x="609" y="454"/>
      <point x="721" y="509"/>
      <point x="790" y="569" type="curve"/>
      <point x="768" y="584" type="line"/>
    </contour>
    <contour>
      <point x="525" y="113" type="curve"/>
      <point x="525" y="441" type="line"/>
      <point x="495" y="441" type="line"/>
      <point x="495" y="112" type="line"/>
      <point x="495" y="99"/>
      <point x="492" y="95"/>
      <point x="476" y="94" type="curve"/>
      <point x="460" y="93"/>
      <point x="413" y="93"/>
      <point x="343" y="95" type="curve"/>
      <point x="348" y="85"/>
      <point x="354" y="74"/>
      <point x="356" y="65" type="curve"/>
      <point x="429" y="65"/>
      <point x="475" y="65"/>
      <point x="496" y="71" type="curve"/>
      <point x="519" y="77"/>
      <point x="525" y="87"/>
    </contour>
  </outline>
</glyph>
<glyph name="ety063_cid07037_H" format="1">
  <advance width="1000"/>
  <outline>
    <contour>
      <point x="708" y="603" type="line"/>
      <point x="671" y="603" type="line"/>
      <point x="671" y="576" type="line"/>
      <point x="628" y="531"/>
      <point x="525" y="460"/>
      <point x="440" y="421" type="curve"/>
      <point x="459" y="401"/>
      <point x="496" y="362"/>
      <point x="512" y="338" type="curve"/>
      <point x="623" y="387"/>
      <point x="739" y="463"/>
      <point x="830" y="531" type="curve"/>
      <point x="738" y="610" type="line"/>
    </contour>
    <contour>
      <point x="583" y="185" type="curve"/>
      <point x="583" y="421" type="line"/>
      <point x="439" y="421" type="line"/>
      <point x="439" y="190" type="line"/>
      <point x="439" y="179"/>
      <point x="435" y="176"/>
      <point x="422" y="176" type="curve"/>
      <point x="410" y="176"/>
      <point x="365" y="176"/>
      <point x="334" y="177" type="curve"/>
      <point x="350" y="144"/>
      <point x="366" y="96"/>
      <point x="372" y="60" type="curve"/>
      <point x="437" y="60"/>
      <point x="489" y="61"/>
      <point x="530" y="78" type="curve"/>
      <point x="572" y="95"/>
      <point x="583" y="125"/>
    </contour>
  </outline>
</glyph>
<glyph name="ety065_cid07091_EL" format="1">
  <advance width="1000"/>
  <outline>
    <contour>
      <point x="749" y="596" type="line"/>
      <point x="742" y="596" type="line"/>
      <point x="742" y="589" type="line"/>
      <point x="688" y="546"/>
      <point x="590" y="501"/>
      <point x="506" y="474" type="curve"/>
      <point x="512" y="471"/>
      <point x="520" y="462"/>
      <point x="525" y="456" type="curve"/>
      <point x="611" y="483"/>
      <point x="713" y="530"/>
      <point x="776" y="583" type="curve"/>
      <point x="756" y="598" type="line"/>
    </contour>
    <contour>
      <point x="534" y="305" type="curve"/>
      <point x="534" y="474" type="line"/>
      <point x="505" y="474" type="line"/>
      <point x="505" y="304" type="line"/>
      <point x="505" y="291"/>
      <point x="502" y="287"/>
      <point x="483" y="285" type="curve"/>
      <point x="465" y="284"/>
      <point x="411" y="284"/>
      <point x="326" y="286" type="curve"/>
      <point x="330" y="277"/>
      <point x="336" y="267"/>
      <point x="338" y="258" type="curve"/>
      <point x="428" y="258"/>
      <point x="479" y="257"/>
      <point x="504" y="263" type="curve"/>
      <point x="528" y="269"/>
      <point x="534" y="279"/>
    </contour>
  </outline>
</glyph>
<glyph name="ety066_cid07091_H" format="1">
  <advance width="1000"/>
  <outline>
    <contour>
      <point x="721" y="634" type="line"/>
      <point x="689" y="634" type="line"/>
      <point x="689" y="613" type="line"/>
      <point x="644" y="576"/>
      <point x="532" y="523"/>
      <point x="438" y="494" type="curve"/>
      <point x="458" y="476"/>
      <point x="492" y="443"/>
      <point x="508" y="421" type="curve"/>
      <point x="621" y="459"/>
      <point x="745" y="520"/>
      <point x="832" y="580" type="curve"/>
      <point x="747" y="640" type="line"/>
    </contour>
    <contour>
      <point x="593" y="343" type="curve"/>
      <point x="593" y="493" type="line"/>
      <point x="438" y="493" type="line"/>
      <point x="438" y="348" type="line"/>
      <point x="438" y="337"/>
      <point x="432" y="334"/>
      <point x="416" y="334" type="curve"/>
      <point x="401" y="333"/>
      <point x="336" y="333"/>
      <point x="296" y="336" type="curve"/>
      <point x="315" y="307"/>
      <point x="338" y="263"/>
      <point x="347" y="230" type="curve"/>
      <point x="419" y="229"/>
      <point x="478" y="230"/>
      <point x="528" y="245" type="curve"/>
      <point x="577" y="261"/>
      <point x="593" y="286"/>
    </contour>
  </outline>
</glyph>
<glyph name="ety067_cid07105_EL" format="1">
  <advance width="1000"/>
  <outline>
    <contour>
      <point x="772" y="606" type="line"/>
      <point x="766" y="606" type="line"/>
      <point x="766" y="599" type="line"/>
      <point x="702" y="546"/>
      <point x="583" y="488"/>
      <point x="481" y="457" type="curve"/>
      <point x="488" y="452"/>
      <point x="496" y="444"/>
      <point x="501" y="437" type="curve"/>
      <point x="603" y="471"/>
      <point x="724" y="529"/>
      <point x="801" y="593" type="curve"/>
      <point x="779" y="608" type="line"/>
    </contour>
    <contour>
      <point x="511" y="106" type="curve"/>
      <point x="511" y="456" type="line"/>
      <point x="481" y="456" type="line"/>
      <point x="481" y="105" type="line"/>
      <point x="481" y="92"/>
      <point x="478" y="88"/>
      <point x="462" y="87" type="curve"/>
      <point x="445" y="85"/>
      <point x="395" y="85"/>
      <point x="323" y="87" type="curve"/>
      <point x="328" y="78"/>
      <point x="333" y="67"/>
      <point x="335" y="58" type="curve"/>
      <point x="412" y="58"/>
      <point x="459" y="57"/>
      <point x="481" y="63" type="curve"/>
      <point x="504" y="69"/>
      <point x="511" y="80"/>
    </contour>
  </outline>
</glyph>
<glyph name="ety068_cid07221_H" format="1">
  <advance width="1000"/>
  <outline>
    <contour>
      <point x="576" y="401" type="curve"/>
      <point x="576" y="509" type="line"/>
      <point x="436" y="509" type="line"/>
      <point x="436" y="406" type="line"/>
      <point x="436" y="397"/>
      <point x="432" y="395"/>
      <point x="423" y="395" type="curve"/>
      <point x="414" y="394"/>
      <point x="382" y="394"/>
      <point x="359" y="396" type="curve"/>
      <point x="372" y="367"/>
      <point x="386" y="329"/>
      <point x="391" y="297" type="curve"/>
      <point x="447" y="297"/>
      <point x="493" y="297"/>
      <point x="530" y="311" type="curve"/>
      <point x="567" y="325"/>
      <point x="576" y="350"/>
    </contour>
    <contour>
      <point x="660" y="649" type="line"/>
      <point x="624" y="649" type="line"/>
      <point x="624" y="625" type="line"/>
      <point x="589" y="591"/>
      <point x="506" y="537"/>
      <point x="437" y="507" type="curve"/>
      <point x="456" y="490"/>
      <point x="491" y="454"/>
      <point x="506" y="433" type="curve"/>
      <point x="601" y="472"/>
      <point x="700" y="531"/>
      <point x="777" y="585" type="curve"/>
      <point x="690" y="656" type="line"/>
    </contour>
  </outline>
</glyph>
<glyph name="ety070_cid07487_H" format="1">
  <advance width="1000"/>
  <outline>
    <contour>
      <point x="836" y="815" type="line"/>
      <point x="802" y="815" type="line"/>
      <point x="802" y="789" type="line"/>
      <point x="766" y="740"/>
      <point x="679" y="666"/>
      <point x="601" y="625" type="curve"/>
      <point x="622" y="606"/>
      <point x="657" y="567"/>
      <point x="674" y="542" type="curve"/>
      <point x="776" y="594"/>
      <point x="879" y="676"/>
      <point x="953" y="753" type="curve"/>
      <point x="864" y="822" type="line"/>
    </contour>
    <contour>
      <point x="711" y="217" type="curve"/>
      <point x="711" y="625" type="line"/>
      <point x="600" y="625" type="line"/>
      <point x="600" y="219" type="line"/>
      <point x="600" y="209"/>
      <point x="597" y="207"/>
      <point x="587" y="207" type="curve"/>
      <point x="577" y="206"/>
      <point x="547" y="206"/>
      <point x="520" y="207" type="curve"/>
      <point x="533" y="176"/>
      <point x="546" y="129"/>
      <point x="549" y="97" type="curve"/>
      <point x="603" y="97"/>
      <point x="643" y="100"/>
      <point x="673" y="118" type="curve"/>
      <point x="705" y="136"/>
      <point x="711" y="166"/>
    </contour>
  </outline>
</glyph>
<glyph name="ety071_cid07881_EL" format="1">
  <advance width="1000"/>
  <outline>
    <contour>
      <point x="690" y="100" type="curve"/>
      <point x="690" y="378" type="line"/>
      <point x="661" y="378" type="line"/>
      <point x="661" y="99" type="line"/>
      <point x="661" y="87"/>
      <point x="657" y="83"/>
      <point x="642" y="82" type="curve"/>
      <point x="627" y="82"/>
      <point x="579" y="82"/>
      <point x="514" y="83" type="curve"/>
      <point x="519" y="75"/>
      <point x="525" y="64"/>
      <point x="526" y="56" type="curve"/>
      <point x="602" y="56"/>
      <point x="643" y="56"/>
      <point x="664" y="61" type="curve"/>
      <point x="684" y="67"/>
      <point x="690" y="77"/>
    </contour>
    <contour>
      <point x="849" y="503" type="line"/>
      <point x="842" y="503" type="line"/>
      <point x="842" y="496" type="line"/>
      <point x="800" y="454"/>
      <point x="723" y="406"/>
      <point x="661" y="377" type="curve"/>
      <point x="667" y="374"/>
      <point x="674" y="367"/>
      <point x="679" y="361" type="curve"/>
      <point x="744" y="390"/>
      <point x="824" y="439"/>
      <point x="876" y="491" type="curve"/>
      <point x="856" y="505" type="line"/>
    </contour>
  </outline>
</glyph>
<glyph name="ety072_cid08053_H" format="1">
  <advance width="1000"/>
  <outline>
    <contour>
      <point x="849" y="813" type="line"/>
      <point x="820" y="813" type="line"/>
      <point x="820" y="789" type="line"/>
      <point x="785" y="742"/>
      <point x="701" y="668"/>
      <point x="635" y="626" type="curve"/>
      <point x="656" y="607"/>
      <point x="690" y="569"/>
      <point x="707" y="545" type="curve"/>
      <point x="787" y="598"/>
      <point x="886" y="682"/>
      <point x="954" y="756" type="curve"/>
      <point x="873" y="820" type="line"/>
    </contour>
    <contour>
      <point x="753" y="194" type="curve"/>
      <point x="753" y="626" type="line"/>
      <point x="634" y="626" type="line"/>
      <point x="634" y="196" type="line"/>
      <point x="634" y="185"/>
      <point x="630" y="182"/>
      <point x="619" y="182" type="curve"/>
      <point x="608" y="181"/>
      <point x="572" y="181"/>
      <point x="542" y="183" type="curve"/>
      <point x="556" y="152"/>
      <point x="570" y="106"/>
      <point x="574" y="74" type="curve"/>
      <point x="633" y="74"/>
      <point x="677" y="76"/>
      <point x="711" y="93" type="curve"/>
      <point x="745" y="111"/>
      <point x="753" y="140"/>
    </contour>
  </outline>
</glyph>
<glyph name="ety073_cid08289_EL" format="1">
  <advance width="1000"/>
  <outline>
    <contour>
      <point x="858" y="785" type="line"/>
      <point x="851" y="785" type="line"/>
      <point x="851" y="778" type="line"/>
      <point x="807" y="719"/>
      <point x="722" y="649"/>
      <point x="651" y="608" type="curve"/>
      <point x="658" y="603"/>
      <point x="667" y="595"/>
      <point x="672" y="589" type="curve"/>
      <point x="744" y="632"/>
      <point x="832" y="704"/>
      <point x="886" y="773" type="curve"/>
      <point x="865" y="787" type="line"/>
    </contour>
    <contour>
      <point x="680" y="134" type="curve"/>
      <point x="680" y="607" type="line"/>
      <point x="651" y="607" type="line"/>
      <point x="651" y="133" type="line"/>
      <point x="651" y="124"/>
      <point x="648" y="121"/>
      <point x="637" y="121" type="curve"/>
      <point x="626" y="120"/>
      <point x="593" y="120"/>
      <point x="550" y="121" type="curve"/>
      <point x="555" y="112"/>
      <point x="561" y="100"/>
      <point x="563" y="93" type="curve"/>
      <point x="613" y="93"/>
      <point x="643" y="93"/>
      <point x="659" y="98" type="curve"/>
      <point x="674" y="104"/>
      <point x="680" y="113"/>
    </contour>
  </outline>
</glyph>
<glyph name="ety075_cid08524_EL" format="1">
  <advance width="1000"/>
  <outline>
    <contour>
      <point x="506" y="-7" type="curve"/>
      <point x="506" y="178" type="line"/>
      <point x="474" y="178" type="line"/>
      <point x="474" y="-8" type="line"/>
      <point x="474" y="-19"/>
      <point x="471" y="-23"/>
      <point x="454" y="-24" type="curve"/>
      <point x="436" y="-25"/>
      <point x="384" y="-26"/>
      <point x="309" y="-24" type="curve"/>
      <point x="315" y="-34"/>
      <point x="321" y="-44"/>
      <point x="323" y="-54" type="curve"/>
      <point x="407" y="-54"/>
      <point x="454" y="-54"/>
      <point x="476" y="-48" type="curve"/>
      <point x="500" y="-42"/>
      <point x="506" y="-31"/>
    </contour>
    <contour>
      <point x="750" y="267" type="line"/>
      <point x="742" y="267" type="line"/>
      <point x="742" y="260" type="line"/>
      <point x="681" y="225"/>
      <point x="570" y="194"/>
      <point x="472" y="179" type="curve"/>
      <point x="478" y="173"/>
      <point x="487" y="164"/>
      <point x="492" y="157" type="curve"/>
      <point x="591" y="175"/>
      <point x="707" y="207"/>
      <point x="780" y="252" type="curve"/>
      <point x="757" y="269" type="line"/>
    </contour>
  </outline>
</glyph>
<glyph name="ety076_cid08524_H" format="1">
  <advance width="1000"/>
  <outline>
    <contour>
      <point x="569" y="26" type="curve"/>
      <point x="569" y="163" type="line"/>
      <point x="427" y="163" type="line"/>
      <point x="427" y="31" type="line"/>
      <point x="427" y="20"/>
      <point x="422" y="17"/>
      <point x="406" y="17" type="curve"/>
      <point x="392" y="16"/>
      <point x="330" y="16"/>
      <point x="289" y="19" type="curve"/>
      <point x="307" y="-13"/>
      <point x="327" y="-60"/>
      <point x="334" y="-94" type="curve"/>
      <point x="406" y="-94"/>
      <point x="463" y="-94"/>
      <point x="509" y="-78" type="curve"/>
      <point x="556" y="-61"/>
      <point x="569" y="-32"/>
    </contour>
    <contour>
      <point x="700" y="284" type="line"/>
      <point x="661" y="284" type="line"/>
      <point x="661" y="261" type="line"/>
      <point x="616" y="231"/>
      <point x="513" y="186"/>
      <point x="428" y="163" type="curve"/>
      <point x="446" y="146"/>
      <point x="480" y="112"/>
      <point x="495" y="92" type="curve"/>
      <point x="611" y="123"/>
      <point x="727" y="171"/>
      <point x="821" y="219" type="curve"/>
      <point x="731" y="290" type="line"/>
    </contour>
  </outline>
</glyph>
<glyph name="ety077_cid08616_H" format="1">
  <advance width="1000"/>
  <outline>
    <contour>
      <point x="842" y="797" type="line"/>
      <point x="810" y="797" type="line"/>
      <point x="810" y="772" type="line"/>
      <point x="775" y="724"/>
      <point x="690" y="656"/>
      <point x="612" y="617" type="curve"/>
      <point x="632" y="598"/>
      <point x="665" y="561"/>
      <point x="680" y="538" type="curve"/>
      <point x="781" y="586"/>
      <point x="881" y="663"/>
      <point x="951" y="739" type="curve"/>
      <point x="868" y="803" type="line"/>
    </contour>
    <contour>
      <point x="723" y="172" type="curve"/>
      <point x="723" y="616" type="line"/>
      <point x="611" y="616" type="line"/>
      <point x="611" y="174" type="line"/>
      <point x="611" y="163"/>
      <point x="607" y="160"/>
      <point x="595" y="159" type="curve"/>
      <point x="584" y="159"/>
      <point x="544" y="159"/>
      <point x="510" y="161" type="curve"/>
      <point x="523" y="130"/>
      <point x="535" y="86"/>
      <point x="538" y="56" type="curve"/>
      <point x="601" y="56"/>
      <point x="647" y="57"/>
      <point x="681" y="73" type="curve"/>
      <point x="714" y="90"/>
      <point x="723" y="118"/>
    </contour>
  </outline>
</glyph>
<glyph name="ety078_cid09264_EL" format="1">
  <advance width="1000"/>
  <outline>
    <contour>
      <point x="269" y="-17" type="curve"/>
      <point x="269" y="332" type="line"/>
      <point x="239" y="332" type="line"/>
      <point x="239" y="-18" type="line"/>
      <point x="239" y="-30"/>
      <point x="235" y="-34"/>
      <point x="222" y="-35" type="curve"/>
      <point x="208" y="-35"/>
      <point x="161" y="-36"/>
      <point x="101" y="-34" type="curve"/>
      <point x="106" y="-43"/>
      <point x="111" y="-53"/>
      <point x="113" y="-61" type="curve"/>
      <point x="185" y="-61"/>
      <point x="225" y="-61"/>
      <point x="243" y="-56" type="curve"/>
      <point x="263" y="-50"/>
      <point x="269" y="-40"/>
    </contour>
    <contour>
      <point x="418" y="499" type="line"/>
      <point x="410" y="499" type="line"/>
      <point x="410" y="491" type="line"/>
      <point x="371" y="438"/>
      <point x="298" y="373"/>
      <point x="239" y="333" type="curve"/>
      <point x="246" y="328"/>
      <point x="255" y="322"/>
      <point x="260" y="316" type="curve"/>
      <point x="321" y="357"/>
      <point x="398" y="423"/>
      <point x="448" y="486" type="curve"/>
      <point x="425" y="501" type="line"/>
    </contour>
  </outline>
</glyph>
<glyph name="ety079_cid09264_H" format="1">
  <advance width="1000"/>
  <outline>
    <contour>
      <point x="347" y="49" type="curve"/>
      <point x="347" y="302" type="line"/>
      <point x="222" y="302" type="line"/>
      <point x="222" y="53" type="line"/>
      <point x="222" y="42"/>
      <point x="219" y="39"/>
      <point x="208" y="39" type="curve"/>
      <point x="197" y="39"/>
      <point x="158" y="39"/>
      <point x="130" y="41" type="curve"/>
      <point x="145" y="4"/>
      <point x="162" y="-53"/>
      <point x="167" y="-92" type="curve"/>
      <point x="222" y="-93"/>
      <point x="265" y="-91"/>
      <point x="301" y="-70" type="curve"/>
      <point x="338" y="-49"/>
      <point x="347" y="-13"/>
    </contour>
    <contour>
      <point x="388" y="493" type="line"/>
      <point x="357" y="493" type="line"/>
      <point x="357" y="466" type="line"/>
      <point x="333" y="421"/>
      <point x="273" y="345"/>
      <point x="222" y="303" type="curve"/>
      <point x="241" y="284"/>
      <point x="273" y="244"/>
      <point x="288" y="219" type="curve"/>
      <point x="359" y="273"/>
      <point x="435" y="357"/>
      <point x="491" y="428" type="curve"/>
      <point x="413" y="501" type="line"/>
    </contour>
  </outline>
</glyph>
<glyph name="ety080_cid09658_H" format="1">
  <advance width="1000"/>
  <outline>
    <contour>
      <point x="394" y="44" type="curve"/>
      <point x="394" y="280" type="line"/>
      <point x="254" y="280" type="line"/>
      <point x="254" y="48" type="line"/>
      <point x="254" y="37"/>
      <point x="250" y="35"/>
      <point x="236" y="35" type="curve"/>
      <point x="223" y="34"/>
      <point x="174" y="34"/>
      <point x="138" y="36" type="curve"/>
      <point x="156" y="0"/>
      <point x="175" y="-55"/>
      <point x="181" y="-94" type="curve"/>
      <point x="246" y="-94"/>
      <point x="298" y="-92"/>
      <point x="340" y="-73" type="curve"/>
      <point x="384" y="-52"/>
      <point x="394" y="-17"/>
    </contour>
    <contour>
      <point x="433" y="483" type="line"/>
      <point x="397" y="483" type="line"/>
      <point x="397" y="455" type="line"/>
      <point x="371" y="408"/>
      <point x="308" y="326"/>
      <point x="255" y="280" type="curve"/>
      <point x="277" y="261"/>
      <point x="316" y="220"/>
      <point x="334" y="194" type="curve"/>
      <point x="412" y="252"/>
      <point x="495" y="342"/>
      <point x="556" y="417" type="curve"/>
      <point x="464" y="491" type="line"/>
    </contour>
  </outline>
</glyph>
<glyph name="ety081_cid09769_H" format="1">
  <advance width="1000"/>
  <outline>
    <contour>
      <point x="300" y="48" type="curve"/>
      <point x="300" y="263" type="line"/>
      <point x="176" y="263" type="line"/>
      <point x="176" y="52" type="line"/>
      <point x="176" y="42"/>
      <point x="173" y="39"/>
      <point x="162" y="39" type="curve"/>
      <point x="151" y="39"/>
      <point x="115" y="39"/>
      <point x="86" y="40" type="curve"/>
      <point x="101" y="7"/>
      <point x="117" y="-44"/>
      <point x="122" y="-80" type="curve"/>
      <point x="177" y="-80"/>
      <point x="220" y="-79"/>
      <point x="256" y="-60" type="curve"/>
      <point x="292" y="-41"/>
      <point x="300" y="-8"/>
    </contour>
    <contour>
      <point x="343" y="400" type="line"/>
      <point x="313" y="400" type="line"/>
      <point x="313" y="379" type="line"/>
      <point x="286" y="345"/>
      <point x="226" y="293"/>
      <point x="177" y="263" type="curve"/>
      <point x="192" y="248"/>
      <point x="221" y="216"/>
      <point x="233" y="197" type="curve"/>
      <point x="303" y="235"/>
      <point x="379" y="291"/>
      <point x="438" y="342" type="curve"/>
      <point x="368" y="406" type="line"/>
    </contour>
  </outline>
</glyph>
<glyph name="ety082_cid10113_H" format="1">
  <advance width="1000"/>
  <outline>
    <contour>
      <point x="810" y="39" type="curve"/>
      <point x="810" y="373" type="line"/>
      <point x="684" y="373" type="line"/>
      <point x="684" y="42" type="line"/>
      <point x="684" y="31"/>
      <point x="680" y="28"/>
      <point x="669" y="28" type="curve"/>
      <point x="656" y="28"/>
      <point x="617" y="28"/>
      <point x="584" y="29" type="curve"/>
      <point x="600" y="-6"/>
      <point x="616" y="-58"/>
      <point x="620" y="-94" type="curve"/>
      <point x="681" y="-94"/>
      <point x="728" y="-92"/>
      <point x="764" y="-72" type="curve"/>
      <point x="802" y="-53"/>
      <point x="810" y="-19"/>
    </contour>
    <contour>
      <point x="840" y="535" type="line"/>
      <point x="811" y="535" type="line"/>
      <point x="811" y="512" type="line"/>
      <point x="789" y="471"/>
      <point x="734" y="409"/>
      <point x="685" y="373" type="curve"/>
      <point x="707" y="353"/>
      <point x="744" y="313"/>
      <point x="761" y="287" type="curve"/>
      <point x="825" y="335"/>
      <point x="898" y="413"/>
      <point x="946" y="484" type="curve"/>
      <point x="863" y="542" type="line"/>
    </contour>
  </outline>
</glyph>
<glyph name="ety084_cid10204_H" format="1">
  <advance width="1000"/>
  <outline>
    <contour>
      <point x="731" y="37" type="curve"/>
      <point x="731" y="303" type="line"/>
      <point x="590" y="303" type="line"/>
      <point x="590" y="41" type="line"/>
      <point x="590" y="30"/>
      <point x="586" y="28"/>
      <point x="573" y="27" type="curve"/>
      <point x="561" y="27"/>
      <point x="517" y="27"/>
      <point x="485" y="29" type="curve"/>
      <point x="502" y="-6"/>
      <point x="521" y="-58"/>
      <point x="527" y="-95" type="curve"/>
      <point x="590" y="-95"/>
      <point x="639" y="-94"/>
      <point x="680" y="-75" type="curve"/>
      <point x="721" y="-55"/>
      <point x="731" y="-23"/>
    </contour>
    <contour>
      <point x="808" y="498" type="line"/>
      <point x="771" y="498" type="line"/>
      <point x="771" y="470" type="line"/>
      <point x="739" y="424"/>
      <point x="658" y="347"/>
      <point x="590" y="304" type="curve"/>
      <point x="612" y="284"/>
      <point x="651" y="242"/>
      <point x="668" y="217" type="curve"/>
      <point x="761" y="271"/>
      <point x="859" y="356"/>
      <point x="932" y="429" type="curve"/>
      <point x="838" y="506" type="line"/>
    </contour>
  </outline>
</glyph>
<glyph name="ety085_cid11154_EL" format="1">
  <advance width="1000"/>
  <outline>
    <contour>
      <point x="517" y="138" type="curve"/>
      <point x="517" y="599" type="line"/>
      <point x="487" y="599" type="line"/>
      <point x="487" y="138" type="line"/>
      <point x="487" y="126"/>
      <point x="483" y="122"/>
      <point x="470" y="121" type="curve"/>
      <point x="456" y="120"/>
      <point x="410" y="120"/>
      <point x="351" y="122" type="curve"/>
      <point x="357" y="112"/>
      <point x="362" y="100"/>
      <point x="364" y="92" type="curve"/>
      <point x="430" y="92"/>
      <point x="471" y="92"/>
      <point x="490" y="97" type="curve"/>
      <point x="510" y="103"/>
      <point x="517" y="114"/>
    </contour>
    <contour>
      <point x="767" y="781" type="line"/>
      <point x="760" y="781" type="line"/>
      <point x="760" y="774" type="line"/>
      <point x="696" y="713"/>
      <point x="579" y="640"/>
      <point x="487" y="600" type="curve"/>
      <point x="494" y="595"/>
      <point x="502" y="587"/>
      <point x="507" y="580" type="curve"/>
      <point x="600" y="623"/>
      <point x="720" y="696"/>
      <point x="795" y="768" type="curve"/>
      <point x="773" y="783" type="line"/>
    </contour>
  </outline>
</glyph>
<glyph name="ety086_cid11155_EL" format="1">
  <advance width="1000"/>
  <outline>
    <contour>
      <point x="517" y="118" type="curve"/>
      <point x="517" y="599" type="line"/>
      <point x="487" y="599" type="line"/>
      <point x="487" y="117" type="line"/>
      <point x="487" y="104"/>
      <point x="483" y="100"/>
      <point x="470" y="100" type="curve"/>
      <point x="456" y="99"/>
      <point x="410" y="98"/>
      <point x="351" y="100" type="curve"/>
      <point x="357" y="91"/>
      <point x="362" y="79"/>
      <point x="364" y="71" type="curve"/>
      <point x="430" y="71"/>
      <point x="471" y="71"/>
      <point x="490" y="77" type="curve"/>
      <point x="510" y="82"/>
      <point x="517" y="92"/>
    </contour>
    <contour>
      <point x="767" y="781" type="line"/>
      <point x="760" y="781" type="line"/>
      <point x="760" y="774" type="line"/>
      <point x="696" y="713"/>
      <point x="579" y="640"/>
      <point x="487" y="600" type="curve"/>
      <point x="494" y="595"/>
      <point x="502" y="587"/>
      <point x="507" y="580" type="curve"/>
      <point x="600" y="623"/>
      <point x="720" y="696"/>
      <point x="795" y="768" type="curve"/>
      <point x="773" y="783" type="line"/>
    </contour>
  </outline>
</glyph>
<glyph name="ety087_cid11759_EL" format="1">
  <advance width="1000"/>
  <outline>
    <contour>
      <point x="745" y="789" type="line"/>
      <point x="738" y="789" type="line"/>
      <point x="738" y="782" type="line"/>
      <point x="681" y="739"/>
      <point x="575" y="696"/>
      <point x="484" y="672" type="curve"/>
      <point x="491" y="668"/>
      <point x="500" y="659"/>
      <point x="504" y="652" type="curve"/>
      <point x="596" y="678"/>
      <point x="706" y="722"/>
      <point x="774" y="775" type="curve"/>
      <point x="752" y="791" type="line"/>
    </contour>
    <contour>
      <point x="515" y="422" type="curve"/>
      <point x="515" y="671" type="line"/>
      <point x="484" y="671" type="line"/>
      <point x="484" y="421" type="line"/>
      <point x="484" y="411"/>
      <point x="482" y="407"/>
      <point x="469" y="406" type="curve"/>
      <point x="456" y="405"/>
      <point x="418" y="405"/>
      <point x="361" y="407" type="curve"/>
      <point x="366" y="397"/>
      <point x="372" y="386"/>
      <point x="374" y="377" type="curve"/>
      <point x="434" y="377"/>
      <point x="471" y="376"/>
      <point x="490" y="382" type="curve"/>
      <point x="510" y="388"/>
      <point x="515" y="398"/>
    </contour>
  </outline>
</glyph>
<glyph name="ety088_cid11803_EL" format="1">
  <advance width="1000"/>
  <outline>
    <contour>
      <point x="587" y="-20" type="curve"/>
      <point x="587" y="211" type="line"/>
      <point x="558" y="211" type="line"/>
      <point x="558" y="-20" type="line"/>
      <point x="558" y="-33"/>
      <point x="554" y="-37"/>
      <point x="538" y="-38" type="curve"/>
      <point x="522" y="-39"/>
      <point x="468" y="-40"/>
      <point x="393" y="-38" type="curve"/>
      <point x="398" y="-47"/>
      <point x="404" y="-57"/>
      <point x="406" y="-65" type="curve"/>
      <point x="491" y="-65"/>
      <point x="537" y="-65"/>
      <point x="559" y="-60" type="curve"/>
      <point x="581" y="-54"/>
      <point x="587" y="-44"/>
    </contour>
    <contour>
      <point x="805" y="316" type="line"/>
      <point x="798" y="316" type="line"/>
      <point x="798" y="309" type="line"/>
      <point x="743" y="271"/>
      <point x="644" y="232"/>
      <point x="557" y="211" type="curve"/>
      <point x="564" y="206"/>
      <point x="572" y="198"/>
      <point x="576" y="191" type="curve"/>
      <point x="664" y="215"/>
      <point x="768" y="254"/>
      <point x="833" y="302" type="curve"/>
      <point x="812" y="318" type="line"/>
    </contour>
  </outline>
</glyph>
<glyph name="ety089_cid12056_EL" format="1">
  <advance width="1000"/>
  <outline>
    <contour>
      <point x="498" y="-16" type="curve"/>
      <point x="498" y="562" type="line"/>
      <point x="469" y="562" type="line"/>
      <point x="469" y="-16" type="line"/>
      <point x="469" y="-30"/>
      <point x="465" y="-34"/>
      <point x="450" y="-35" type="curve"/>
      <point x="435" y="-36"/>
      <point x="388" y="-36"/>
      <point x="329" y="-35" type="curve"/>
      <point x="334" y="-44"/>
      <point x="339" y="-57"/>
      <point x="341" y="-65" type="curve"/>
      <point x="409" y="-65"/>
      <point x="450" y="-65"/>
      <point x="471" y="-60" type="curve"/>
      <point x="490" y="-54"/>
      <point x="498" y="-43"/>
    </contour>
    <contour>
      <point x="626" y="765" type="line"/>
      <point x="620" y="765" type="line"/>
      <point x="620" y="757" type="line"/>
      <point x="586" y="693"/>
      <point x="524" y="612"/>
      <point x="470" y="563" type="curve"/>
      <point x="476" y="558"/>
      <point x="485" y="551"/>
      <point x="490" y="545" type="curve"/>
      <point x="546" y="597"/>
      <point x="613" y="678"/>
      <point x="654" y="754" type="curve"/>
      <point x="632" y="767" type="line"/>
    </contour>
  </outline>
</glyph>
<glyph name="ety090_cid12324_EL" format="1">
  <advance width="1000"/>
  <outline>
    <contour>
      <point x="663" y="-24" type="curve"/>
      <point x="663" y="220" type="line"/>
      <point x="633" y="220" type="line"/>
      <point x="633" y="-24" type="line"/>
      <point x="633" y="-37"/>
      <point x="629" y="-41"/>
      <point x="614" y="-42" type="curve"/>
      <point x="598" y="-43"/>
      <point x="546" y="-43"/>
      <point x="476" y="-42" type="curve"/>
      <point x="480" y="-51"/>
      <point x="486" y="-61"/>
      <point x="488" y="-68" type="curve"/>
      <point x="570" y="-68"/>
      <point x="614" y="-69"/>
      <point x="635" y="-64" type="curve"/>
      <point x="657" y="-58"/>
      <point x="663" y="-48"/>
    </contour>
    <contour>
      <point x="851" y="329" type="line"/>
      <point x="844" y="329" type="line"/>
      <point x="844" y="323" type="line"/>
      <point x="794" y="284"/>
      <point x="705" y="244"/>
      <point x="633" y="221" type="curve"/>
      <point x="639" y="216"/>
      <point x="647" y="209"/>
      <point x="652" y="204" type="curve"/>
      <point x="724" y="229"/>
      <point x="819" y="270"/>
      <point x="880" y="316" type="curve"/>
      <point x="858" y="331" type="line"/>
    </contour>
  </outline>
</glyph>
<glyph name="ety093_cid13080_H" format="1">
  <advance width="1000"/>
  <outline>
    <contour>
      <point x="314" y="48" type="curve"/>
      <point x="314" y="263" type="line"/>
      <point x="184" y="263" type="line"/>
      <point x="184" y="52" type="line"/>
      <point x="184" y="42"/>
      <point x="181" y="39"/>
      <point x="169" y="39" type="curve"/>
      <point x="158" y="39"/>
      <point x="120" y="39"/>
      <point x="89" y="40" type="curve"/>
      <point x="105" y="7"/>
      <point x="122" y="-44"/>
      <point x="127" y="-80" type="curve"/>
      <point x="185" y="-80"/>
      <point x="231" y="-79"/>
      <point x="268" y="-60" type="curve"/>
      <point x="306" y="-41"/>
      <point x="314" y="-8"/>
    </contour>
    <contour>
      <point x="358" y="400" type="line"/>
      <point x="327" y="400" type="line"/>
      <point x="327" y="379" type="line"/>
      <point x="299" y="345"/>
      <point x="236" y="293"/>
      <point x="185" y="263" type="curve"/>
      <point x="200" y="248"/>
      <point x="230" y="216"/>
      <point x="243" y="197" type="curve"/>
      <point x="317" y="235"/>
      <point x="396" y="291"/>
      <point x="458" y="342" type="curve"/>
      <point x="384" y="406" type="line"/>
    </contour>
  </outline>
</glyph>
<glyph name="ety094_cid13585_EL" format="1">
  <advance width="1000"/>
  <outline>
    <contour>
      <point x="851" y="351" type="line"/>
      <point x="843" y="351" type="line"/>
      <point x="843" y="344" type="line"/>
      <point x="795" y="306"/>
      <point x="709" y="266"/>
      <point x="636" y="242" type="curve"/>
      <point x="643" y="237"/>
      <point x="652" y="229"/>
      <point x="657" y="223" type="curve"/>
      <point x="730" y="247"/>
      <point x="822" y="289"/>
      <point x="881" y="337" type="curve"/>
      <point x="858" y="353" type="line"/>
    </contour>
    <contour>
      <point x="666" y="-20" type="curve"/>
      <point x="666" y="241" type="line"/>
      <point x="636" y="241" type="line"/>
      <point x="636" y="-21" type="line"/>
      <point x="636" y="-33"/>
      <point x="633" y="-36"/>
      <point x="619" y="-37" type="curve"/>
      <point x="604" y="-38"/>
      <point x="557" y="-39"/>
      <point x="492" y="-37" type="curve"/>
      <point x="497" y="-46"/>
      <point x="503" y="-57"/>
      <point x="505" y="-65" type="curve"/>
      <point x="577" y="-65"/>
      <point x="619" y="-65"/>
      <point x="640" y="-60" type="curve"/>
      <point x="660" y="-54"/>
      <point x="666" y="-44"/>
    </contour>
  </outline>
</glyph>
<glyph name="ety095_cid13799_EL" format="1">
  <advance width="1000"/>
  <outline>
    <contour>
      <point x="293" y="246" type="curve"/>
      <point x="293" y="388" type="line"/>
      <point x="264" y="388" type="line"/>
      <point x="264" y="246" type="line"/>
      <point x="264" y="237"/>
      <point x="262" y="233"/>
      <point x="249" y="232" type="curve"/>
      <point x="235" y="231"/>
      <point x="199" y="231"/>
      <point x="141" y="232" type="curve"/>
      <point x="147" y="224"/>
      <point x="152" y="214"/>
      <point x="154" y="205" type="curve"/>
      <point x="216" y="205"/>
      <point x="251" y="205"/>
      <point x="271" y="211" type="curve"/>
      <point x="289" y="216"/>
      <point x="293" y="226"/>
    </contour>
    <contour>
      <point x="425" y="486" type="line"/>
      <point x="416" y="486" type="line"/>
      <point x="416" y="478" type="line"/>
      <point x="378" y="447"/>
      <point x="313" y="412"/>
      <point x="265" y="389" type="curve"/>
      <point x="271" y="385"/>
      <point x="280" y="378"/>
      <point x="284" y="374" type="curve"/>
      <point x="335" y="396"/>
      <point x="408" y="431"/>
      <point x="459" y="470" type="curve"/>
      <point x="433" y="488" type="line"/>
    </contour>
  </outline>
</glyph>
<glyph name="ety097_cid15424_H" format="1">
  <advance width="1000"/>
  <outline>
    <contour>
      <point x="785" y="43" type="curve"/>
      <point x="785" y="253" type="line"/>
      <point x="649" y="253" type="line"/>
      <point x="649" y="47" type="line"/>
      <point x="649" y="36"/>
      <point x="645" y="34"/>
      <point x="632" y="34" type="curve"/>
      <point x="619" y="33"/>
      <point x="572" y="33"/>
      <point x="538" y="35" type="curve"/>
      <point x="554" y="-1"/>
      <point x="570" y="-53"/>
      <point x="575" y="-91" type="curve"/>
      <point x="641" y="-91"/>
      <point x="692" y="-90"/>
      <point x="733" y="-71" type="curve"/>
      <point x="775" y="-51"/>
      <point x="785" y="-17"/>
    </contour>
    <contour>
      <point x="813" y="419" type="line"/>
      <point x="781" y="419" type="line"/>
      <point x="781" y="395" type="line"/>
      <point x="757" y="355"/>
      <point x="699" y="290"/>
      <point x="650" y="253" type="curve"/>
      <point x="670" y="234"/>
      <point x="706" y="196"/>
      <point x="723" y="171" type="curve"/>
      <point x="793" y="219"/>
      <point x="869" y="294"/>
      <point x="925" y="361" type="curve"/>
      <point x="840" y="426" type="line"/>
    </contour>
  </outline>
</glyph>
<glyph name="ety098_cid15425_EL" format="1">
  <advance width="1000"/>
  <outline>
    <contour>
      <point x="722" y="-25" type="curve"/>
      <point x="722" y="272" type="line"/>
      <point x="693" y="272" type="line"/>
      <point x="693" y="-25" type="line"/>
      <point x="693" y="-37"/>
      <point x="689" y="-40"/>
      <point x="676" y="-41" type="curve"/>
      <point x="663" y="-42"/>
      <point x="618" y="-42"/>
      <point x="561" y="-41" type="curve"/>
      <point x="566" y="-49"/>
      <point x="569" y="-60"/>
      <point x="570" y="-66" type="curve"/>
      <point x="638" y="-67"/>
      <point x="680" y="-67"/>
      <point x="699" y="-62" type="curve"/>
      <point x="718" y="-57"/>
      <point x="722" y="-47"/>
    </contour>
    <contour>
      <point x="848" y="406" type="line"/>
      <point x="841" y="406" type="line"/>
      <point x="841" y="399" type="line"/>
      <point x="807" y="356"/>
      <point x="745" y="304"/>
      <point x="693" y="273" type="curve"/>
      <point x="700" y="269"/>
      <point x="708" y="262"/>
      <point x="713" y="256" type="curve"/>
      <point x="766" y="289"/>
      <point x="832" y="341"/>
      <point x="875" y="394" type="curve"/>
      <point x="854" y="408" type="line"/>
    </contour>
  </outline>
</glyph>
<glyph name="ety100_cid15432_EL" format="1">
  <advance width="1000"/>
  <outline>
    <contour>
      <point x="285" y="-29" type="curve"/>
      <point x="285" y="239" type="line"/>
      <point x="256" y="239" type="line"/>
      <point x="256" y="-29" type="line"/>
      <point x="256" y="-40"/>
      <point x="252" y="-43"/>
      <point x="240" y="-44" type="curve"/>
      <point x="228" y="-44"/>
      <point x="185" y="-44"/>
      <point x="133" y="-43" type="curve"/>
      <point x="137" y="-51"/>
      <point x="142" y="-62"/>
      <point x="144" y="-69" type="curve"/>
      <point x="210" y="-69"/>
      <point x="244" y="-69"/>
      <point x="263" y="-64" type="curve"/>
      <point x="280" y="-59"/>
      <point x="285" y="-50"/>
    </contour>
    <contour>
      <point x="440" y="357" type="line"/>
      <point x="433" y="357" type="line"/>
      <point x="433" y="350" type="line"/>
      <point x="393" y="311"/>
      <point x="319" y="267"/>
      <point x="256" y="240" type="curve"/>
      <point x="263" y="235"/>
      <point x="271" y="228"/>
      <point x="277" y="222" type="curve"/>
      <point x="340" y="249"/>
      <point x="419" y="295"/>
      <point x="470" y="344" type="curve"/>
      <point x="447" y="359" type="line"/>
    </contour>
  </outline>
</glyph>
<glyph name="ety101_cid15438_H" format="1">
  <advance width="1000"/>
  <outline>
    <contour>
      <point x="776" y="345" type="curve"/>
      <point x="776" y="474" type="line"/>
      <point x="658" y="474" type="line"/>
      <point x="658" y="349" type="line"/>
      <point x="658" y="340"/>
      <point x="654" y="337"/>
      <point x="644" y="337" type="curve"/>
      <point x="635" y="337"/>
      <point x="602" y="337"/>
      <point x="577" y="338" type="curve"/>
      <point x="590" y="316"/>
      <point x="606" y="282"/>
      <point x="614" y="254" type="curve"/>
      <point x="665" y="254"/>
      <point x="703" y="255"/>
      <point x="735" y="267" type="curve"/>
      <point x="768" y="280"/>
      <point x="776" y="299"/>
    </contour>
    <contour>
      <point x="828" y="574" type="line"/>
      <point x="799" y="574" type="line"/>
      <point x="799" y="555" type="line"/>
      <point x="770" y="530"/>
      <point x="708" y="495"/>
      <point x="658" y="475" type="curve"/>
      <point x="672" y="461"/>
      <point x="699" y="431"/>
      <point x="711" y="413" type="curve"/>
      <point x="781" y="441"/>
      <point x="858" y="480"/>
      <point x="919" y="519" type="curve"/>
      <point x="852" y="580" type="line"/>
    </contour>
  </outline>
</glyph>
<glyph name="ety102_cid15557_H" format="1">
  <advance width="1000"/>
  <outline>
    <contour>
      <point x="615" y="30" type="curve"/>
      <point x="615" y="217" type="line"/>
      <point x="472" y="217" type="line"/>
      <point x="472" y="34" type="line"/>
      <point x="472" y="23"/>
      <point x="467" y="20"/>
      <point x="452" y="20" type="curve"/>
      <point x="439" y="19"/>
      <point x="383" y="19"/>
      <point x="345" y="21" type="curve"/>
      <point x="363" y="-10"/>
      <point x="385" y="-59"/>
      <point x="393" y="-96" type="curve"/>
      <point x="460" y="-96"/>
      <point x="513" y="-95"/>
      <point x="558" y="-78" type="curve"/>
      <point x="602" y="-60"/>
      <point x="615" y="-31"/>
    </contour>
    <contour>
      <point x="708" y="345" type="line"/>
      <point x="671" y="345" type="line"/>
      <point x="671" y="320" type="line"/>
      <point x="633" y="290"/>
      <point x="544" y="242"/>
      <point x="472" y="216" type="curve"/>
      <point x="489" y="199"/>
      <point x="522" y="162"/>
      <point x="537" y="139" type="curve"/>
      <point x="637" y="174"/>
      <point x="739" y="224"/>
      <point x="824" y="272" type="curve"/>
      <point x="739" y="352" type="line"/>
    </contour>
  </outline>
</glyph>
<glyph name="ety104_cid16966_H" format="1">
  <advance width="1000"/>
  <outline>
    <contour>
      <point x="763" y="319" type="line"/>
      <point x="732" y="319" type="line"/>
      <point x="732" y="297" type="line"/>
      <point x="699" y="266"/>
      <point x="622" y="220"/>
      <point x="560" y="194" type="curve"/>
      <point x="577" y="178"/>
      <point x="607" y="144"/>
      <point x="621" y="122" type="curve"/>
      <point x="705" y="157"/>
      <point x="796" y="209"/>
      <point x="865" y="259" type="curve"/>
      <point x="789" y="325" type="line"/>
    </contour>
    <contour>
      <point x="695" y="30" type="curve"/>
      <point x="695" y="195" type="line"/>
      <point x="560" y="195" type="line"/>
      <point x="560" y="35" type="line"/>
      <point x="560" y="23"/>
      <point x="555" y="20"/>
      <point x="539" y="19" type="curve"/>
      <point x="524" y="19"/>
      <point x="461" y="19"/>
      <point x="417" y="21" type="curve"/>
      <point x="433" y="-9"/>
      <point x="453" y="-55"/>
      <point x="460" y="-89" type="curve"/>
      <point x="534" y="-89"/>
      <point x="591" y="-89"/>
      <point x="636" y="-73" type="curve"/>
      <point x="681" y="-57"/>
      <point x="695" y="-29"/>
    </contour>
  </outline>
</glyph>
<glyph name="ety105_cid17832_H" format="1">
  <advance width="1000"/>
  <outline>
    <contour>
      <point x="767" y="448" type="line"/>
      <point x="729" y="448" type="line"/>
      <point x="729" y="421" type="line"/>
      <point x="703" y="385"/>
      <point x="640" y="322"/>
      <point x="588" y="287" type="curve"/>
      <point x="608" y="268"/>
      <point x="645" y="227"/>
      <point x="662" y="203" type="curve"/>
      <point x="742" y="249"/>
      <point x="825" y="318"/>
      <point x="889" y="378" type="curve"/>
      <point x="799" y="456" type="line"/>
    </contour>
    <contour>
      <point x="728" y="42" type="curve"/>
      <point x="728" y="286" type="line"/>
      <point x="588" y="286" type="line"/>
      <point x="588" y="46" type="line"/>
      <point x="588" y="35"/>
      <point x="584" y="32"/>
      <point x="569" y="32" type="curve"/>
      <point x="556" y="32"/>
      <point x="504" y="32"/>
      <point x="467" y="34" type="curve"/>
      <point x="484" y="-2"/>
      <point x="501" y="-56"/>
      <point x="506" y="-94" type="curve"/>
      <point x="576" y="-94"/>
      <point x="631" y="-93"/>
      <point x="674" y="-74" type="curve"/>
      <point x="718" y="-55"/>
      <point x="728" y="-20"/>
    </contour>
  </outline>
</glyph>
<glyph name="ety106_cid17836_EL" format="1">
  <advance width="1000"/>
  <outline>
    <contour>
      <point x="645" y="-21" type="curve"/>
      <point x="645" y="206" type="line"/>
      <point x="616" y="206" type="line"/>
      <point x="616" y="-21" type="line"/>
      <point x="616" y="-34"/>
      <point x="612" y="-38"/>
      <point x="596" y="-39" type="curve"/>
      <point x="580" y="-40"/>
      <point x="528" y="-40"/>
      <point x="458" y="-38" type="curve"/>
      <point x="463" y="-47"/>
      <point x="469" y="-57"/>
      <point x="471" y="-65" type="curve"/>
      <point x="552" y="-65"/>
      <point x="596" y="-65"/>
      <point x="619" y="-60" type="curve"/>
      <point x="639" y="-55"/>
      <point x="645" y="-44"/>
    </contour>
    <contour>
      <point x="868" y="320" type="line"/>
      <point x="861" y="320" type="line"/>
      <point x="861" y="313" type="line"/>
      <point x="802" y="273"/>
      <point x="699" y="230"/>
      <point x="616" y="207" type="curve"/>
      <point x="622" y="202"/>
      <point x="629" y="195"/>
      <point x="634" y="189" type="curve"/>
      <point x="719" y="214"/>
      <point x="826" y="257"/>
      <point x="897" y="306" type="curve"/>
      <point x="875" y="322" type="line"/>
    </contour>
  </outline>
</glyph>
<glyph name="ety108_cid17997_EL" format="1">
  <advance width="1000"/>
  <outline>
    <contour>
      <point x="646" y="-18" type="curve"/>
      <point x="646" y="215" type="line"/>
      <point x="617" y="215" type="line"/>
      <point x="617" y="-18" type="line"/>
      <point x="617" y="-29"/>
      <point x="614" y="-33"/>
      <point x="600" y="-34" type="curve"/>
      <point x="585" y="-35"/>
      <point x="541" y="-35"/>
      <point x="478" y="-34" type="curve"/>
      <point x="483" y="-43"/>
      <point x="489" y="-54"/>
      <point x="490" y="-62" type="curve"/>
      <point x="560" y="-62"/>
      <point x="600" y="-63"/>
      <point x="621" y="-57" type="curve"/>
      <point x="641" y="-51"/>
      <point x="646" y="-41"/>
    </contour>
    <contour>
      <point x="826" y="320" type="line"/>
      <point x="819" y="320" type="line"/>
      <point x="819" y="313" type="line"/>
      <point x="774" y="276"/>
      <point x="690" y="237"/>
      <point x="618" y="215" type="curve"/>
      <point x="623" y="210"/>
      <point x="632" y="201"/>
      <point x="637" y="195" type="curve"/>
      <point x="711" y="219"/>
      <point x="799" y="260"/>
      <point x="856" y="307" type="curve"/>
      <point x="833" y="322" type="line"/>
    </contour>
  </outline>
</glyph>
<glyph name="ety109_cid18315_H" format="1">
  <advance width="1000"/>
  <outline>
    <contour>
      <point x="352" y="283" type="curve"/>
      <point x="352" y="420" type="line"/>
      <point x="221" y="420" type="line"/>
      <point x="221" y="289" type="line"/>
      <point x="221" y="278"/>
      <point x="217" y="275"/>
      <point x="205" y="275" type="curve"/>
      <point x="194" y="275"/>
      <point x="149" y="275"/>
      <point x="118" y="276" type="curve"/>
      <point x="132" y="248"/>
      <point x="147" y="209"/>
      <point x="153" y="178" type="curve"/>
      <point x="216" y="178"/>
      <point x="265" y="178"/>
      <point x="303" y="192" type="curve"/>
      <point x="342" y="206"/>
      <point x="352" y="230"/>
    </contour>
    <contour>
      <point x="427" y="516" type="line"/>
      <point x="398" y="516" type="line"/>
      <point x="398" y="497" type="line"/>
      <point x="361" y="472"/>
      <point x="284" y="439"/>
      <point x="223" y="420" type="curve"/>
      <point x="237" y="407"/>
      <point x="262" y="379"/>
      <point x="273" y="361" type="curve"/>
      <point x="355" y="386"/>
      <point x="445" y="422"/>
      <point x="517" y="460" type="curve"/>
      <point x="451" y="522" type="line"/>
    </contour>
  </outline>
</glyph>
<glyph name="ety110_cid18317_EL" format="1">
  <advance width="1000"/>
  <outline>
    <contour>
      <point x="491" y="-26" type="curve"/>
      <point x="491" y="243" type="line"/>
      <point x="462" y="243" type="line"/>
      <point x="462" y="-26" type="line"/>
      <point x="462" y="-36"/>
      <point x="460" y="-39"/>
      <point x="448" y="-40" type="curve"/>
      <point x="436" y="-41"/>
      <point x="402" y="-41"/>
      <point x="353" y="-39" type="curve"/>
      <point x="358" y="-49"/>
      <point x="364" y="-60"/>
      <point x="366" y="-67" type="curve"/>
      <point x="420" y="-67"/>
      <point x="452" y="-68"/>
      <point x="470" y="-63" type="curve"/>
      <point x="486" y="-57"/>
      <point x="491" y="-47"/>
    </contour>
    <contour>
      <point x="595" y="357" type="line"/>
      <point x="588" y="357" type="line"/>
      <point x="588" y="350" type="line"/>
      <point x="560" y="314"/>
      <point x="508" y="271"/>
      <point x="462" y="244" type="curve"/>
      <point x="469" y="239"/>
      <point x="476" y="232"/>
      <point x="481" y="227" type="curve"/>
      <point x="528" y="255"/>
      <point x="585" y="299"/>
      <point x="622" y="345" type="curve"/>
      <point x="601" y="359" type="line"/>
    </contour>
  </outline>
</glyph>
<glyph name="ety111_cid18720_H" format="1">
  <advance width="1000"/>
  <outline>
    <contour>
      <point x="577" y="63" type="curve"/>
      <point x="577" y="624" type="line"/>
      <point x="429" y="624" type="line"/>
      <point x="429" y="65" type="line"/>
      <point x="429" y="50"/>
      <point x="423" y="46"/>
      <point x="406" y="45" type="curve"/>
      <point x="389" y="45"/>
      <point x="332" y="45"/>
      <point x="286" y="48" type="curve"/>
      <point x="306" y="10"/>
      <point x="328" y="-50"/>
      <point x="335" y="-90" type="curve"/>
      <point x="414" y="-90"/>
      <point x="473" y="-87"/>
      <point x="518" y="-65" type="curve"/>
      <point x="564" y="-43"/>
      <point x="577" y="-7"/>
    </contour>
    <contour>
      <point x="697" y="839" type="line"/>
      <point x="660" y="839" type="line"/>
      <point x="660" y="810" type="line"/>
      <point x="621" y="753"/>
      <point x="523" y="670"/>
      <point x="428" y="624" type="curve"/>
      <point x="452" y="602"/>
      <point x="491" y="560"/>
      <point x="510" y="533" type="curve"/>
      <point x="631" y="590"/>
      <point x="746" y="684"/>
      <point x="827" y="774" type="curve"/>
      <point x="729" y="846" type="line"/>
    </contour>
  </outline>
</glyph>
<glyph name="ety112_cid18876_H" format="1">
  <advance width="1000"/>
  <outline>
    <contour>
      <point x="736" y="208" type="curve"/>
      <point x="736" y="645" type="line"/>
      <point x="601" y="645" type="line"/>
      <point x="601" y="210" type="line"/>
      <point x="601" y="199"/>
      <point x="597" y="196"/>
      <point x="586" y="196" type="curve"/>
      <point x="574" y="196"/>
      <point x="539" y="196"/>
      <point x="509" y="197" type="curve"/>
      <point x="527" y="163"/>
      <point x="546" y="109"/>
      <point x="552" y="72" type="curve"/>
      <point x="610" y="72"/>
      <point x="654" y="76"/>
      <point x="690" y="96" type="curve"/>
      <point x="727" y="116"/>
      <point x="736" y="150"/>
    </contour>
    <contour>
      <point x="829" y="835" type="line"/>
      <point x="795" y="835" type="line"/>
      <point x="795" y="809" type="line"/>
      <point x="761" y="760"/>
      <point x="676" y="686"/>
      <point x="602" y="645" type="curve"/>
      <point x="624" y="624"/>
      <point x="662" y="583"/>
      <point x="680" y="557" type="curve"/>
      <point x="775" y="610"/>
      <point x="876" y="695"/>
      <point x="947" y="773" type="curve"/>
      <point x="857" y="842" type="line"/>
    </contour>
  </outline>
</glyph>
<glyph name="ety113_cid19205_EL" format="1">
  <advance width="1000"/>
  <outline>
    <contour>
      <point x="673" y="386" type="curve"/>
      <point x="673" y="658" type="line"/>
      <point x="644" y="658" type="line"/>
      <point x="644" y="386" type="line"/>
      <point x="644" y="376"/>
      <point x="641" y="372"/>
      <point x="627" y="371" type="curve"/>
      <point x="613" y="370"/>
      <point x="574" y="369"/>
      <point x="513" y="371" type="curve"/>
      <point x="519" y="362"/>
      <point x="526" y="350"/>
      <point x="529" y="341" type="curve"/>
      <point x="594" y="341"/>
      <point x="627" y="341"/>
      <point x="647" y="348" type="curve"/>
      <point x="668" y="354"/>
      <point x="673" y="365"/>
    </contour>
    <contour>
      <point x="850" y="792" type="line"/>
      <point x="843" y="792" type="line"/>
      <point x="843" y="785" type="line"/>
      <point x="795" y="741"/>
      <point x="710" y="689"/>
      <point x="644" y="659" type="curve"/>
      <point x="650" y="654"/>
      <point x="659" y="646"/>
      <point x="664" y="640" type="curve"/>
      <point x="730" y="672"/>
      <point x="819" y="725"/>
      <point x="878" y="779" type="curve"/>
      <point x="857" y="794" type="line"/>
    </contour>
  </outline>
</glyph>
<glyph name="ety114_cid19347_EL" format="1">
  <advance width="1000"/>
  <outline>
    <contour>
      <point x="416" y="-29" type="curve"/>
      <point x="416" y="525" type="line"/>
      <point x="386" y="525" type="line"/>
      <point x="386" y="-29" type="line"/>
      <point x="386" y="-39"/>
      <point x="383" y="-41"/>
      <point x="375" y="-42" type="curve"/>
      <point x="366" y="-42"/>
      <point x="338" y="-42"/>
      <point x="304" y="-41" type="curve"/>
      <point x="309" y="-50"/>
      <point x="315" y="-63"/>
      <point x="317" y="-70" type="curve"/>
      <point x="357" y="-70"/>
      <point x="381" y="-70"/>
      <point x="396" y="-65" type="curve"/>
      <point x="411" y="-59"/>
      <point x="416" y="-50"/>
    </contour>
    <contour>
      <point x="503" y="757" type="line"/>
      <point x="496" y="757" type="line"/>
      <point x="496" y="749" type="line"/>
      <point x="472" y="678"/>
      <point x="426" y="585"/>
      <point x="387" y="526" type="curve"/>
      <point x="394" y="523"/>
      <point x="403" y="516"/>
      <point x="408" y="511" type="curve"/>
      <point x="449" y="572"/>
      <point x="500" y="664"/>
      <point x="532" y="746" type="curve"/>
      <point x="510" y="759" type="line"/>
    </contour>
  </outline>
</glyph>
<glyph name="ety115_cid19572_H" format="1">
  <advance width="1000"/>
  <outline>
    <contour>
      <point x="347" y="423" type="curve"/>
      <point x="347" y="513" type="line"/>
      <point x="219" y="513" type="line"/>
      <point x="219" y="427" type="line"/>
      <point x="219" y="419"/>
      <point x="215" y="417"/>
      <point x="205" y="417" type="curve"/>
      <point x="196" y="417"/>
      <point x="163" y="417"/>
      <point x="138" y="418" type="curve"/>
      <point x="151" y="396"/>
      <point x="165" y="366"/>
      <point x="171" y="342" type="curve"/>
      <point x="226" y="342"/>
      <point x="268" y="342"/>
      <point x="303" y="353" type="curve"/>
      <point x="338" y="364"/>
      <point x="347" y="382"/>
    </contour>
    <contour>
      <point x="406" y="591" type="line"/>
      <point x="377" y="591" type="line"/>
      <point x="377" y="576" type="line"/>
      <point x="344" y="556"/>
      <point x="274" y="530"/>
      <point x="219" y="514" type="curve"/>
      <point x="233" y="504"/>
      <point x="258" y="481"/>
      <point x="270" y="467" type="curve"/>
      <point x="345" y="488"/>
      <point x="429" y="516"/>
      <point x="495" y="547" type="curve"/>
      <point x="430" y="595" type="line"/>
    </contour>
  </outline>
</glyph>
<glyph name="ety118_cid19971_EL" format="1">
  <advance width="1000"/>
  <outline>
    <contour>
      <point x="301" y="-26" type="curve"/>
      <point x="301" y="287" type="line"/>
      <point x="272" y="287" type="line"/>
      <point x="272" y="-26" type="line"/>
      <point x="272" y="-38"/>
      <point x="269" y="-41"/>
      <point x="255" y="-42" type="curve"/>
      <point x="240" y="-43"/>
      <point x="199" y="-44"/>
      <point x="138" y="-42" type="curve"/>
      <point x="144" y="-52"/>
      <point x="149" y="-63"/>
      <point x="151" y="-71" type="curve"/>
      <point x="216" y="-71"/>
      <point x="256" y="-71"/>
      <point x="276" y="-65" type="curve"/>
      <point x="295" y="-60"/>
      <point x="301" y="-50"/>
    </contour>
    <contour>
      <point x="448" y="425" type="line"/>
      <point x="441" y="425" type="line"/>
      <point x="441" y="419" type="line"/>
      <point x="403" y="374"/>
      <point x="333" y="320"/>
      <point x="272" y="288" type="curve"/>
      <point x="279" y="283"/>
      <point x="287" y="276"/>
      <point x="292" y="270" type="curve"/>
      <point x="354" y="304"/>
      <point x="428" y="358"/>
      <point x="476" y="414" type="curve"/>
      <point x="454" y="427" type="line"/>
    </contour>
  </outline>
</glyph>
<glyph name="ety119_cid19989_EL" format="1">
  <advance width="1000"/>
  <outline>
    <contour>
      <point x="321" y="-16" type="curve"/>
      <point x="321" y="237" type="line"/>
      <point x="291" y="237" type="line"/>
      <point x="291" y="-17" type="line"/>
      <point x="291" y="-28"/>
      <point x="288" y="-32"/>
      <point x="274" y="-33" type="curve"/>
      <point x="259" y="-34"/>
      <point x="215" y="-34"/>
      <point x="151" y="-32" type="curve"/>
      <point x="157" y="-42"/>
      <point x="162" y="-53"/>
      <point x="164" y="-61" type="curve"/>
      <point x="233" y="-61"/>
      <point x="275" y="-62"/>
      <point x="295" y="-56" type="curve"/>
      <point x="316" y="-50"/>
      <point x="321" y="-40"/>
    </contour>
    <contour>
      <point x="445" y="351" type="line"/>
      <point x="438" y="351" type="line"/>
      <point x="438" y="344" type="line"/>
      <point x="405" y="307"/>
      <point x="344" y="264"/>
      <point x="290" y="238" type="curve"/>
      <point x="297" y="233"/>
      <point x="305" y="227"/>
      <point x="310" y="221" type="curve"/>
      <point x="365" y="248"/>
      <point x="429" y="292"/>
      <point x="472" y="339" type="curve"/>
      <point x="451" y="353" type="line"/>
    </contour>
  </outline>
</glyph>
<glyph name="ety121_cid21263_EL" format="1">
  <advance width="1000"/>
  <outline>
    <contour>
      <point x="672" y="-26" type="curve"/>
      <point x="672" y="327" type="line"/>
      <point x="642" y="327" type="line"/>
      <point x="642" y="-26" type="line"/>
      <point x="642" y="-37"/>
      <point x="639" y="-40"/>
      <point x="626" y="-41" type="curve"/>
      <point x="615" y="-42"/>
      <point x="575" y="-42"/>
      <point x="524" y="-41" type="curve"/>
      <point x="529" y="-49"/>
      <point x="534" y="-61"/>
      <point x="536" y="-68" type="curve"/>
      <point x="596" y="-68"/>
      <point x="630" y="-68"/>
      <point x="649" y="-64" type="curve"/>
      <point x="667" y="-58"/>
      <point x="672" y="-48"/>
    </contour>
    <contour>
      <point x="832" y="488" type="line"/>
      <point x="825" y="488" type="line"/>
      <point x="825" y="481" type="line"/>
      <point x="783" y="428"/>
      <point x="707" y="365"/>
      <point x="643" y="327" type="curve"/>
      <point x="649" y="323"/>
      <point x="657" y="316"/>
      <point x="662" y="310" type="curve"/>
      <point x="727" y="350"/>
      <point x="809" y="414"/>
      <point x="860" y="476" type="curve"/>
      <point x="839" y="490" type="line"/>
    </contour>
  </outline>
</glyph>
<glyph name="ety122_cid21460_EL" format="1">
  <advance width="1000"/>
  <outline>
    <contour>
      <point x="667" y="-14" type="curve"/>
      <point x="667" y="560" type="line"/>
      <point x="639" y="560" type="line"/>
      <point x="639" y="-15" type="line"/>
      <point x="639" y="-28"/>
      <point x="635" y="-32"/>
      <point x="622" y="-33" type="curve"/>
      <point x="609" y="-34"/>
      <point x="564" y="-34"/>
      <point x="508" y="-32" type="curve"/>
      <point x="513" y="-42"/>
      <point x="518" y="-54"/>
      <point x="520" y="-63" type="curve"/>
      <point x="584" y="-63"/>
      <point x="623" y="-63"/>
      <point x="641" y="-57" type="curve"/>
      <point x="660" y="-51"/>
      <point x="667" y="-40"/>
    </contour>
    <contour>
      <point x="768" y="744" type="line"/>
      <point x="762" y="744" type="line"/>
      <point x="762" y="737" type="line"/>
      <point x="739" y="680"/>
      <point x="695" y="609"/>
      <point x="653" y="565" type="curve"/>
      <point x="661" y="562"/>
      <point x="673" y="554"/>
      <point x="679" y="549" type="curve"/>
      <point x="721" y="594"/>
      <point x="766" y="666"/>
      <point x="793" y="732" type="curve"/>
      <point x="773" y="746" type="line"/>
    </contour>
  </outline>
</glyph>
<glyph name="ety122_cid21519_EL" format="1">
  <advance width="1000"/>
  <outline>
    <contour>
      <point x="842" y="351" type="line"/>
      <point x="834" y="351" type="line"/>
      <point x="834" y="344" type="line"/>
      <point x="786" y="306"/>
      <point x="700" y="266"/>
      <point x="627" y="242" type="curve"/>
      <point x="634" y="237"/>
      <point x="643" y="229"/>
      <point x="648" y="223" type="curve"/>
      <point x="721" y="247"/>
      <point x="814" y="289"/>
      <point x="872" y="337" type="curve"/>
      <point x="849" y="353" type="line"/>
    </contour>
    <contour>
      <point x="657" y="-20" type="curve"/>
      <point x="657" y="241" type="line"/>
      <point x="627" y="241" type="line"/>
      <point x="627" y="-21" type="line"/>
      <point x="627" y="-33"/>
      <point x="624" y="-36"/>
      <point x="610" y="-37" type="curve"/>
      <point x="595" y="-38"/>
      <point x="548" y="-39"/>
      <point x="483" y="-37" type="curve"/>
      <point x="488" y="-46"/>
      <point x="494" y="-57"/>
      <point x="496" y="-65" type="curve"/>
      <point x="569" y="-65"/>
      <point x="610" y="-65"/>
      <point x="631" y="-60" type="curve"/>
      <point x="651" y="-54"/>
      <point x="657" y="-44"/>
    </contour>
  </outline>
</glyph>
<glyph name="ety123_cid21460_H" format="1">
  <advance width="1000"/>
  <outline>
    <contour>
      <point x="705" y="63" type="curve"/>
      <point x="705" y="518" type="line"/>
      <point x="573" y="518" type="line"/>
      <point x="573" y="66" type="line"/>
      <point x="573" y="52"/>
      <point x="568" y="48"/>
      <point x="553" y="48" type="curve"/>
      <point x="537" y="47"/>
      <point x="482" y="48"/>
      <point x="439" y="50" type="curve"/>
      <point x="456" y="12"/>
      <point x="474" y="-47"/>
      <point x="479" y="-87" type="curve"/>
      <point x="553" y="-87"/>
      <point x="609" y="-84"/>
      <point x="651" y="-64" type="curve"/>
      <point x="694" y="-42"/>
      <point x="705" y="-6"/>
    </contour>
    <contour>
      <point x="729" y="770" type="line"/>
      <point x="698" y="770" type="line"/>
      <point x="698" y="743" type="line"/>
      <point x="684" y="699"/>
      <point x="649" y="621"/>
      <point x="618" y="573" type="curve"/>
      <point x="645" y="556"/>
      <point x="686" y="527"/>
      <point x="711" y="507" type="curve"/>
      <point x="753" y="560"/>
      <point x="808" y="647"/>
      <point x="842" y="710" type="curve"/>
      <point x="750" y="776" type="line"/>
    </contour>
  </outline>
</glyph>
<glyph name="ety124_cid21868_EL" format="1">
  <advance width="1000"/>
  <outline>
    <contour>
      <point x="431" y="-29" type="curve"/>
      <point x="431" y="525" type="line"/>
      <point x="402" y="525" type="line"/>
      <point x="402" y="-29" type="line"/>
      <point x="402" y="-39"/>
      <point x="399" y="-41"/>
      <point x="390" y="-42" type="curve"/>
      <point x="381" y="-42"/>
      <point x="354" y="-42"/>
      <point x="320" y="-41" type="curve"/>
      <point x="325" y="-50"/>
      <point x="330" y="-63"/>
      <point x="332" y="-70" type="curve"/>
      <point x="373" y="-70"/>
      <point x="397" y="-70"/>
      <point x="412" y="-65" type="curve"/>
      <point x="427" y="-59"/>
      <point x="431" y="-50"/>
    </contour>
    <contour>
      <point x="519" y="757" type="line"/>
      <point x="512" y="757" type="line"/>
      <point x="512" y="749" type="line"/>
      <point x="487" y="678"/>
      <point x="441" y="585"/>
      <point x="403" y="526" type="curve"/>
      <point x="410" y="523"/>
      <point x="419" y="516"/>
      <point x="424" y="511" type="curve"/>
      <point x="465" y="572"/>
      <point x="516" y="664"/>
      <point x="548" y="746" type="curve"/>
      <point x="525" y="759" type="line"/>
    </contour>
  </outline>
</glyph>
<glyph name="ety125_cid21519_H" format="1">
  <advance width="1000"/>
  <outline>
    <contour>
      <point x="854" y="363" type="line"/>
      <point x="820" y="363" type="line"/>
      <point x="820" y="339" type="line"/>
      <point x="781" y="307"/>
      <point x="688" y="260"/>
      <point x="613" y="234" type="curve"/>
      <point x="630" y="217"/>
      <point x="663" y="180"/>
      <point x="677" y="158" type="curve"/>
      <point x="776" y="193"/>
      <point x="882" y="245"/>
      <point x="964" y="297" type="curve"/>
      <point x="882" y="370" type="line"/>
    </contour>
    <contour>
      <point x="759" y="34" type="curve"/>
      <point x="759" y="234" type="line"/>
      <point x="617" y="234" type="line"/>
      <point x="617" y="39" type="line"/>
      <point x="617" y="27"/>
      <point x="612" y="24"/>
      <point x="597" y="23" type="curve"/>
      <point x="583" y="23"/>
      <point x="524" y="23"/>
      <point x="485" y="25" type="curve"/>
      <point x="501" y="-9"/>
      <point x="519" y="-58"/>
      <point x="525" y="-95" type="curve"/>
      <point x="598" y="-96"/>
      <point x="656" y="-95"/>
      <point x="701" y="-78" type="curve"/>
      <point x="747" y="-60"/>
      <point x="759" y="-28"/>
    </contour>
  </outline>
</glyph>
<glyph name="ety126_cid22736_EL" format="1">
  <advance width="1000"/>
  <outline>
    <contour>
      <point x="868" y="769" type="line"/>
      <point x="861" y="769" type="line"/>
      <point x="861" y="763" type="line"/>
      <point x="808" y="708"/>
      <point x="710" y="644"/>
      <point x="627" y="608" type="curve"/>
      <point x="633" y="603"/>
      <point x="642" y="595"/>
      <point x="647" y="589" type="curve"/>
      <point x="730" y="627"/>
      <point x="832" y="692"/>
      <point x="896" y="757" type="curve"/>
      <point x="874" y="771" type="line"/>
    </contour>
    <contour>
      <point x="656" y="113" type="curve"/>
      <point x="656" y="608" type="line"/>
      <point x="626" y="608" type="line"/>
      <point x="626" y="112" type="line"/>
      <point x="626" y="100"/>
      <point x="623" y="96"/>
      <point x="611" y="96" type="curve"/>
      <point x="596" y="95"/>
      <point x="554" y="94"/>
      <point x="499" y="96" type="curve"/>
      <point x="504" y="86"/>
      <point x="510" y="74"/>
      <point x="512" y="65" type="curve"/>
      <point x="572" y="65"/>
      <point x="611" y="65"/>
      <point x="630" y="71" type="curve"/>
      <point x="649" y="77"/>
      <point x="656" y="87"/>
    </contour>
  </outline>
</glyph>
<glyph name="ety127_cid22133_EL" format="1">
  <advance width="1000"/>
  <outline>
    <contour>
      <point x="494" y="-26" type="curve"/>
      <point x="494" y="243" type="line"/>
      <point x="465" y="243" type="line"/>
      <point x="465" y="-26" type="line"/>
      <point x="465" y="-36"/>
      <point x="463" y="-39"/>
      <point x="451" y="-40" type="curve"/>
      <point x="439" y="-41"/>
      <point x="405" y="-41"/>
      <point x="356" y="-39" type="curve"/>
      <point x="361" y="-49"/>
      <point x="367" y="-60"/>
      <point x="369" y="-67" type="curve"/>
      <point x="423" y="-67"/>
      <point x="455" y="-68"/>
      <point x="473" y="-63" type="curve"/>
      <point x="489" y="-57"/>
      <point x="494" y="-47"/>
    </contour>
    <contour>
      <point x="598" y="357" type="line"/>
      <point x="591" y="357" type="line"/>
      <point x="591" y="350" type="line"/>
      <point x="563" y="314"/>
      <point x="511" y="271"/>
      <point x="465" y="244" type="curve"/>
      <point x="472" y="239"/>
      <point x="479" y="232"/>
      <point x="484" y="227" type="curve"/>
      <point x="531" y="255"/>
      <point x="588" y="299"/>
      <point x="624" y="345" type="curve"/>
      <point x="604" y="359" type="line"/>
    </contour>
  </outline>
</glyph>
<glyph name="ety127_cid22736_H" format="1">
  <advance width="1000"/>
  <outline>
    <contour>
      <point x="841" y="794" type="line"/>
      <point x="808" y="794" type="line"/>
      <point x="808" y="770" type="line"/>
      <point x="768" y="721"/>
      <point x="673" y="654"/>
      <point x="584" y="617" type="curve"/>
      <point x="605" y="598"/>
      <point x="638" y="561"/>
      <point x="654" y="537" type="curve"/>
      <point x="765" y="584"/>
      <point x="875" y="660"/>
      <point x="953" y="736" type="curve"/>
      <point x="868" y="800" type="line"/>
    </contour>
    <contour>
      <point x="703" y="167" type="curve"/>
      <point x="703" y="616" type="line"/>
      <point x="584" y="616" type="line"/>
      <point x="584" y="170" type="line"/>
      <point x="584" y="158"/>
      <point x="580" y="155"/>
      <point x="567" y="154" type="curve"/>
      <point x="555" y="154"/>
      <point x="513" y="154"/>
      <point x="479" y="156" type="curve"/>
      <point x="492" y="124"/>
      <point x="504" y="79"/>
      <point x="508" y="48" type="curve"/>
      <point x="574" y="48"/>
      <point x="623" y="49"/>
      <point x="658" y="66" type="curve"/>
      <point x="694" y="83"/>
      <point x="703" y="112"/>
    </contour>
  </outline>
</glyph>
<glyph name="ety128_cid23332_EL" format="1">
  <advance width="1000"/>
  <outline>
    <contour>
      <point x="807" y="774" type="line"/>
      <point x="800" y="774" type="line"/>
      <point x="800" y="768" type="line"/>
      <point x="746" y="712"/>
      <point x="648" y="644"/>
      <point x="574" y="605" type="curve"/>
      <point x="581" y="600"/>
      <point x="589" y="592"/>
      <point x="594" y="586" type="curve"/>
      <point x="669" y="627"/>
      <point x="770" y="696"/>
      <point x="835" y="762" type="curve"/>
      <point x="814" y="776" type="line"/>
    </contour>
    <contour>
      <point x="604" y="151" type="curve"/>
      <point x="604" y="604" type="line"/>
      <point x="574" y="604" type="line"/>
      <point x="574" y="150" type="line"/>
      <point x="574" y="138"/>
      <point x="572" y="135"/>
      <point x="559" y="134" type="curve"/>
      <point x="544" y="133"/>
      <point x="503" y="133"/>
      <point x="447" y="134" type="curve"/>
      <point x="452" y="125"/>
      <point x="458" y="112"/>
      <point x="460" y="103" type="curve"/>
      <point x="520" y="103"/>
      <point x="559" y="104"/>
      <point x="578" y="110" type="curve"/>
      <point x="598" y="116"/>
      <point x="604" y="126"/>
    </contour>
  </outline>
</glyph>
<glyph name="ety129_cid23480_EL" format="1">
  <advance width="1000"/>
  <outline>
    <contour>
      <point x="625" y="-26" type="curve"/>
      <point x="625" y="318" type="line"/>
      <point x="596" y="318" type="line"/>
      <point x="596" y="-27" type="line"/>
      <point x="596" y="-38"/>
      <point x="593" y="-41"/>
      <point x="580" y="-41" type="curve"/>
      <point x="569" y="-42"/>
      <point x="529" y="-42"/>
      <point x="477" y="-41" type="curve"/>
      <point x="482" y="-50"/>
      <point x="488" y="-61"/>
      <point x="490" y="-69" type="curve"/>
      <point x="550" y="-69"/>
      <point x="584" y="-69"/>
      <point x="602" y="-64" type="curve"/>
      <point x="621" y="-58"/>
      <point x="625" y="-49"/>
    </contour>
    <contour>
      <point x="795" y="488" type="line"/>
      <point x="788" y="488" type="line"/>
      <point x="788" y="481" type="line"/>
      <point x="744" y="425"/>
      <point x="664" y="359"/>
      <point x="597" y="319" type="curve"/>
      <point x="603" y="315"/>
      <point x="612" y="307"/>
      <point x="617" y="302" type="curve"/>
      <point x="684" y="343"/>
      <point x="770" y="411"/>
      <point x="822" y="476" type="curve"/>
      <point x="802" y="490" type="line"/>
    </contour>
  </outline>
</glyph>
<glyph name="ety132_cid23480_H" format="1">
  <advance width="1000"/>
  <outline>
    <contour>
      <point x="724" y="40" type="curve"/>
      <point x="724" y="303" type="line"/>
      <point x="583" y="303" type="line"/>
      <point x="583" y="45" type="line"/>
      <point x="583" y="31"/>
      <point x="577" y="28"/>
      <point x="558" y="27" type="curve"/>
      <point x="540" y="27"/>
      <point x="467" y="27"/>
      <point x="415" y="30" type="curve"/>
      <point x="434" y="-4"/>
      <point x="456" y="-58"/>
      <point x="463" y="-95" type="curve"/>
      <point x="545" y="-95"/>
      <point x="609" y="-94"/>
      <point x="659" y="-76" type="curve"/>
      <point x="709" y="-58"/>
      <point x="724" y="-25"/>
    </contour>
    <contour>
      <point x="801" y="498" type="line"/>
      <point x="764" y="498" type="line"/>
      <point x="764" y="470" type="line"/>
      <point x="732" y="424"/>
      <point x="651" y="347"/>
      <point x="583" y="304" type="curve"/>
      <point x="605" y="284"/>
      <point x="644" y="242"/>
      <point x="661" y="217" type="curve"/>
      <point x="754" y="271"/>
      <point x="852" y="356"/>
      <point x="925" y="429" type="curve"/>
      <point x="831" y="506" type="line"/>
    </contour>
  </outline>
</glyph>
<glyph name="ety132_cid23527_H" format="1">
  <advance width="1000"/>
  <outline>
    <contour>
      <point x="813" y="415" type="line"/>
      <point x="779" y="415" type="line"/>
      <point x="779" y="391" type="line"/>
      <point x="745" y="354"/>
      <point x="666" y="297"/>
      <point x="600" y="266" type="curve"/>
      <point x="619" y="248"/>
      <point x="652" y="211"/>
      <point x="667" y="189" type="curve"/>
      <point x="756" y="230"/>
      <point x="850" y="293"/>
      <point x="923" y="351" type="curve"/>
      <point x="840" y="422" type="line"/>
    </contour>
    <contour>
      <point x="742" y="44" type="curve"/>
      <point x="742" y="266" type="line"/>
      <point x="601" y="266" type="line"/>
      <point x="601" y="48" type="line"/>
      <point x="601" y="36"/>
      <point x="597" y="34"/>
      <point x="582" y="34" type="curve"/>
      <point x="567" y="33"/>
      <point x="513" y="33"/>
      <point x="473" y="35" type="curve"/>
      <point x="491" y="-1"/>
      <point x="511" y="-57"/>
      <point x="517" y="-96" type="curve"/>
      <point x="586" y="-96"/>
      <point x="641" y="-95"/>
      <point x="685" y="-75" type="curve"/>
      <point x="731" y="-55"/>
      <point x="742" y="-20"/>
    </contour>
  </outline>
</glyph>
<glyph name="ety134_cid23563_H" format="1">
  <advance width="1000"/>
  <outline>
    <contour>
      <point x="744" y="41" type="curve"/>
      <point x="744" y="221" type="line"/>
      <point x="597" y="221" type="line"/>
      <point x="597" y="46" type="line"/>
      <point x="597" y="35"/>
      <point x="592" y="32"/>
      <point x="578" y="32" type="curve"/>
      <point x="565" y="32"/>
      <point x="512" y="32"/>
      <point x="475" y="34" type="curve"/>
      <point x="493" y="-1"/>
      <point x="511" y="-52"/>
      <point x="517" y="-90" type="curve"/>
      <point x="587" y="-90"/>
      <point x="642" y="-90"/>
      <point x="687" y="-72" type="curve"/>
      <point x="733" y="-53"/>
      <point x="744" y="-20"/>
    </contour>
    <contour>
      <point x="819" y="370" type="line"/>
      <point x="780" y="370" type="line"/>
      <point x="780" y="344" type="line"/>
      <point x="746" y="309"/>
      <point x="666" y="252"/>
      <point x="598" y="221" type="curve"/>
      <point x="616" y="203"/>
      <point x="652" y="166"/>
      <point x="668" y="143" type="curve"/>
      <point x="768" y="183"/>
      <point x="865" y="244"/>
      <point x="942" y="301" type="curve"/>
      <point x="852" y="377" type="line"/>
    </contour>
  </outline>
</glyph>
<glyph name="ety135_cid23563_EL" format="1">
  <advance width="1000"/>
  <outline>
    <contour>
      <point x="663" y="-24" type="curve"/>
      <point x="663" y="224" type="line"/>
      <point x="633" y="224" type="line"/>
      <point x="633" y="-25" type="line"/>
      <point x="633" y="-37"/>
      <point x="629" y="-41"/>
      <point x="614" y="-42" type="curve"/>
      <point x="598" y="-43"/>
      <point x="546" y="-44"/>
      <point x="476" y="-42" type="curve"/>
      <point x="480" y="-51"/>
      <point x="486" y="-61"/>
      <point x="488" y="-69" type="curve"/>
      <point x="570" y="-69"/>
      <point x="614" y="-69"/>
      <point x="635" y="-64" type="curve"/>
      <point x="657" y="-58"/>
      <point x="663" y="-48"/>
    </contour>
    <contour>
      <point x="851" y="329" type="line"/>
      <point x="844" y="329" type="line"/>
      <point x="844" y="323" type="line"/>
      <point x="794" y="286"/>
      <point x="705" y="247"/>
      <point x="633" y="225" type="curve"/>
      <point x="639" y="221"/>
      <point x="647" y="213"/>
      <point x="652" y="208" type="curve"/>
      <point x="724" y="231"/>
      <point x="819" y="271"/>
      <point x="880" y="316" type="curve"/>
      <point x="858" y="331" type="line"/>
    </contour>
  </outline>
</glyph>
<glyph name="ety136_cid23588_H" format="1">
  <advance width="1000"/>
  <outline>
    <contour>
      <point x="787" y="806" type="line"/>
      <point x="753" y="806" type="line"/>
      <point x="753" y="780" type="line"/>
      <point x="719" y="729"/>
      <point x="636" y="654"/>
      <point x="559" y="612" type="curve"/>
      <point x="580" y="593"/>
      <point x="616" y="555"/>
      <point x="632" y="530" type="curve"/>
      <point x="734" y="582"/>
      <point x="834" y="667"/>
      <point x="904" y="747" type="curve"/>
      <point x="816" y="813" type="line"/>
    </contour>
    <contour>
      <point x="688" y="196" type="curve"/>
      <point x="688" y="612" type="line"/>
      <point x="558" y="612" type="line"/>
      <point x="558" y="199" type="line"/>
      <point x="558" y="188"/>
      <point x="554" y="185"/>
      <point x="543" y="185" type="curve"/>
      <point x="532" y="185"/>
      <point x="496" y="185"/>
      <point x="468" y="186" type="curve"/>
      <point x="482" y="153"/>
      <point x="498" y="105"/>
      <point x="502" y="71" type="curve"/>
      <point x="562" y="71"/>
      <point x="608" y="73"/>
      <point x="643" y="91" type="curve"/>
      <point x="679" y="110"/>
      <point x="688" y="140"/>
    </contour>
  </outline>
</glyph>
<glyph name="ety137_cid23588_EL" format="1">
  <advance width="1000"/>
  <outline>
    <contour>
      <point x="827" y="784" type="line"/>
      <point x="820" y="784" type="line"/>
      <point x="820" y="777" type="line"/>
      <point x="771" y="718"/>
      <point x="679" y="647"/>
      <point x="599" y="607" type="curve"/>
      <point x="606" y="602"/>
      <point x="615" y="594"/>
      <point x="620" y="587" type="curve"/>
      <point x="700" y="631"/>
      <point x="796" y="702"/>
      <point x="856" y="771" type="curve"/>
      <point x="834" y="786" type="line"/>
    </contour>
    <contour>
      <point x="628" y="143" type="curve"/>
      <point x="628" y="606" type="line"/>
      <point x="599" y="606" type="line"/>
      <point x="599" y="142" type="line"/>
      <point x="599" y="131"/>
      <point x="596" y="129"/>
      <point x="584" y="128" type="curve"/>
      <point x="573" y="128"/>
      <point x="534" y="127"/>
      <point x="486" y="129" type="curve"/>
      <point x="491" y="119"/>
      <point x="497" y="107"/>
      <point x="499" y="98" type="curve"/>
      <point x="554" y="98"/>
      <point x="588" y="98"/>
      <point x="606" y="104" type="curve"/>
      <point x="623" y="110"/>
      <point x="628" y="120"/>
    </contour>
  </outline>
</glyph>
<glyph name="ety139_cid23711_EL" format="1">
  <advance width="1000"/>
  <outline>
    <contour>
      <point x="819" y="351" type="line"/>
      <point x="811" y="351" type="line"/>
      <point x="811" y="344" type="line"/>
      <point x="763" y="306"/>
      <point x="676" y="266"/>
      <point x="604" y="242" type="curve"/>
      <point x="611" y="237"/>
      <point x="620" y="229"/>
      <point x="624" y="223" type="curve"/>
      <point x="698" y="247"/>
      <point x="790" y="289"/>
      <point x="849" y="337" type="curve"/>
      <point x="825" y="353" type="line"/>
    </contour>
    <contour>
      <point x="633" y="-19" type="curve"/>
      <point x="633" y="241" type="line"/>
      <point x="604" y="241" type="line"/>
      <point x="604" y="-19" type="line"/>
      <point x="604" y="-32"/>
      <point x="600" y="-36"/>
      <point x="584" y="-37" type="curve"/>
      <point x="568" y="-39"/>
      <point x="517" y="-39"/>
      <point x="443" y="-37" type="curve"/>
      <point x="449" y="-46"/>
      <point x="454" y="-57"/>
      <point x="456" y="-65" type="curve"/>
      <point x="537" y="-65"/>
      <point x="583" y="-65"/>
      <point x="605" y="-60" type="curve"/>
      <point x="627" y="-54"/>
      <point x="633" y="-44"/>
    </contour>
  </outline>
</glyph>
<glyph name="ety140_cid23785_H" format="1">
  <advance width="1000"/>
  <outline>
    <contour>
      <point x="496" y="38" type="curve"/>
      <point x="496" y="295" type="line"/>
      <point x="369" y="295" type="line"/>
      <point x="369" y="41" type="line"/>
      <point x="369" y="31"/>
      <point x="366" y="28"/>
      <point x="354" y="28" type="curve"/>
      <point x="342" y="28"/>
      <point x="302" y="28"/>
      <point x="269" y="29" type="curve"/>
      <point x="284" y="-6"/>
      <point x="300" y="-56"/>
      <point x="303" y="-92" type="curve"/>
      <point x="365" y="-93"/>
      <point x="412" y="-91"/>
      <point x="449" y="-72" type="curve"/>
      <point x="488" y="-53"/>
      <point x="496" y="-19"/>
    </contour>
    <contour>
      <point x="501" y="453" type="line"/>
      <point x="470" y="453" type="line"/>
      <point x="470" y="430" type="line"/>
      <point x="451" y="393"/>
      <point x="406" y="331"/>
      <point x="369" y="296" type="curve"/>
      <point x="388" y="279"/>
      <point x="421" y="244"/>
      <point x="436" y="221" type="curve"/>
      <point x="495" y="267"/>
      <point x="559" y="337"/>
      <point x="606" y="397" type="curve"/>
      <point x="528" y="460" type="line"/>
    </contour>
  </outline>
</glyph>
<glyph name="ety141_cid23821_H" format="1">
  <advance width="1000"/>
  <outline>
    <contour>
      <point x="873" y="48" type="curve"/>
      <point x="873" y="394" type="line"/>
      <point x="739" y="394" type="line"/>
      <point x="739" y="50" type="line"/>
      <point x="739" y="39"/>
      <point x="735" y="36"/>
      <point x="722" y="36" type="curve"/>
      <point x="709" y="36"/>
      <point x="664" y="36"/>
      <point x="628" y="38" type="curve"/>
      <point x="644" y="0"/>
      <point x="661" y="-55"/>
      <point x="665" y="-94" type="curve"/>
      <point x="732" y="-94"/>
      <point x="783" y="-92"/>
      <point x="823" y="-71" type="curve"/>
      <point x="864" y="-50"/>
      <point x="873" y="-14"/>
    </contour>
    <contour>
      <point x="875" y="552" type="line"/>
      <point x="844" y="552" type="line"/>
      <point x="844" y="529" type="line"/>
      <point x="825" y="490"/>
      <point x="779" y="430"/>
      <point x="739" y="395" type="curve"/>
      <point x="761" y="375"/>
      <point x="798" y="335"/>
      <point x="816" y="309" type="curve"/>
      <point x="874" y="357"/>
      <point x="939" y="431"/>
      <point x="985" y="498" type="curve"/>
      <point x="900" y="559" type="line"/>
    </contour>
  </outline>
</glyph>
<glyph name="ety142_cid24216_H" format="1">
  <advance width="1000"/>
  <outline>
    <contour>
      <point x="523" y="42" type="curve"/>
      <point x="523" y="270" type="line"/>
      <point x="405" y="270" type="line"/>
      <point x="405" y="47" type="line"/>
      <point x="405" y="36"/>
      <point x="402" y="34"/>
      <point x="392" y="33" type="curve"/>
      <point x="382" y="33"/>
      <point x="346" y="33"/>
      <point x="322" y="35" type="curve"/>
      <point x="336" y="-2"/>
      <point x="352" y="-57"/>
      <point x="357" y="-98" type="curve"/>
      <point x="406" y="-98"/>
      <point x="447" y="-96"/>
      <point x="480" y="-76" type="curve"/>
      <point x="515" y="-56"/>
      <point x="523" y="-21"/>
    </contour>
    <contour>
      <point x="547" y="419" type="line"/>
      <point x="523" y="419" type="line"/>
      <point x="523" y="397" type="line"/>
      <point x="504" y="357"/>
      <point x="461" y="294"/>
      <point x="424" y="257" type="curve"/>
      <point x="439" y="241"/>
      <point x="464" y="206"/>
      <point x="476" y="183" type="curve"/>
      <point x="528" y="230"/>
      <point x="585" y="301"/>
      <point x="627" y="364" type="curve"/>
      <point x="566" y="426" type="line"/>
    </contour>
  </outline>
</glyph>
<glyph name="ety145_cid24275_H" format="1">
  <advance width="1000"/>
  <outline>
    <contour>
      <point x="520" y="22" type="curve"/>
      <point x="520" y="258" type="line"/>
      <point x="386" y="258" type="line"/>
      <point x="386" y="26" type="line"/>
      <point x="386" y="16"/>
      <point x="382" y="13"/>
      <point x="370" y="13" type="curve"/>
      <point x="359" y="12"/>
      <point x="320" y="13"/>
      <point x="289" y="14" type="curve"/>
      <point x="304" y="-17"/>
      <point x="320" y="-61"/>
      <point x="325" y="-94" type="curve"/>
      <point x="387" y="-94"/>
      <point x="435" y="-93"/>
      <point x="473" y="-77" type="curve"/>
      <point x="511" y="-60"/>
      <point x="520" y="-32"/>
    </contour>
    <contour>
      <point x="546" y="399" type="line"/>
      <point x="511" y="399" type="line"/>
      <point x="511" y="376" type="line"/>
      <point x="486" y="343"/>
      <point x="430" y="289"/>
      <point x="385" y="258" type="curve"/>
      <point x="401" y="243"/>
      <point x="433" y="209"/>
      <point x="447" y="188" type="curve"/>
      <point x="518" y="227"/>
      <point x="593" y="285"/>
      <point x="653" y="334" type="curve"/>
      <point x="575" y="406" type="line"/>
    </contour>
  </outline>
</glyph>
<glyph name="ety145_cid24389_EL" format="1">
  <advance width="1000"/>
  <outline>
    <contour>
      <point x="605" y="276" type="line"/>
      <point x="598" y="276" type="line"/>
      <point x="598" y="269" type="line"/>
      <point x="572" y="236"/>
      <point x="525" y="199"/>
      <point x="484" y="174" type="curve"/>
      <point x="491" y="171"/>
      <point x="499" y="164"/>
      <point x="504" y="159" type="curve"/>
      <point x="544" y="184"/>
      <point x="597" y="223"/>
      <point x="632" y="264" type="curve"/>
      <point x="611" y="278" type="line"/>
    </contour>
    <contour>
      <point x="515" y="-32" type="curve"/>
      <point x="515" y="174" type="line"/>
      <point x="485" y="174" type="line"/>
      <point x="485" y="-32" type="line"/>
      <point x="485" y="-42"/>
      <point x="483" y="-45"/>
      <point x="472" y="-46" type="curve"/>
      <point x="460" y="-47"/>
      <point x="425" y="-47"/>
      <point x="376" y="-45" type="curve"/>
      <point x="380" y="-54"/>
      <point x="385" y="-65"/>
      <point x="387" y="-72" type="curve"/>
      <point x="443" y="-72"/>
      <point x="476" y="-72"/>
      <point x="493" y="-67" type="curve"/>
      <point x="511" y="-62"/>
      <point x="515" y="-53"/>
    </contour>
  </outline>
</glyph>
<glyph name="ety146_cid24389_EL" format="1">
  <advance width="1000"/>
  <outline>
    <contour>
      <point x="801" y="580" type="line"/>
      <point x="794" y="580" type="line"/>
      <point x="794" y="573" type="line"/>
      <point x="760" y="548"/>
      <point x="698" y="521"/>
      <point x="648" y="504" type="curve"/>
      <point x="655" y="500"/>
      <point x="663" y="492"/>
      <point x="668" y="487" type="curve"/>
      <point x="719" y="504"/>
      <point x="785" y="533"/>
      <point x="830" y="567" type="curve"/>
      <point x="808" y="582" type="line"/>
    </contour>
    <contour>
      <point x="677" y="365" type="curve"/>
      <point x="677" y="503" type="line"/>
      <point x="648" y="503" type="line"/>
      <point x="648" y="365" type="line"/>
      <point x="648" y="355"/>
      <point x="646" y="352"/>
      <point x="634" y="352" type="curve"/>
      <point x="622" y="351"/>
      <point x="586" y="351"/>
      <point x="534" y="352" type="curve"/>
      <point x="539" y="343"/>
      <point x="544" y="333"/>
      <point x="546" y="326" type="curve"/>
      <point x="605" y="326"/>
      <point x="638" y="325"/>
      <point x="656" y="330" type="curve"/>
      <point x="673" y="336"/>
      <point x="677" y="345"/>
    </contour>
  </outline>
</glyph>
<glyph name="ety148_cid25063_EL" format="1">
  <advance width="1000"/>
  <outline>
    <contour>
      <point x="745" y="786" type="line"/>
      <point x="738" y="786" type="line"/>
      <point x="738" y="779" type="line"/>
      <point x="681" y="729"/>
      <point x="575" y="675"/>
      <point x="484" y="645" type="curve"/>
      <point x="491" y="640"/>
      <point x="499" y="631"/>
      <point x="504" y="625" type="curve"/>
      <point x="596" y="658"/>
      <point x="706" y="713"/>
      <point x="774" y="772" type="curve"/>
      <point x="752" y="788" type="line"/>
    </contour>
    <contour>
      <point x="513" y="325" type="curve"/>
      <point x="513" y="645" type="line"/>
      <point x="483" y="645" type="line"/>
      <point x="483" y="325" type="line"/>
      <point x="483" y="312"/>
      <point x="480" y="308"/>
      <point x="465" y="307" type="curve"/>
      <point x="448" y="306"/>
      <point x="401" y="306"/>
      <point x="331" y="307" type="curve"/>
      <point x="336" y="297"/>
      <point x="342" y="286"/>
      <point x="344" y="278" type="curve"/>
      <point x="418" y="278"/>
      <point x="463" y="278"/>
      <point x="484" y="283" type="curve"/>
      <point x="507" y="289"/>
      <point x="513" y="299"/>
    </contour>
  </outline>
</glyph>
<glyph name="ety149_cid25109_H" format="1">
  <advance width="1000"/>
  <outline>
    <contour>
      <point x="775" y="445" type="line"/>
      <point x="739" y="445" type="line"/>
      <point x="739" y="420" type="line"/>
      <point x="685" y="386"/>
      <point x="553" y="340"/>
      <point x="446" y="317" type="curve"/>
      <point x="465" y="296"/>
      <point x="498" y="258"/>
      <point x="513" y="234" type="curve"/>
      <point x="645" y="267"/>
      <point x="783" y="317"/>
      <point x="892" y="372" type="curve"/>
      <point x="804" y="451" type="line"/>
    </contour>
    <contour>
      <point x="584" y="237" type="curve"/>
      <point x="584" y="316" type="line"/>
      <point x="446" y="316" type="line"/>
      <point x="446" y="243" type="line"/>
      <point x="446" y="230"/>
      <point x="440" y="227"/>
      <point x="422" y="227" type="curve"/>
      <point x="405" y="226"/>
      <point x="326" y="226"/>
      <point x="275" y="229" type="curve"/>
      <point x="293" y="198"/>
      <point x="314" y="152"/>
      <point x="322" y="117" type="curve"/>
      <point x="403" y="117"/>
      <point x="467" y="117"/>
      <point x="517" y="132" type="curve"/>
      <point x="568" y="148"/>
      <point x="584" y="176"/>
    </contour>
  </outline>
</glyph>
<glyph name="ety150_cid25182_EL" format="1">
  <advance width="1000"/>
  <outline>
    <contour>
      <point x="853" y="351" type="line"/>
      <point x="845" y="351" type="line"/>
      <point x="845" y="344" type="line"/>
      <point x="797" y="306"/>
      <point x="711" y="266"/>
      <point x="638" y="242" type="curve"/>
      <point x="645" y="237"/>
      <point x="654" y="229"/>
      <point x="659" y="223" type="curve"/>
      <point x="732" y="247"/>
      <point x="824" y="289"/>
      <point x="883" y="337" type="curve"/>
      <point x="860" y="353" type="line"/>
    </contour>
    <contour>
      <point x="668" y="-21" type="curve"/>
      <point x="668" y="241" type="line"/>
      <point x="638" y="241" type="line"/>
      <point x="638" y="-21" type="line"/>
      <point x="638" y="-33"/>
      <point x="635" y="-36"/>
      <point x="621" y="-37" type="curve"/>
      <point x="607" y="-38"/>
      <point x="562" y="-39"/>
      <point x="500" y="-37" type="curve"/>
      <point x="505" y="-46"/>
      <point x="510" y="-57"/>
      <point x="512" y="-65" type="curve"/>
      <point x="582" y="-65"/>
      <point x="623" y="-65"/>
      <point x="642" y="-60" type="curve"/>
      <point x="663" y="-54"/>
      <point x="668" y="-44"/>
    </contour>
  </outline>
</glyph>
<glyph name="ety153_cid25441_H" format="1">
  <advance width="1000"/>
  <outline>
    <contour>
      <point x="383" y="476" type="line"/>
      <point x="354" y="476" type="line"/>
      <point x="354" y="457" type="line"/>
      <point x="325" y="432"/>
      <point x="264" y="397"/>
      <point x="214" y="376" type="curve"/>
      <point x="228" y="362"/>
      <point x="255" y="332"/>
      <point x="268" y="313" type="curve"/>
      <point x="337" y="341"/>
      <point x="414" y="381"/>
      <point x="474" y="422" type="curve"/>
      <point x="406" y="482" type="line"/>
    </contour>
    <contour>
      <point x="344" y="227" type="curve"/>
      <point x="344" y="377" type="line"/>
      <point x="213" y="377" type="line"/>
      <point x="213" y="232" type="line"/>
      <point x="213" y="222"/>
      <point x="209" y="219"/>
      <point x="198" y="219" type="curve"/>
      <point x="188" y="218"/>
      <point x="151" y="218"/>
      <point x="124" y="220" type="curve"/>
      <point x="138" y="193"/>
      <point x="154" y="155"/>
      <point x="161" y="124" type="curve"/>
      <point x="218" y="124"/>
      <point x="262" y="124"/>
      <point x="298" y="138" type="curve"/>
      <point x="334" y="153"/>
      <point x="344" y="175"/>
    </contour>
  </outline>
</glyph>
<glyph name="ety153_cid25539_EL" format="1">
  <advance width="1000"/>
  <outline>
    <contour>
      <point x="508" y="-21" type="curve"/>
      <point x="508" y="253" type="line"/>
      <point x="478" y="253" type="line"/>
      <point x="478" y="-21" type="line"/>
      <point x="478" y="-30"/>
      <point x="476" y="-33"/>
      <point x="465" y="-34" type="curve"/>
      <point x="454" y="-35"/>
      <point x="419" y="-35"/>
      <point x="374" y="-34" type="curve"/>
      <point x="378" y="-42"/>
      <point x="383" y="-53"/>
      <point x="385" y="-60" type="curve"/>
      <point x="440" y="-60"/>
      <point x="471" y="-60"/>
      <point x="487" y="-55" type="curve"/>
      <point x="503" y="-49"/>
      <point x="508" y="-41"/>
    </contour>
    <contour>
      <point x="600" y="359" type="line"/>
      <point x="592" y="359" type="line"/>
      <point x="592" y="352" type="line"/>
      <point x="564" y="319"/>
      <point x="517" y="279"/>
      <point x="479" y="253" type="curve"/>
      <point x="485" y="250"/>
      <point x="493" y="244"/>
      <point x="498" y="240" type="curve"/>
      <point x="537" y="266"/>
      <point x="591" y="305"/>
      <point x="629" y="346" type="curve"/>
      <point x="607" y="361" type="line"/>
    </contour>
  </outline>
</glyph>
<glyph name="ety154_cid25879_H" format="1">
  <advance width="1000"/>
  <outline>
    <contour>
      <point x="785" y="62" type="curve"/>
      <point x="785" y="383" type="line"/>
      <point x="642" y="383" type="line"/>
      <point x="642" y="66" type="line"/>
      <point x="642" y="54"/>
      <point x="638" y="51"/>
      <point x="623" y="51" type="curve"/>
      <point x="608" y="51"/>
      <point x="558" y="51"/>
      <point x="518" y="53" type="curve"/>
      <point x="538" y="16"/>
      <point x="560" y="-43"/>
      <point x="567" y="-83" type="curve"/>
      <point x="633" y="-84"/>
      <point x="687" y="-81"/>
      <point x="730" y="-60" type="curve"/>
      <point x="774" y="-38"/>
      <point x="785" y="-2"/>
    </contour>
    <contour>
      <point x="798" y="552" type="line"/>
      <point x="761" y="552" type="line"/>
      <point x="761" y="526" type="line"/>
      <point x="741" y="484"/>
      <point x="692" y="419"/>
      <point x="641" y="383" type="curve"/>
      <point x="663" y="363"/>
      <point x="702" y="322"/>
      <point x="719" y="296" type="curve"/>
      <point x="801" y="343"/>
      <point x="872" y="421"/>
      <point x="922" y="493" type="curve"/>
      <point x="830" y="559" type="line"/>
    </contour>
  </outline>
</glyph>
<glyph name="ety157_cid25907_EL" format="1">
  <advance width="1000"/>
  <outline>
    <contour>
      <point x="851" y="351" type="line"/>
      <point x="843" y="351" type="line"/>
      <point x="843" y="344" type="line"/>
      <point x="795" y="306"/>
      <point x="709" y="266"/>
      <point x="636" y="242" type="curve"/>
      <point x="643" y="237"/>
      <point x="652" y="229"/>
      <point x="657" y="223" type="curve"/>
      <point x="730" y="247"/>
      <point x="822" y="289"/>
      <point x="881" y="337" type="curve"/>
      <point x="858" y="353" type="line"/>
    </contour>
    <contour>
      <point x="666" y="-21" type="curve"/>
      <point x="666" y="241" type="line"/>
      <point x="636" y="241" type="line"/>
      <point x="636" y="-21" type="line"/>
      <point x="636" y="-33"/>
      <point x="633" y="-36"/>
      <point x="619" y="-37" type="curve"/>
      <point x="605" y="-38"/>
      <point x="560" y="-39"/>
      <point x="498" y="-37" type="curve"/>
      <point x="503" y="-46"/>
      <point x="508" y="-57"/>
      <point x="510" y="-65" type="curve"/>
      <point x="580" y="-65"/>
      <point x="621" y="-65"/>
      <point x="640" y="-60" type="curve"/>
      <point x="661" y="-54"/>
      <point x="666" y="-44"/>
    </contour>
  </outline>
</glyph>
<glyph name="ety158_cid25907_H" format="1">
  <advance width="1000"/>
  <outline>
    <contour>
      <point x="856" y="363" type="line"/>
      <point x="823" y="363" type="line"/>
      <point x="823" y="339" type="line"/>
      <point x="785" y="307"/>
      <point x="696" y="260"/>
      <point x="623" y="234" type="curve"/>
      <point x="640" y="217"/>
      <point x="671" y="180"/>
      <point x="685" y="158" type="curve"/>
      <point x="781" y="193"/>
      <point x="882" y="245"/>
      <point x="962" y="297" type="curve"/>
      <point x="883" y="370" type="line"/>
    </contour>
    <contour>
      <point x="759" y="34" type="curve"/>
      <point x="759" y="234" type="line"/>
      <point x="622" y="234" type="line"/>
      <point x="622" y="39" type="line"/>
      <point x="622" y="27"/>
      <point x="617" y="24"/>
      <point x="603" y="23" type="curve"/>
      <point x="589" y="23"/>
      <point x="532" y="23"/>
      <point x="494" y="25" type="curve"/>
      <point x="510" y="-9"/>
      <point x="528" y="-58"/>
      <point x="533" y="-95" type="curve"/>
      <point x="604" y="-96"/>
      <point x="659" y="-95"/>
      <point x="703" y="-78" type="curve"/>
      <point x="747" y="-60"/>
      <point x="759" y="-28"/>
    </contour>
  </outline>
</glyph>
<glyph name="ety160_cid26126_EL" format="1">
  <advance width="1000"/>
  <outline>
    <contour>
      <point x="652" y="386" type="curve"/>
      <point x="652" y="658" type="line"/>
      <point x="623" y="658" type="line"/>
      <point x="623" y="386" type="line"/>
      <point x="623" y="376"/>
      <point x="620" y="372"/>
      <point x="606" y="371" type="curve"/>
      <point x="591" y="370"/>
      <point x="553" y="369"/>
      <point x="491" y="371" type="curve"/>
      <point x="497" y="362"/>
      <point x="505" y="350"/>
      <point x="508" y="341" type="curve"/>
      <point x="573" y="341"/>
      <point x="606" y="341"/>
      <point x="625" y="348" type="curve"/>
      <point x="646" y="354"/>
      <point x="652" y="365"/>
    </contour>
    <contour>
      <point x="828" y="792" type="line"/>
      <point x="821" y="792" type="line"/>
      <point x="821" y="785" type="line"/>
      <point x="773" y="741"/>
      <point x="688" y="689"/>
      <point x="623" y="659" type="curve"/>
      <point x="628" y="654"/>
      <point x="637" y="646"/>
      <point x="642" y="640" type="curve"/>
      <point x="709" y="672"/>
      <point x="798" y="725"/>
      <point x="857" y="779" type="curve"/>
      <point x="835" y="794" type="line"/>
    </contour>
  </outline>
</glyph>
<glyph name="ety162_cid27355_H" format="1">
  <advance width="1000"/>
  <outline>
    <contour>
      <point x="795" y="306" type="line"/>
      <point x="764" y="306" type="line"/>
      <point x="764" y="284" type="line"/>
      <point x="732" y="253"/>
      <point x="657" y="207"/>
      <point x="596" y="181" type="curve"/>
      <point x="613" y="165"/>
      <point x="644" y="131"/>
      <point x="657" y="109" type="curve"/>
      <point x="740" y="144"/>
      <point x="829" y="196"/>
      <point x="897" y="247" type="curve"/>
      <point x="821" y="312" type="line"/>
    </contour>
    <contour>
      <point x="730" y="29" type="curve"/>
      <point x="730" y="182" type="line"/>
      <point x="596" y="182" type="line"/>
      <point x="596" y="34" type="line"/>
      <point x="596" y="23"/>
      <point x="591" y="20"/>
      <point x="575" y="19" type="curve"/>
      <point x="561" y="19"/>
      <point x="499" y="19"/>
      <point x="455" y="21" type="curve"/>
      <point x="472" y="-9"/>
      <point x="491" y="-55"/>
      <point x="498" y="-89" type="curve"/>
      <point x="571" y="-89"/>
      <point x="628" y="-88"/>
      <point x="672" y="-73" type="curve"/>
      <point x="717" y="-56"/>
      <point x="730" y="-29"/>
    </contour>
  </outline>
</glyph>
<glyph name="ety164_cid27415_EL" format="1">
  <advance width="1000"/>
  <outline>
    <contour>
      <point x="768" y="271" type="line"/>
      <point x="762" y="271" type="line"/>
      <point x="762" y="263" type="line"/>
      <point x="722" y="227"/>
      <point x="632" y="187"/>
      <point x="570" y="171" type="curve"/>
      <point x="575" y="166"/>
      <point x="584" y="157"/>
      <point x="589" y="150" type="curve"/>
      <point x="653" y="171"/>
      <point x="747" y="211"/>
      <point x="793" y="260" type="curve"/>
      <point x="773" y="273" type="line"/>
    </contour>
    <contour>
      <point x="598" y="-20" type="curve"/>
      <point x="598" y="171" type="line"/>
      <point x="569" y="171" type="line"/>
      <point x="569" y="-20" type="line"/>
      <point x="569" y="-31"/>
      <point x="566" y="-35"/>
      <point x="552" y="-36" type="curve"/>
      <point x="537" y="-37"/>
      <point x="492" y="-37"/>
      <point x="430" y="-35" type="curve"/>
      <point x="435" y="-44"/>
      <point x="440" y="-54"/>
      <point x="442" y="-63" type="curve"/>
      <point x="514" y="-63"/>
      <point x="554" y="-63"/>
      <point x="574" y="-57" type="curve"/>
      <point x="593" y="-51"/>
      <point x="598" y="-41"/>
    </contour>
  </outline>
</glyph>
<glyph name="ety165_cid27415_H" format="1">
  <advance width="1000"/>
  <outline>
    <contour>
      <point x="725" y="286" type="line"/>
      <point x="707" y="286" type="line"/>
      <point x="707" y="267" type="line"/>
      <point x="676" y="231"/>
      <point x="592" y="193"/>
      <point x="529" y="174" type="curve"/>
      <point x="553" y="157"/>
      <point x="593" y="122"/>
      <point x="612" y="101" type="curve"/>
      <point x="687" y="130"/>
      <point x="781" y="175"/>
      <point x="833" y="239" type="curve"/>
      <point x="746" y="292" type="line"/>
    </contour>
    <contour>
      <point x="662" y="29" type="curve"/>
      <point x="662" y="174" type="line"/>
      <point x="528" y="174" type="line"/>
      <point x="528" y="30" type="line"/>
      <point x="528" y="19"/>
      <point x="522" y="16"/>
      <point x="508" y="15" type="curve"/>
      <point x="495" y="15"/>
      <point x="438" y="15"/>
      <point x="399" y="17" type="curve"/>
      <point x="415" y="-12"/>
      <point x="433" y="-56"/>
      <point x="441" y="-89" type="curve"/>
      <point x="510" y="-89"/>
      <point x="565" y="-88"/>
      <point x="606" y="-73" type="curve"/>
      <point x="649" y="-56"/>
      <point x="662" y="-28"/>
    </contour>
  </outline>
</glyph>
<glyph name="ety167_cid29497_EL" format="1">
  <advance width="1000"/>
  <outline>
    <contour>
      <point x="560" y="-32" type="curve"/>
      <point x="560" y="152" type="line"/>
      <point x="530" y="152" type="line"/>
      <point x="530" y="-33" type="line"/>
      <point x="530" y="-45"/>
      <point x="526" y="-49"/>
      <point x="511" y="-50" type="curve"/>
      <point x="494" y="-52"/>
      <point x="440" y="-52"/>
      <point x="366" y="-50" type="curve"/>
      <point x="371" y="-59"/>
      <point x="377" y="-68"/>
      <point x="378" y="-76" type="curve"/>
      <point x="464" y="-76"/>
      <point x="510" y="-76"/>
      <point x="532" y="-71" type="curve"/>
      <point x="554" y="-65"/>
      <point x="560" y="-56"/>
    </contour>
    <contour>
      <point x="773" y="245" type="line"/>
      <point x="767" y="245" type="line"/>
      <point x="767" y="238" type="line"/>
      <point x="714" y="204"/>
      <point x="616" y="171"/>
      <point x="530" y="153" type="curve"/>
      <point x="537" y="147"/>
      <point x="545" y="138"/>
      <point x="550" y="132" type="curve"/>
      <point x="636" y="152"/>
      <point x="738" y="186"/>
      <point x="803" y="231" type="curve"/>
      <point x="780" y="247" type="line"/>
    </contour>
  </outline>
</glyph>
<glyph name="ety168_cid29221_EL" format="1">
  <advance width="1000"/>
  <outline>
    <contour>
      <point x="850" y="351" type="line"/>
      <point x="842" y="351" type="line"/>
      <point x="842" y="344" type="line"/>
      <point x="794" y="306"/>
      <point x="708" y="266"/>
      <point x="635" y="242" type="curve"/>
      <point x="642" y="237"/>
      <point x="651" y="229"/>
      <point x="656" y="223" type="curve"/>
      <point x="729" y="247"/>
      <point x="821" y="289"/>
      <point x="880" y="337" type="curve"/>
      <point x="857" y="353" type="line"/>
    </contour>
    <contour>
      <point x="665" y="-21" type="curve"/>
      <point x="665" y="241" type="line"/>
      <point x="635" y="241" type="line"/>
      <point x="635" y="-21" type="line"/>
      <point x="635" y="-33"/>
      <point x="632" y="-36"/>
      <point x="618" y="-37" type="curve"/>
      <point x="604" y="-38"/>
      <point x="559" y="-39"/>
      <point x="497" y="-37" type="curve"/>
      <point x="502" y="-46"/>
      <point x="507" y="-57"/>
      <point x="509" y="-65" type="curve"/>
      <point x="579" y="-65"/>
      <point x="620" y="-65"/>
      <point x="639" y="-60" type="curve"/>
      <point x="660" y="-54"/>
      <point x="665" y="-44"/>
    </contour>
  </outline>
</glyph>
<glyph name="ety170_cid29909_EL" format="1">
  <advance width="1000"/>
  <outline>
    <contour>
      <point x="527" y="-22" type="curve"/>
      <point x="527" y="233" type="line"/>
      <point x="498" y="233" type="line"/>
      <point x="498" y="-23" type="line"/>
      <point x="498" y="-36"/>
      <point x="494" y="-40"/>
      <point x="478" y="-41" type="curve"/>
      <point x="461" y="-42"/>
      <point x="408" y="-43"/>
      <point x="333" y="-41" type="curve"/>
      <point x="339" y="-50"/>
      <point x="344" y="-60"/>
      <point x="346" y="-68" type="curve"/>
      <point x="429" y="-68"/>
      <point x="476" y="-68"/>
      <point x="499" y="-64" type="curve"/>
      <point x="522" y="-58"/>
      <point x="527" y="-47"/>
    </contour>
    <contour>
      <point x="772" y="351" type="line"/>
      <point x="765" y="351" type="line"/>
      <point x="765" y="344" type="line"/>
      <point x="705" y="301"/>
      <point x="595" y="258"/>
      <point x="498" y="234" type="curve"/>
      <point x="505" y="229"/>
      <point x="514" y="220"/>
      <point x="519" y="213" type="curve"/>
      <point x="617" y="238"/>
      <point x="730" y="283"/>
      <point x="803" y="336" type="curve"/>
      <point x="779" y="353" type="line"/>
    </contour>
  </outline>
</glyph>
<glyph name="ety170_cid30164_H" format="1">
  <advance width="1000"/>
  <outline>
    <contour>
      <point x="570" y="321" type="curve"/>
      <point x="570" y="476" type="line"/>
      <point x="430" y="476" type="line"/>
      <point x="430" y="326" type="line"/>
      <point x="430" y="316"/>
      <point x="426" y="313"/>
      <point x="416" y="313" type="curve"/>
      <point x="406" y="313"/>
      <point x="371" y="313"/>
      <point x="346" y="315" type="curve"/>
      <point x="361" y="284"/>
      <point x="379" y="239"/>
      <point x="385" y="204" type="curve"/>
      <point x="441" y="204"/>
      <point x="486" y="205"/>
      <point x="523" y="221" type="curve"/>
      <point x="561" y="238"/>
      <point x="570" y="265"/>
    </contour>
    <contour>
      <point x="652" y="613" type="line"/>
      <point x="616" y="613" type="line"/>
      <point x="616" y="588" type="line"/>
      <point x="581" y="555"/>
      <point x="498" y="504"/>
      <point x="429" y="476" type="curve"/>
      <point x="448" y="457"/>
      <point x="483" y="418"/>
      <point x="498" y="395" type="curve"/>
      <point x="593" y="433"/>
      <point x="692" y="489"/>
      <point x="769" y="543" type="curve"/>
      <point x="682" y="620" type="line"/>
    </contour>
  </outline>
</glyph>
<glyph name="ety171_cid29909_H" format="1">
  <advance width="1000"/>
  <outline>
    <contour>
      <point x="587" y="34" type="curve"/>
      <point x="587" y="243" type="line"/>
      <point x="445" y="243" type="line"/>
      <point x="445" y="39" type="line"/>
      <point x="445" y="27"/>
      <point x="440" y="24"/>
      <point x="424" y="24" type="curve"/>
      <point x="409" y="23"/>
      <point x="349" y="23"/>
      <point x="307" y="26" type="curve"/>
      <point x="325" y="-8"/>
      <point x="345" y="-58"/>
      <point x="352" y="-95" type="curve"/>
      <point x="425" y="-95"/>
      <point x="482" y="-94"/>
      <point x="528" y="-77" type="curve"/>
      <point x="574" y="-59"/>
      <point x="587" y="-28"/>
    </contour>
    <contour>
      <point x="723" y="376" type="line"/>
      <point x="684" y="376" type="line"/>
      <point x="684" y="352" type="line"/>
      <point x="638" y="319"/>
      <point x="533" y="270"/>
      <point x="446" y="244" type="curve"/>
      <point x="464" y="226"/>
      <point x="499" y="191"/>
      <point x="514" y="169" type="curve"/>
      <point x="631" y="204"/>
      <point x="749" y="255"/>
      <point x="844" y="307" type="curve"/>
      <point x="754" y="382" type="line"/>
    </contour>
  </outline>
</glyph>
<glyph name="ety171_cid31104_EL" format="1">
  <advance width="1000"/>
  <outline>
    <contour>
      <point x="674" y="-22" type="curve"/>
      <point x="674" y="327" type="line"/>
      <point x="645" y="327" type="line"/>
      <point x="645" y="-22" type="line"/>
      <point x="645" y="-33"/>
      <point x="642" y="-36"/>
      <point x="629" y="-37" type="curve"/>
      <point x="618" y="-38"/>
      <point x="578" y="-38"/>
      <point x="526" y="-37" type="curve"/>
      <point x="531" y="-45"/>
      <point x="537" y="-57"/>
      <point x="539" y="-65" type="curve"/>
      <point x="599" y="-65"/>
      <point x="633" y="-65"/>
      <point x="651" y="-59" type="curve"/>
      <point x="670" y="-54"/>
      <point x="674" y="-44"/>
    </contour>
    <contour>
      <point x="835" y="488" type="line"/>
      <point x="828" y="488" type="line"/>
      <point x="828" y="481" type="line"/>
      <point x="786" y="428"/>
      <point x="710" y="365"/>
      <point x="646" y="327" type="curve"/>
      <point x="652" y="323"/>
      <point x="660" y="316"/>
      <point x="665" y="310" type="curve"/>
      <point x="730" y="350"/>
      <point x="812" y="414"/>
      <point x="863" y="476" type="curve"/>
      <point x="842" y="490" type="line"/>
    </contour>
  </outline>
</glyph>
<glyph name="ety174_cid31945_EL" format="1">
  <advance width="1000"/>
  <outline>
    <contour>
      <point x="511" y="-19" type="curve"/>
      <point x="511" y="202" type="line"/>
      <point x="481" y="202" type="line"/>
      <point x="481" y="-19" type="line"/>
      <point x="481" y="-33"/>
      <point x="477" y="-37"/>
      <point x="460" y="-38" type="curve"/>
      <point x="441" y="-40"/>
      <point x="384" y="-40"/>
      <point x="302" y="-38" type="curve"/>
      <point x="307" y="-48"/>
      <point x="313" y="-57"/>
      <point x="315" y="-65" type="curve"/>
      <point x="407" y="-65"/>
      <point x="457" y="-66"/>
      <point x="480" y="-61" type="curve"/>
      <point x="505" y="-55"/>
      <point x="511" y="-44"/>
    </contour>
    <contour>
      <point x="756" y="307" type="line"/>
      <point x="748" y="307" type="line"/>
      <point x="748" y="300" type="line"/>
      <point x="688" y="261"/>
      <point x="578" y="223"/>
      <point x="482" y="202" type="curve"/>
      <point x="489" y="197"/>
      <point x="498" y="187"/>
      <point x="502" y="180" type="curve"/>
      <point x="600" y="203"/>
      <point x="714" y="242"/>
      <point x="786" y="292" type="curve"/>
      <point x="763" y="309" type="line"/>
    </contour>
  </outline>
</glyph>
<glyph name="ety175_cid31945_H" format="1">
  <advance width="1000"/>
  <outline>
    <contour>
      <point x="581" y="35" type="curve"/>
      <point x="581" y="208" type="line"/>
      <point x="439" y="208" type="line"/>
      <point x="439" y="40" type="line"/>
      <point x="439" y="27"/>
      <point x="433" y="24"/>
      <point x="415" y="24" type="curve"/>
      <point x="398" y="23"/>
      <point x="323" y="23"/>
      <point x="273" y="26" type="curve"/>
      <point x="292" y="-7"/>
      <point x="314" y="-58"/>
      <point x="322" y="-95" type="curve"/>
      <point x="402" y="-95"/>
      <point x="465" y="-94"/>
      <point x="515" y="-77" type="curve"/>
      <point x="566" y="-60"/>
      <point x="581" y="-29"/>
    </contour>
    <contour>
      <point x="712" y="345" type="line"/>
      <point x="673" y="345" type="line"/>
      <point x="673" y="321" type="line"/>
      <point x="628" y="287"/>
      <point x="525" y="236"/>
      <point x="439" y="209" type="curve"/>
      <point x="457" y="191"/>
      <point x="492" y="156"/>
      <point x="507" y="134" type="curve"/>
      <point x="623" y="170"/>
      <point x="739" y="224"/>
      <point x="833" y="276" type="curve"/>
      <point x="743" y="351" type="line"/>
    </contour>
  </outline>
</glyph>
<glyph name="ety177_cid32788_EL" format="1">
  <advance width="1000"/>
  <outline>
    <contour>
      <point x="745" y="791" type="line"/>
      <point x="738" y="791" type="line"/>
      <point x="738" y="784" type="line"/>
      <point x="681" y="744"/>
      <point x="576" y="704"/>
      <point x="485" y="682" type="curve"/>
      <point x="491" y="677"/>
      <point x="500" y="669"/>
      <point x="505" y="662" type="curve"/>
      <point x="596" y="686"/>
      <point x="705" y="727"/>
      <point x="774" y="777" type="curve"/>
      <point x="752" y="793" type="line"/>
    </contour>
    <contour>
      <point x="514" y="494" type="curve"/>
      <point x="514" y="682" type="line"/>
      <point x="484" y="682" type="line"/>
      <point x="484" y="494" type="line"/>
      <point x="484" y="484"/>
      <point x="482" y="480"/>
      <point x="469" y="480" type="curve"/>
      <point x="455" y="478"/>
      <point x="418" y="478"/>
      <point x="360" y="480" type="curve"/>
      <point x="365" y="471"/>
      <point x="371" y="461"/>
      <point x="372" y="452" type="curve"/>
      <point x="434" y="452"/>
      <point x="471" y="452"/>
      <point x="490" y="458" type="curve"/>
      <point x="509" y="464"/>
      <point x="514" y="473"/>
    </contour>
  </outline>
</glyph>
<glyph name="ety177_cid32842_H" format="1">
  <advance width="1000"/>
  <outline>
    <contour>
      <point x="745" y="45" type="curve"/>
      <point x="745" y="221" type="line"/>
      <point x="599" y="221" type="line"/>
      <point x="599" y="50" type="line"/>
      <point x="599" y="39"/>
      <point x="594" y="37"/>
      <point x="580" y="36" type="curve"/>
      <point x="567" y="36"/>
      <point x="514" y="36"/>
      <point x="478" y="38" type="curve"/>
      <point x="495" y="3"/>
      <point x="513" y="-48"/>
      <point x="519" y="-86" type="curve"/>
      <point x="589" y="-86"/>
      <point x="644" y="-85"/>
      <point x="688" y="-67" type="curve"/>
      <point x="734" y="-49"/>
      <point x="745" y="-16"/>
    </contour>
    <contour>
      <point x="820" y="370" type="line"/>
      <point x="781" y="370" type="line"/>
      <point x="781" y="344" type="line"/>
      <point x="747" y="309"/>
      <point x="668" y="252"/>
      <point x="600" y="221" type="curve"/>
      <point x="618" y="203"/>
      <point x="654" y="166"/>
      <point x="669" y="143" type="curve"/>
      <point x="769" y="183"/>
      <point x="865" y="244"/>
      <point x="942" y="301" type="curve"/>
      <point x="852" y="377" type="line"/>
    </contour>
  </outline>
</glyph>
<glyph name="ety178_cid32829_EL" format="1">
  <advance width="1000"/>
  <outline>
    <contour>
      <point x="840" y="415" type="line"/>
      <point x="832" y="415" type="line"/>
      <point x="832" y="408" type="line"/>
      <point x="792" y="364"/>
      <point x="718" y="312"/>
      <point x="655" y="281" type="curve"/>
      <point x="662" y="277"/>
      <point x="671" y="269"/>
      <point x="675" y="262" type="curve"/>
      <point x="740" y="294"/>
      <point x="819" y="347"/>
      <point x="870" y="401" type="curve"/>
      <point x="847" y="417" type="line"/>
    </contour>
    <contour>
      <point x="683" y="-28" type="curve"/>
      <point x="683" y="281" type="line"/>
      <point x="654" y="281" type="line"/>
      <point x="654" y="-28" type="line"/>
      <point x="654" y="-40"/>
      <point x="651" y="-43"/>
      <point x="638" y="-44" type="curve"/>
      <point x="624" y="-45"/>
      <point x="584" y="-45"/>
      <point x="526" y="-44" type="curve"/>
      <point x="531" y="-53"/>
      <point x="537" y="-65"/>
      <point x="539" y="-73" type="curve"/>
      <point x="601" y="-73"/>
      <point x="639" y="-73"/>
      <point x="659" y="-67" type="curve"/>
      <point x="678" y="-62"/>
      <point x="683" y="-52"/>
    </contour>
  </outline>
</glyph>
<glyph name="ety180_cid32843_EL" format="1">
  <advance width="1000"/>
  <outline>
    <contour>
      <point x="667" y="-28" type="curve"/>
      <point x="667" y="220" type="line"/>
      <point x="637" y="220" type="line"/>
      <point x="637" y="-29" type="line"/>
      <point x="637" y="-41"/>
      <point x="633" y="-45"/>
      <point x="618" y="-46" type="curve"/>
      <point x="602" y="-47"/>
      <point x="550" y="-48"/>
      <point x="479" y="-46" type="curve"/>
      <point x="484" y="-55"/>
      <point x="490" y="-65"/>
      <point x="492" y="-73" type="curve"/>
      <point x="574" y="-73"/>
      <point x="618" y="-73"/>
      <point x="639" y="-67" type="curve"/>
      <point x="661" y="-62"/>
      <point x="667" y="-52"/>
    </contour>
    <contour>
      <point x="851" y="329" type="line"/>
      <point x="844" y="329" type="line"/>
      <point x="844" y="323" type="line"/>
      <point x="795" y="285"/>
      <point x="708" y="244"/>
      <point x="637" y="221" type="curve"/>
      <point x="644" y="216"/>
      <point x="652" y="209"/>
      <point x="656" y="204" type="curve"/>
      <point x="727" y="229"/>
      <point x="819" y="270"/>
      <point x="880" y="316" type="curve"/>
      <point x="858" y="331" type="line"/>
    </contour>
  </outline>
</glyph>
<glyph name="ety180_cid33489_EL" format="1">
  <advance width="1000"/>
  <outline>
    <contour>
      <point x="720" y="-22" type="curve"/>
      <point x="720" y="327" type="line"/>
      <point x="690" y="327" type="line"/>
      <point x="690" y="-22" type="line"/>
      <point x="690" y="-33"/>
      <point x="687" y="-36"/>
      <point x="674" y="-37" type="curve"/>
      <point x="663" y="-38"/>
      <point x="623" y="-38"/>
      <point x="572" y="-37" type="curve"/>
      <point x="576" y="-45"/>
      <point x="582" y="-57"/>
      <point x="584" y="-65" type="curve"/>
      <point x="644" y="-65"/>
      <point x="678" y="-65"/>
      <point x="696" y="-59" type="curve"/>
      <point x="715" y="-54"/>
      <point x="720" y="-44"/>
    </contour>
    <contour>
      <point x="880" y="488" type="line"/>
      <point x="873" y="488" type="line"/>
      <point x="873" y="481" type="line"/>
      <point x="831" y="428"/>
      <point x="755" y="365"/>
      <point x="691" y="327" type="curve"/>
      <point x="697" y="323"/>
      <point x="705" y="316"/>
      <point x="710" y="310" type="curve"/>
      <point x="775" y="350"/>
      <point x="857" y="414"/>
      <point x="908" y="476" type="curve"/>
      <point x="887" y="490" type="line"/>
    </contour>
  </outline>
</glyph>
<glyph name="ety181_cid33488_EL" format="1">
  <advance width="1000"/>
  <outline>
    <contour>
      <point x="707" y="-22" type="curve"/>
      <point x="707" y="327" type="line"/>
      <point x="677" y="327" type="line"/>
      <point x="677" y="-22" type="line"/>
      <point x="677" y="-33"/>
      <point x="674" y="-36"/>
      <point x="662" y="-37" type="curve"/>
      <point x="650" y="-38"/>
      <point x="611" y="-38"/>
      <point x="559" y="-37" type="curve"/>
      <point x="564" y="-45"/>
      <point x="570" y="-57"/>
      <point x="572" y="-65" type="curve"/>
      <point x="631" y="-65"/>
      <point x="666" y="-65"/>
      <point x="683" y="-59" type="curve"/>
      <point x="702" y="-54"/>
      <point x="707" y="-44"/>
    </contour>
    <contour>
      <point x="868" y="488" type="line"/>
      <point x="861" y="488" type="line"/>
      <point x="861" y="481" type="line"/>
      <point x="819" y="428"/>
      <point x="742" y="365"/>
      <point x="678" y="327" type="curve"/>
      <point x="684" y="323"/>
      <point x="692" y="316"/>
      <point x="697" y="310" type="curve"/>
      <point x="763" y="350"/>
      <point x="844" y="414"/>
      <point x="895" y="476" type="curve"/>
      <point x="874" y="490" type="line"/>
    </contour>
  </outline>
</glyph>
<glyph name="ety182_cid33514_EL" format="1">
  <advance width="1000"/>
  <outline>
    <contour>
      <point x="683" y="362" type="curve"/>
      <point x="683" y="658" type="line"/>
      <point x="654" y="658" type="line"/>
      <point x="654" y="361" type="line"/>
      <point x="654" y="350"/>
      <point x="651" y="346"/>
      <point x="637" y="345" type="curve"/>
      <point x="623" y="344"/>
      <point x="584" y="343"/>
      <point x="523" y="345" type="curve"/>
      <point x="528" y="336"/>
      <point x="536" y="325"/>
      <point x="539" y="316" type="curve"/>
      <point x="604" y="316"/>
      <point x="636" y="316"/>
      <point x="657" y="323" type="curve"/>
      <point x="677" y="328"/>
      <point x="683" y="339"/>
    </contour>
    <contour>
      <point x="852" y="792" type="line"/>
      <point x="845" y="792" type="line"/>
      <point x="845" y="785" type="line"/>
      <point x="799" y="741"/>
      <point x="718" y="689"/>
      <point x="654" y="659" type="curve"/>
      <point x="661" y="654"/>
      <point x="670" y="646"/>
      <point x="674" y="640" type="curve"/>
      <point x="737" y="672"/>
      <point x="823" y="725"/>
      <point x="880" y="779" type="curve"/>
      <point x="858" y="794" type="line"/>
    </contour>
  </outline>
</glyph>
<glyph name="ety183_cid33513_H" format="1">
  <advance width="1000"/>
  <outline>
    <contour>
      <point x="772" y="442" type="curve"/>
      <point x="772" y="668" type="line"/>
      <point x="639" y="668" type="line"/>
      <point x="639" y="446" type="line"/>
      <point x="639" y="435"/>
      <point x="634" y="432"/>
      <point x="619" y="431" type="curve"/>
      <point x="605" y="431"/>
      <point x="550" y="431"/>
      <point x="508" y="433" type="curve"/>
      <point x="526" y="402"/>
      <point x="549" y="352"/>
      <point x="557" y="317" type="curve"/>
      <point x="624" y="317"/>
      <point x="675" y="319"/>
      <point x="717" y="336" type="curve"/>
      <point x="760" y="355"/>
      <point x="772" y="385"/>
    </contour>
    <contour>
      <point x="818" y="821" type="line"/>
      <point x="783" y="821" type="line"/>
      <point x="783" y="798" type="line"/>
      <point x="757" y="757"/>
      <point x="699" y="700"/>
      <point x="639" y="669" type="curve"/>
      <point x="657" y="652"/>
      <point x="689" y="618"/>
      <point x="704" y="596" type="curve"/>
      <point x="796" y="636"/>
      <point x="874" y="701"/>
      <point x="930" y="766" type="curve"/>
      <point x="848" y="827" type="line"/>
    </contour>
  </outline>
</glyph>
